%TF.GenerationSoftware,KiCad,Pcbnew,(6.0.8)*%
%TF.CreationDate,2022-11-01T15:17:03-07:00*%
%TF.ProjectId,RioPicoBridge,52696f50-6963-46f4-9272-696467652e6b,rev?*%
%TF.SameCoordinates,Original*%
%TF.FileFunction,Drillmap*%
%TF.FilePolarity,Positive*%
%FSLAX45Y45*%
G04 Gerber Fmt 4.5, Leading zero omitted, Abs format (unit mm)*
G04 Created by KiCad (PCBNEW (6.0.8)) date 2022-11-01 15:17:03*
%MOMM*%
%LPD*%
G01*
G04 APERTURE LIST*
%ADD10C,0.100000*%
%ADD11C,0.200000*%
%ADD12C,0.040000*%
%ADD13C,0.060000*%
%ADD14C,0.102000*%
G04 APERTURE END LIST*
D10*
X0Y-7747000D02*
X0Y-365000D01*
X5664200Y-7747000D02*
X0Y-7747000D01*
X5665000Y-325000D02*
X5664200Y-7747000D01*
X325000Y0D02*
X5300000Y0D01*
D11*
X325000Y0D02*
G75*
G03*
X0Y-364200I19600J-344600D01*
G01*
X5664200Y-325000D02*
G75*
G03*
X5300000Y0I-344600J-19600D01*
G01*
X1050000Y-300000D02*
X1350000Y-300000D01*
X1350000Y-300000D02*
X1350000Y-800000D01*
X1350000Y-800000D02*
X1050000Y-800000D01*
X1050000Y-800000D02*
X1050000Y-300000D01*
X2750000Y-300000D02*
X3050000Y-300000D01*
X3050000Y-300000D02*
X3050000Y-800000D01*
X3050000Y-800000D02*
X2750000Y-800000D01*
X2750000Y-800000D02*
X2750000Y-300000D01*
X4300000Y-300000D02*
X4600000Y-300000D01*
X4600000Y-300000D02*
X4600000Y-800000D01*
X4600000Y-800000D02*
X4300000Y-800000D01*
X4300000Y-800000D02*
X4300000Y-300000D01*
D12*
X2030000Y-3180000D02*
X2070000Y-3220000D01*
X2070000Y-3180000D02*
X2030000Y-3220000D01*
X3580000Y-3130000D02*
X3620000Y-3170000D01*
X3620000Y-3130000D02*
X3580000Y-3170000D01*
D13*
X630000Y-900000D02*
G75*
G03*
X630000Y-900000I-30000J0D01*
G01*
X630000Y-1100000D02*
G75*
G03*
X630000Y-1100000I-30000J0D01*
G01*
X630000Y-1300000D02*
G75*
G03*
X630000Y-1300000I-30000J0D01*
G01*
X630000Y-1500000D02*
G75*
G03*
X630000Y-1500000I-30000J0D01*
G01*
X630000Y-1700000D02*
G75*
G03*
X630000Y-1700000I-30000J0D01*
G01*
X630000Y-1900000D02*
G75*
G03*
X630000Y-1900000I-30000J0D01*
G01*
X630000Y-2100000D02*
G75*
G03*
X630000Y-2100000I-30000J0D01*
G01*
X630000Y-2300000D02*
G75*
G03*
X630000Y-2300000I-30000J0D01*
G01*
X630000Y-2500000D02*
G75*
G03*
X630000Y-2500000I-30000J0D01*
G01*
X630000Y-2700000D02*
G75*
G03*
X630000Y-2700000I-30000J0D01*
G01*
X630000Y-2900000D02*
G75*
G03*
X630000Y-2900000I-30000J0D01*
G01*
X630000Y-3100000D02*
G75*
G03*
X630000Y-3100000I-30000J0D01*
G01*
X630000Y-3300000D02*
G75*
G03*
X630000Y-3300000I-30000J0D01*
G01*
X630000Y-3500000D02*
G75*
G03*
X630000Y-3500000I-30000J0D01*
G01*
X630000Y-3700000D02*
G75*
G03*
X630000Y-3700000I-30000J0D01*
G01*
X630000Y-3900000D02*
G75*
G03*
X630000Y-3900000I-30000J0D01*
G01*
X830000Y-500000D02*
G75*
G03*
X830000Y-500000I-30000J0D01*
G01*
X830000Y-700000D02*
G75*
G03*
X830000Y-700000I-30000J0D01*
G01*
X830000Y-900000D02*
G75*
G03*
X830000Y-900000I-30000J0D01*
G01*
X830000Y-1100000D02*
G75*
G03*
X830000Y-1100000I-30000J0D01*
G01*
X830000Y-1300000D02*
G75*
G03*
X830000Y-1300000I-30000J0D01*
G01*
X830000Y-1500000D02*
G75*
G03*
X830000Y-1500000I-30000J0D01*
G01*
X830000Y-1700000D02*
G75*
G03*
X830000Y-1700000I-30000J0D01*
G01*
X830000Y-1900000D02*
G75*
G03*
X830000Y-1900000I-30000J0D01*
G01*
X830000Y-2100000D02*
G75*
G03*
X830000Y-2100000I-30000J0D01*
G01*
X830000Y-2300000D02*
G75*
G03*
X830000Y-2300000I-30000J0D01*
G01*
X830000Y-2500000D02*
G75*
G03*
X830000Y-2500000I-30000J0D01*
G01*
X830000Y-2700000D02*
G75*
G03*
X830000Y-2700000I-30000J0D01*
G01*
X830000Y-2900000D02*
G75*
G03*
X830000Y-2900000I-30000J0D01*
G01*
X830000Y-3100000D02*
G75*
G03*
X830000Y-3100000I-30000J0D01*
G01*
X830000Y-3300000D02*
G75*
G03*
X830000Y-3300000I-30000J0D01*
G01*
X830000Y-3500000D02*
G75*
G03*
X830000Y-3500000I-30000J0D01*
G01*
X830000Y-3700000D02*
G75*
G03*
X830000Y-3700000I-30000J0D01*
G01*
X830000Y-3900000D02*
G75*
G03*
X830000Y-3900000I-30000J0D01*
G01*
X1030000Y-500000D02*
G75*
G03*
X1030000Y-500000I-30000J0D01*
G01*
X1030000Y-700000D02*
G75*
G03*
X1030000Y-700000I-30000J0D01*
G01*
X1030000Y-900000D02*
G75*
G03*
X1030000Y-900000I-30000J0D01*
G01*
X1030000Y-1100000D02*
G75*
G03*
X1030000Y-1100000I-30000J0D01*
G01*
X1030000Y-1300000D02*
G75*
G03*
X1030000Y-1300000I-30000J0D01*
G01*
X1030000Y-1500000D02*
G75*
G03*
X1030000Y-1500000I-30000J0D01*
G01*
X1030000Y-1700000D02*
G75*
G03*
X1030000Y-1700000I-30000J0D01*
G01*
X1030000Y-1900000D02*
G75*
G03*
X1030000Y-1900000I-30000J0D01*
G01*
X1030000Y-2100000D02*
G75*
G03*
X1030000Y-2100000I-30000J0D01*
G01*
X1030000Y-2300000D02*
G75*
G03*
X1030000Y-2300000I-30000J0D01*
G01*
X1030000Y-2500000D02*
G75*
G03*
X1030000Y-2500000I-30000J0D01*
G01*
X1030000Y-2700000D02*
G75*
G03*
X1030000Y-2700000I-30000J0D01*
G01*
X1030000Y-2900000D02*
G75*
G03*
X1030000Y-2900000I-30000J0D01*
G01*
X1030000Y-3100000D02*
G75*
G03*
X1030000Y-3100000I-30000J0D01*
G01*
X1030000Y-3300000D02*
G75*
G03*
X1030000Y-3300000I-30000J0D01*
G01*
X1030000Y-3500000D02*
G75*
G03*
X1030000Y-3500000I-30000J0D01*
G01*
X1030000Y-3700000D02*
G75*
G03*
X1030000Y-3700000I-30000J0D01*
G01*
X1030000Y-3900000D02*
G75*
G03*
X1030000Y-3900000I-30000J0D01*
G01*
X1230000Y-900000D02*
G75*
G03*
X1230000Y-900000I-30000J0D01*
G01*
X1230000Y-1100000D02*
G75*
G03*
X1230000Y-1100000I-30000J0D01*
G01*
X1230000Y-1300000D02*
G75*
G03*
X1230000Y-1300000I-30000J0D01*
G01*
X1230000Y-1500000D02*
G75*
G03*
X1230000Y-1500000I-30000J0D01*
G01*
X1230000Y-1700000D02*
G75*
G03*
X1230000Y-1700000I-30000J0D01*
G01*
X1230000Y-1900000D02*
G75*
G03*
X1230000Y-1900000I-30000J0D01*
G01*
X1230000Y-2100000D02*
G75*
G03*
X1230000Y-2100000I-30000J0D01*
G01*
X1230000Y-2300000D02*
G75*
G03*
X1230000Y-2300000I-30000J0D01*
G01*
X1230000Y-2500000D02*
G75*
G03*
X1230000Y-2500000I-30000J0D01*
G01*
X1230000Y-2700000D02*
G75*
G03*
X1230000Y-2700000I-30000J0D01*
G01*
X1230000Y-2900000D02*
G75*
G03*
X1230000Y-2900000I-30000J0D01*
G01*
X1230000Y-3100000D02*
G75*
G03*
X1230000Y-3100000I-30000J0D01*
G01*
X1230000Y-3300000D02*
G75*
G03*
X1230000Y-3300000I-30000J0D01*
G01*
X1230000Y-3500000D02*
G75*
G03*
X1230000Y-3500000I-30000J0D01*
G01*
X1230000Y-3700000D02*
G75*
G03*
X1230000Y-3700000I-30000J0D01*
G01*
X1230000Y-3900000D02*
G75*
G03*
X1230000Y-3900000I-30000J0D01*
G01*
X1230000Y-4900000D02*
G75*
G03*
X1230000Y-4900000I-30000J0D01*
G01*
X1430000Y-500000D02*
G75*
G03*
X1430000Y-500000I-30000J0D01*
G01*
X1430000Y-1700000D02*
G75*
G03*
X1430000Y-1700000I-30000J0D01*
G01*
X1430000Y-1900000D02*
G75*
G03*
X1430000Y-1900000I-30000J0D01*
G01*
X1430000Y-2100000D02*
G75*
G03*
X1430000Y-2100000I-30000J0D01*
G01*
X1430000Y-2300000D02*
G75*
G03*
X1430000Y-2300000I-30000J0D01*
G01*
X1430000Y-2500000D02*
G75*
G03*
X1430000Y-2500000I-30000J0D01*
G01*
X1430000Y-2700000D02*
G75*
G03*
X1430000Y-2700000I-30000J0D01*
G01*
X1430000Y-2900000D02*
G75*
G03*
X1430000Y-2900000I-30000J0D01*
G01*
X1430000Y-3100000D02*
G75*
G03*
X1430000Y-3100000I-30000J0D01*
G01*
X1430000Y-3300000D02*
G75*
G03*
X1430000Y-3300000I-30000J0D01*
G01*
X1430000Y-3500000D02*
G75*
G03*
X1430000Y-3500000I-30000J0D01*
G01*
X1430000Y-3700000D02*
G75*
G03*
X1430000Y-3700000I-30000J0D01*
G01*
X1430000Y-3900000D02*
G75*
G03*
X1430000Y-3900000I-30000J0D01*
G01*
X1430000Y-4900000D02*
G75*
G03*
X1430000Y-4900000I-30000J0D01*
G01*
X1430000Y-5900000D02*
G75*
G03*
X1430000Y-5900000I-30000J0D01*
G01*
X1630000Y-500000D02*
G75*
G03*
X1630000Y-500000I-30000J0D01*
G01*
X1630000Y-3700000D02*
G75*
G03*
X1630000Y-3700000I-30000J0D01*
G01*
X1630000Y-5700000D02*
G75*
G03*
X1630000Y-5700000I-30000J0D01*
G01*
X1630000Y-5900000D02*
G75*
G03*
X1630000Y-5900000I-30000J0D01*
G01*
X1830000Y-500000D02*
G75*
G03*
X1830000Y-500000I-30000J0D01*
G01*
X1830000Y-5700000D02*
G75*
G03*
X1830000Y-5700000I-30000J0D01*
G01*
X1830000Y-5900000D02*
G75*
G03*
X1830000Y-5900000I-30000J0D01*
G01*
X2030000Y-500000D02*
G75*
G03*
X2030000Y-500000I-30000J0D01*
G01*
X2030000Y-700000D02*
G75*
G03*
X2030000Y-700000I-30000J0D01*
G01*
X2030000Y-900000D02*
G75*
G03*
X2030000Y-900000I-30000J0D01*
G01*
X2030000Y-1100000D02*
G75*
G03*
X2030000Y-1100000I-30000J0D01*
G01*
X2030000Y-5700000D02*
G75*
G03*
X2030000Y-5700000I-30000J0D01*
G01*
X2030000Y-5900000D02*
G75*
G03*
X2030000Y-5900000I-30000J0D01*
G01*
X2230000Y-500000D02*
G75*
G03*
X2230000Y-500000I-30000J0D01*
G01*
X2230000Y-700000D02*
G75*
G03*
X2230000Y-700000I-30000J0D01*
G01*
X2230000Y-900000D02*
G75*
G03*
X2230000Y-900000I-30000J0D01*
G01*
X2230000Y-1100000D02*
G75*
G03*
X2230000Y-1100000I-30000J0D01*
G01*
X2230000Y-5700000D02*
G75*
G03*
X2230000Y-5700000I-30000J0D01*
G01*
X2230000Y-5900000D02*
G75*
G03*
X2230000Y-5900000I-30000J0D01*
G01*
X2430000Y-500000D02*
G75*
G03*
X2430000Y-500000I-30000J0D01*
G01*
X2430000Y-5300000D02*
G75*
G03*
X2430000Y-5300000I-30000J0D01*
G01*
X2430000Y-5500000D02*
G75*
G03*
X2430000Y-5500000I-30000J0D01*
G01*
X2430000Y-5700000D02*
G75*
G03*
X2430000Y-5700000I-30000J0D01*
G01*
X2430000Y-5900000D02*
G75*
G03*
X2430000Y-5900000I-30000J0D01*
G01*
X2630000Y-500000D02*
G75*
G03*
X2630000Y-500000I-30000J0D01*
G01*
X2630000Y-5300000D02*
G75*
G03*
X2630000Y-5300000I-30000J0D01*
G01*
X2630000Y-5500000D02*
G75*
G03*
X2630000Y-5500000I-30000J0D01*
G01*
X2830000Y-5300000D02*
G75*
G03*
X2830000Y-5300000I-30000J0D01*
G01*
X3030000Y-1700000D02*
G75*
G03*
X3030000Y-1700000I-30000J0D01*
G01*
X3030000Y-1900000D02*
G75*
G03*
X3030000Y-1900000I-30000J0D01*
G01*
X3030000Y-2900000D02*
G75*
G03*
X3030000Y-2900000I-30000J0D01*
G01*
X3030000Y-3100000D02*
G75*
G03*
X3030000Y-3100000I-30000J0D01*
G01*
X3030000Y-3300000D02*
G75*
G03*
X3030000Y-3300000I-30000J0D01*
G01*
X3230000Y-500000D02*
G75*
G03*
X3230000Y-500000I-30000J0D01*
G01*
X3430000Y-500000D02*
G75*
G03*
X3430000Y-500000I-30000J0D01*
G01*
X3430000Y-700000D02*
G75*
G03*
X3430000Y-700000I-30000J0D01*
G01*
X3430000Y-900000D02*
G75*
G03*
X3430000Y-900000I-30000J0D01*
G01*
X3430000Y-1100000D02*
G75*
G03*
X3430000Y-1100000I-30000J0D01*
G01*
X3630000Y-500000D02*
G75*
G03*
X3630000Y-500000I-30000J0D01*
G01*
X3630000Y-700000D02*
G75*
G03*
X3630000Y-700000I-30000J0D01*
G01*
X3630000Y-900000D02*
G75*
G03*
X3630000Y-900000I-30000J0D01*
G01*
X3630000Y-1100000D02*
G75*
G03*
X3630000Y-1100000I-30000J0D01*
G01*
X3830000Y-500000D02*
G75*
G03*
X3830000Y-500000I-30000J0D01*
G01*
X3830000Y-700000D02*
G75*
G03*
X3830000Y-700000I-30000J0D01*
G01*
X3830000Y-900000D02*
G75*
G03*
X3830000Y-900000I-30000J0D01*
G01*
X3830000Y-1100000D02*
G75*
G03*
X3830000Y-1100000I-30000J0D01*
G01*
X4030000Y-500000D02*
G75*
G03*
X4030000Y-500000I-30000J0D01*
G01*
X4230000Y-500000D02*
G75*
G03*
X4230000Y-500000I-30000J0D01*
G01*
X4230000Y-1700000D02*
G75*
G03*
X4230000Y-1700000I-30000J0D01*
G01*
X4230000Y-1900000D02*
G75*
G03*
X4230000Y-1900000I-30000J0D01*
G01*
X4230000Y-3100000D02*
G75*
G03*
X4230000Y-3100000I-30000J0D01*
G01*
X4230000Y-3300000D02*
G75*
G03*
X4230000Y-3300000I-30000J0D01*
G01*
X4230000Y-3500000D02*
G75*
G03*
X4230000Y-3500000I-30000J0D01*
G01*
X4430000Y-1700000D02*
G75*
G03*
X4430000Y-1700000I-30000J0D01*
G01*
X4430000Y-1900000D02*
G75*
G03*
X4430000Y-1900000I-30000J0D01*
G01*
X4430000Y-2100000D02*
G75*
G03*
X4430000Y-2100000I-30000J0D01*
G01*
X4430000Y-2300000D02*
G75*
G03*
X4430000Y-2300000I-30000J0D01*
G01*
X4430000Y-2500000D02*
G75*
G03*
X4430000Y-2500000I-30000J0D01*
G01*
X4430000Y-2700000D02*
G75*
G03*
X4430000Y-2700000I-30000J0D01*
G01*
X4430000Y-2900000D02*
G75*
G03*
X4430000Y-2900000I-30000J0D01*
G01*
X4430000Y-3100000D02*
G75*
G03*
X4430000Y-3100000I-30000J0D01*
G01*
X4430000Y-3300000D02*
G75*
G03*
X4430000Y-3300000I-30000J0D01*
G01*
X4430000Y-3500000D02*
G75*
G03*
X4430000Y-3500000I-30000J0D01*
G01*
X4630000Y-900000D02*
G75*
G03*
X4630000Y-900000I-30000J0D01*
G01*
X4630000Y-1100000D02*
G75*
G03*
X4630000Y-1100000I-30000J0D01*
G01*
X4630000Y-1300000D02*
G75*
G03*
X4630000Y-1300000I-30000J0D01*
G01*
X4630000Y-1500000D02*
G75*
G03*
X4630000Y-1500000I-30000J0D01*
G01*
X4630000Y-1700000D02*
G75*
G03*
X4630000Y-1700000I-30000J0D01*
G01*
X4630000Y-1900000D02*
G75*
G03*
X4630000Y-1900000I-30000J0D01*
G01*
X4630000Y-2100000D02*
G75*
G03*
X4630000Y-2100000I-30000J0D01*
G01*
X4630000Y-2300000D02*
G75*
G03*
X4630000Y-2300000I-30000J0D01*
G01*
X4630000Y-2500000D02*
G75*
G03*
X4630000Y-2500000I-30000J0D01*
G01*
X4630000Y-2700000D02*
G75*
G03*
X4630000Y-2700000I-30000J0D01*
G01*
X4630000Y-2900000D02*
G75*
G03*
X4630000Y-2900000I-30000J0D01*
G01*
X4630000Y-3100000D02*
G75*
G03*
X4630000Y-3100000I-30000J0D01*
G01*
X4630000Y-3300000D02*
G75*
G03*
X4630000Y-3300000I-30000J0D01*
G01*
X4630000Y-3500000D02*
G75*
G03*
X4630000Y-3500000I-30000J0D01*
G01*
X4830000Y-500000D02*
G75*
G03*
X4830000Y-500000I-30000J0D01*
G01*
X4830000Y-700000D02*
G75*
G03*
X4830000Y-700000I-30000J0D01*
G01*
X4830000Y-900000D02*
G75*
G03*
X4830000Y-900000I-30000J0D01*
G01*
X4830000Y-1100000D02*
G75*
G03*
X4830000Y-1100000I-30000J0D01*
G01*
X4830000Y-1300000D02*
G75*
G03*
X4830000Y-1300000I-30000J0D01*
G01*
X4830000Y-1500000D02*
G75*
G03*
X4830000Y-1500000I-30000J0D01*
G01*
X4830000Y-1700000D02*
G75*
G03*
X4830000Y-1700000I-30000J0D01*
G01*
X4830000Y-1900000D02*
G75*
G03*
X4830000Y-1900000I-30000J0D01*
G01*
X4830000Y-2100000D02*
G75*
G03*
X4830000Y-2100000I-30000J0D01*
G01*
X4830000Y-2300000D02*
G75*
G03*
X4830000Y-2300000I-30000J0D01*
G01*
X4830000Y-2500000D02*
G75*
G03*
X4830000Y-2500000I-30000J0D01*
G01*
X4830000Y-2700000D02*
G75*
G03*
X4830000Y-2700000I-30000J0D01*
G01*
X4830000Y-2900000D02*
G75*
G03*
X4830000Y-2900000I-30000J0D01*
G01*
X4830000Y-3100000D02*
G75*
G03*
X4830000Y-3100000I-30000J0D01*
G01*
X4830000Y-3300000D02*
G75*
G03*
X4830000Y-3300000I-30000J0D01*
G01*
X4830000Y-3500000D02*
G75*
G03*
X4830000Y-3500000I-30000J0D01*
G01*
X5030000Y-900000D02*
G75*
G03*
X5030000Y-900000I-30000J0D01*
G01*
X5030000Y-1100000D02*
G75*
G03*
X5030000Y-1100000I-30000J0D01*
G01*
X5030000Y-1300000D02*
G75*
G03*
X5030000Y-1300000I-30000J0D01*
G01*
X5030000Y-1500000D02*
G75*
G03*
X5030000Y-1500000I-30000J0D01*
G01*
X5030000Y-1700000D02*
G75*
G03*
X5030000Y-1700000I-30000J0D01*
G01*
X5030000Y-1900000D02*
G75*
G03*
X5030000Y-1900000I-30000J0D01*
G01*
X5030000Y-2100000D02*
G75*
G03*
X5030000Y-2100000I-30000J0D01*
G01*
X5030000Y-2300000D02*
G75*
G03*
X5030000Y-2300000I-30000J0D01*
G01*
X5030000Y-2500000D02*
G75*
G03*
X5030000Y-2500000I-30000J0D01*
G01*
X5030000Y-2700000D02*
G75*
G03*
X5030000Y-2700000I-30000J0D01*
G01*
X5030000Y-2900000D02*
G75*
G03*
X5030000Y-2900000I-30000J0D01*
G01*
X5030000Y-3100000D02*
G75*
G03*
X5030000Y-3100000I-30000J0D01*
G01*
X5030000Y-3300000D02*
G75*
G03*
X5030000Y-3300000I-30000J0D01*
G01*
X5030000Y-3500000D02*
G75*
G03*
X5030000Y-3500000I-30000J0D01*
G01*
X5230000Y-900000D02*
G75*
G03*
X5230000Y-900000I-30000J0D01*
G01*
X5230000Y-1100000D02*
G75*
G03*
X5230000Y-1100000I-30000J0D01*
G01*
X5230000Y-1300000D02*
G75*
G03*
X5230000Y-1300000I-30000J0D01*
G01*
X5230000Y-1500000D02*
G75*
G03*
X5230000Y-1500000I-30000J0D01*
G01*
X5230000Y-1700000D02*
G75*
G03*
X5230000Y-1700000I-30000J0D01*
G01*
X5230000Y-1900000D02*
G75*
G03*
X5230000Y-1900000I-30000J0D01*
G01*
X5230000Y-2100000D02*
G75*
G03*
X5230000Y-2100000I-30000J0D01*
G01*
X5230000Y-2300000D02*
G75*
G03*
X5230000Y-2300000I-30000J0D01*
G01*
X5230000Y-2500000D02*
G75*
G03*
X5230000Y-2500000I-30000J0D01*
G01*
X5230000Y-2700000D02*
G75*
G03*
X5230000Y-2700000I-30000J0D01*
G01*
X5230000Y-2900000D02*
G75*
G03*
X5230000Y-2900000I-30000J0D01*
G01*
X5230000Y-3100000D02*
G75*
G03*
X5230000Y-3100000I-30000J0D01*
G01*
X5230000Y-3300000D02*
G75*
G03*
X5230000Y-3300000I-30000J0D01*
G01*
X5230000Y-3500000D02*
G75*
G03*
X5230000Y-3500000I-30000J0D01*
G01*
D10*
X798500Y-7101000D02*
X798500Y-7201000D01*
X748500Y-7151000D02*
X848500Y-7151000D01*
X798500Y-7355000D02*
X798500Y-7455000D01*
X748500Y-7405000D02*
X848500Y-7405000D01*
X1052500Y-7101000D02*
X1052500Y-7201000D01*
X1002500Y-7151000D02*
X1102500Y-7151000D01*
X1052500Y-7355000D02*
X1052500Y-7455000D01*
X1002500Y-7405000D02*
X1102500Y-7405000D01*
X1306500Y-7101000D02*
X1306500Y-7201000D01*
X1256500Y-7151000D02*
X1356500Y-7151000D01*
X1306500Y-7355000D02*
X1306500Y-7455000D01*
X1256500Y-7405000D02*
X1356500Y-7405000D01*
X1560500Y-7101000D02*
X1560500Y-7201000D01*
X1510500Y-7151000D02*
X1610500Y-7151000D01*
X1560500Y-7355000D02*
X1560500Y-7455000D01*
X1510500Y-7405000D02*
X1610500Y-7405000D01*
X1746000Y-2350000D02*
X1746000Y-2450000D01*
X1696000Y-2400000D02*
X1796000Y-2400000D01*
X1814500Y-7101000D02*
X1814500Y-7201000D01*
X1764500Y-7151000D02*
X1864500Y-7151000D01*
X1814500Y-7355000D02*
X1814500Y-7455000D01*
X1764500Y-7405000D02*
X1864500Y-7405000D01*
X2000000Y-2350000D02*
X2000000Y-2450000D01*
X1950000Y-2400000D02*
X2050000Y-2400000D01*
X2068500Y-7101000D02*
X2068500Y-7201000D01*
X2018500Y-7151000D02*
X2118500Y-7151000D01*
X2068500Y-7355000D02*
X2068500Y-7455000D01*
X2018500Y-7405000D02*
X2118500Y-7405000D01*
X2254000Y-2350000D02*
X2254000Y-2450000D01*
X2204000Y-2400000D02*
X2304000Y-2400000D01*
X2322500Y-7101000D02*
X2322500Y-7201000D01*
X2272500Y-7151000D02*
X2372500Y-7151000D01*
X2322500Y-7355000D02*
X2322500Y-7455000D01*
X2272500Y-7405000D02*
X2372500Y-7405000D01*
X2508000Y-2350000D02*
X2508000Y-2450000D01*
X2458000Y-2400000D02*
X2558000Y-2400000D01*
X2576500Y-7101000D02*
X2576500Y-7201000D01*
X2526500Y-7151000D02*
X2626500Y-7151000D01*
X2576500Y-7355000D02*
X2576500Y-7455000D01*
X2526500Y-7405000D02*
X2626500Y-7405000D01*
X2830500Y-7101000D02*
X2830500Y-7201000D01*
X2780500Y-7151000D02*
X2880500Y-7151000D01*
X2830500Y-7355000D02*
X2830500Y-7455000D01*
X2780500Y-7405000D02*
X2880500Y-7405000D01*
X3084500Y-7101000D02*
X3084500Y-7201000D01*
X3034500Y-7151000D02*
X3134500Y-7151000D01*
X3084500Y-7355000D02*
X3084500Y-7455000D01*
X3034500Y-7405000D02*
X3134500Y-7405000D01*
X3292000Y-2350000D02*
X3292000Y-2450000D01*
X3242000Y-2400000D02*
X3342000Y-2400000D01*
X3338500Y-7101000D02*
X3338500Y-7201000D01*
X3288500Y-7151000D02*
X3388500Y-7151000D01*
X3338500Y-7355000D02*
X3338500Y-7455000D01*
X3288500Y-7405000D02*
X3388500Y-7405000D01*
X3546000Y-2350000D02*
X3546000Y-2450000D01*
X3496000Y-2400000D02*
X3596000Y-2400000D01*
X3592500Y-7101000D02*
X3592500Y-7201000D01*
X3542500Y-7151000D02*
X3642500Y-7151000D01*
X3592500Y-7355000D02*
X3592500Y-7455000D01*
X3542500Y-7405000D02*
X3642500Y-7405000D01*
X3800000Y-2350000D02*
X3800000Y-2450000D01*
X3750000Y-2400000D02*
X3850000Y-2400000D01*
X3846500Y-7101000D02*
X3846500Y-7201000D01*
X3796500Y-7151000D02*
X3896500Y-7151000D01*
X3846500Y-7355000D02*
X3846500Y-7455000D01*
X3796500Y-7405000D02*
X3896500Y-7405000D01*
X4054000Y-2350000D02*
X4054000Y-2450000D01*
X4004000Y-2400000D02*
X4104000Y-2400000D01*
X4100500Y-7101000D02*
X4100500Y-7201000D01*
X4050500Y-7151000D02*
X4150500Y-7151000D01*
X4100500Y-7355000D02*
X4100500Y-7455000D01*
X4050500Y-7405000D02*
X4150500Y-7405000D01*
X4354500Y-7101000D02*
X4354500Y-7201000D01*
X4304500Y-7151000D02*
X4404500Y-7151000D01*
X4354500Y-7355000D02*
X4354500Y-7455000D01*
X4304500Y-7405000D02*
X4404500Y-7405000D01*
X4608500Y-7101000D02*
X4608500Y-7201000D01*
X4558500Y-7151000D02*
X4658500Y-7151000D01*
X4608500Y-7355000D02*
X4608500Y-7455000D01*
X4558500Y-7405000D02*
X4658500Y-7405000D01*
X4862500Y-7101000D02*
X4862500Y-7201000D01*
X4812500Y-7151000D02*
X4912500Y-7151000D01*
X4862500Y-7355000D02*
X4862500Y-7455000D01*
X4812500Y-7405000D02*
X4912500Y-7405000D01*
D14*
X696463Y-4544563D02*
X696463Y-4472437D01*
X624337Y-4472437D01*
X624337Y-4544563D01*
X696463Y-4544563D01*
X696463Y-6322563D02*
X696463Y-6250437D01*
X624337Y-6250437D01*
X624337Y-6322563D01*
X696463Y-6322563D01*
X719463Y-5179563D02*
X719463Y-5107437D01*
X647337Y-5107437D01*
X647337Y-5179563D01*
X719463Y-5179563D01*
X719463Y-5433563D02*
X719463Y-5361437D01*
X647337Y-5361437D01*
X647337Y-5433563D01*
X719463Y-5433563D01*
X719463Y-5687563D02*
X719463Y-5615437D01*
X647337Y-5615437D01*
X647337Y-5687563D01*
X719463Y-5687563D01*
X950463Y-4544563D02*
X950463Y-4472437D01*
X878337Y-4472437D01*
X878337Y-4544563D01*
X950463Y-4544563D01*
X950463Y-6322563D02*
X950463Y-6250437D01*
X878337Y-6250437D01*
X878337Y-6322563D01*
X950463Y-6322563D01*
X1204463Y-4544563D02*
X1204463Y-4472437D01*
X1132337Y-4472437D01*
X1132337Y-4544563D01*
X1204463Y-4544563D01*
X1204463Y-6322563D02*
X1204463Y-6250437D01*
X1132337Y-6250437D01*
X1132337Y-6322563D01*
X1204463Y-6322563D01*
X1458463Y-4544563D02*
X1458463Y-4472437D01*
X1386337Y-4472437D01*
X1386337Y-4544563D01*
X1458463Y-4544563D01*
X1458463Y-6322563D02*
X1458463Y-6250437D01*
X1386337Y-6250437D01*
X1386337Y-6322563D01*
X1458463Y-6322563D01*
X1712463Y-4544563D02*
X1712463Y-4472437D01*
X1640337Y-4472437D01*
X1640337Y-4544563D01*
X1712463Y-4544563D01*
X1712463Y-6322563D02*
X1712463Y-6250437D01*
X1640337Y-6250437D01*
X1640337Y-6322563D01*
X1712463Y-6322563D01*
X1966463Y-4544563D02*
X1966463Y-4472437D01*
X1894337Y-4472437D01*
X1894337Y-4544563D01*
X1966463Y-4544563D01*
X1966463Y-6322563D02*
X1966463Y-6250437D01*
X1894337Y-6250437D01*
X1894337Y-6322563D01*
X1966463Y-6322563D01*
X2220463Y-4544563D02*
X2220463Y-4472437D01*
X2148337Y-4472437D01*
X2148337Y-4544563D01*
X2220463Y-4544563D01*
X2220463Y-6322563D02*
X2220463Y-6250437D01*
X2148337Y-6250437D01*
X2148337Y-6322563D01*
X2220463Y-6322563D01*
X2474463Y-4544563D02*
X2474463Y-4472437D01*
X2402337Y-4472437D01*
X2402337Y-4544563D01*
X2474463Y-4544563D01*
X2474463Y-6322563D02*
X2474463Y-6250437D01*
X2402337Y-6250437D01*
X2402337Y-6322563D01*
X2474463Y-6322563D01*
X2728463Y-4544563D02*
X2728463Y-4472437D01*
X2656337Y-4472437D01*
X2656337Y-4544563D01*
X2728463Y-4544563D01*
X2728463Y-6322563D02*
X2728463Y-6250437D01*
X2656337Y-6250437D01*
X2656337Y-6322563D01*
X2728463Y-6322563D01*
X2982463Y-4544563D02*
X2982463Y-4472437D01*
X2910337Y-4472437D01*
X2910337Y-4544563D01*
X2982463Y-4544563D01*
X2982463Y-6322563D02*
X2982463Y-6250437D01*
X2910337Y-6250437D01*
X2910337Y-6322563D01*
X2982463Y-6322563D01*
X3236463Y-4544563D02*
X3236463Y-4472437D01*
X3164337Y-4472437D01*
X3164337Y-4544563D01*
X3236463Y-4544563D01*
X3236463Y-6322563D02*
X3236463Y-6250437D01*
X3164337Y-6250437D01*
X3164337Y-6322563D01*
X3236463Y-6322563D01*
X3490463Y-4544563D02*
X3490463Y-4472437D01*
X3418337Y-4472437D01*
X3418337Y-4544563D01*
X3490463Y-4544563D01*
X3490463Y-6322563D02*
X3490463Y-6250437D01*
X3418337Y-6250437D01*
X3418337Y-6322563D01*
X3490463Y-6322563D01*
X3744463Y-4544563D02*
X3744463Y-4472437D01*
X3672337Y-4472437D01*
X3672337Y-4544563D01*
X3744463Y-4544563D01*
X3744463Y-6322563D02*
X3744463Y-6250437D01*
X3672337Y-6250437D01*
X3672337Y-6322563D01*
X3744463Y-6322563D01*
X3998463Y-4544563D02*
X3998463Y-4472437D01*
X3926337Y-4472437D01*
X3926337Y-4544563D01*
X3998463Y-4544563D01*
X3998463Y-6322563D02*
X3998463Y-6250437D01*
X3926337Y-6250437D01*
X3926337Y-6322563D01*
X3998463Y-6322563D01*
X4252463Y-4544563D02*
X4252463Y-4472437D01*
X4180337Y-4472437D01*
X4180337Y-4544563D01*
X4252463Y-4544563D01*
X4252463Y-6322563D02*
X4252463Y-6250437D01*
X4180337Y-6250437D01*
X4180337Y-6322563D01*
X4252463Y-6322563D01*
X4506463Y-4544563D02*
X4506463Y-4472437D01*
X4434337Y-4472437D01*
X4434337Y-4544563D01*
X4506463Y-4544563D01*
X4506463Y-6322563D02*
X4506463Y-6250437D01*
X4434337Y-6250437D01*
X4434337Y-6322563D01*
X4506463Y-6322563D01*
X4760463Y-4544563D02*
X4760463Y-4472437D01*
X4688337Y-4472437D01*
X4688337Y-4544563D01*
X4760463Y-4544563D01*
X4760463Y-6322563D02*
X4760463Y-6250437D01*
X4688337Y-6250437D01*
X4688337Y-6322563D01*
X4760463Y-6322563D01*
X5014463Y-4544563D02*
X5014463Y-4472437D01*
X4942337Y-4472437D01*
X4942337Y-4544563D01*
X5014463Y-4544563D01*
X5014463Y-6322563D02*
X5014463Y-6250437D01*
X4942337Y-6250437D01*
X4942337Y-6322563D01*
X5014463Y-6322563D01*
X5268463Y-4544563D02*
X5268463Y-4472437D01*
X5196337Y-4472437D01*
X5196337Y-4544563D01*
X5268463Y-4544563D01*
X5268463Y-6322563D02*
X5268463Y-6250437D01*
X5196337Y-6250437D01*
X5196337Y-6322563D01*
X5268463Y-6322563D01*
X5522463Y-4544563D02*
X5522463Y-4472437D01*
X5450337Y-4472437D01*
X5450337Y-4544563D01*
X5522463Y-4544563D01*
X5522463Y-6322563D02*
X5522463Y-6250437D01*
X5450337Y-6250437D01*
X5450337Y-6322563D01*
X5522463Y-6322563D01*
D11*
X247062Y-8062476D02*
X247062Y-7862476D01*
X294681Y-7862476D01*
X323253Y-7872000D01*
X342300Y-7891048D01*
X351824Y-7910095D01*
X361348Y-7948190D01*
X361348Y-7976762D01*
X351824Y-8014857D01*
X342300Y-8033905D01*
X323253Y-8052952D01*
X294681Y-8062476D01*
X247062Y-8062476D01*
X447062Y-8062476D02*
X447062Y-7929143D01*
X447062Y-7967238D02*
X456586Y-7948190D01*
X466110Y-7938667D01*
X485157Y-7929143D01*
X504205Y-7929143D01*
X570872Y-8062476D02*
X570872Y-7929143D01*
X570872Y-7862476D02*
X561348Y-7872000D01*
X570872Y-7881524D01*
X580395Y-7872000D01*
X570872Y-7862476D01*
X570872Y-7881524D01*
X694681Y-8062476D02*
X675634Y-8052952D01*
X666110Y-8033905D01*
X666110Y-7862476D01*
X799443Y-8062476D02*
X780395Y-8052952D01*
X770872Y-8033905D01*
X770872Y-7862476D01*
X1028014Y-8062476D02*
X1028014Y-7862476D01*
X1094681Y-8005333D01*
X1161348Y-7862476D01*
X1161348Y-8062476D01*
X1342300Y-8062476D02*
X1342300Y-7957714D01*
X1332776Y-7938667D01*
X1313729Y-7929143D01*
X1275634Y-7929143D01*
X1256586Y-7938667D01*
X1342300Y-8052952D02*
X1323253Y-8062476D01*
X1275634Y-8062476D01*
X1256586Y-8052952D01*
X1247062Y-8033905D01*
X1247062Y-8014857D01*
X1256586Y-7995809D01*
X1275634Y-7986286D01*
X1323253Y-7986286D01*
X1342300Y-7976762D01*
X1437538Y-7929143D02*
X1437538Y-8129143D01*
X1437538Y-7938667D02*
X1456586Y-7929143D01*
X1494681Y-7929143D01*
X1513729Y-7938667D01*
X1523253Y-7948190D01*
X1532776Y-7967238D01*
X1532776Y-8024381D01*
X1523253Y-8043428D01*
X1513729Y-8052952D01*
X1494681Y-8062476D01*
X1456586Y-8062476D01*
X1437538Y-8052952D01*
X1618491Y-8043428D02*
X1628014Y-8052952D01*
X1618491Y-8062476D01*
X1608967Y-8052952D01*
X1618491Y-8043428D01*
X1618491Y-8062476D01*
X1618491Y-7938667D02*
X1628014Y-7948190D01*
X1618491Y-7957714D01*
X1608967Y-7948190D01*
X1618491Y-7938667D01*
X1618491Y-7957714D01*
D12*
X-50557Y-8372000D02*
X-10557Y-8412000D01*
X-10557Y-8372000D02*
X-50557Y-8412000D01*
D11*
X285157Y-8282476D02*
X304205Y-8282476D01*
X323253Y-8292000D01*
X332776Y-8301524D01*
X342300Y-8320571D01*
X351824Y-8358667D01*
X351824Y-8406286D01*
X342300Y-8444381D01*
X332776Y-8463429D01*
X323253Y-8472952D01*
X304205Y-8482476D01*
X285157Y-8482476D01*
X266110Y-8472952D01*
X256586Y-8463429D01*
X247062Y-8444381D01*
X237538Y-8406286D01*
X237538Y-8358667D01*
X247062Y-8320571D01*
X256586Y-8301524D01*
X266110Y-8292000D01*
X285157Y-8282476D01*
X437538Y-8463429D02*
X447062Y-8472952D01*
X437538Y-8482476D01*
X428014Y-8472952D01*
X437538Y-8463429D01*
X437538Y-8482476D01*
X618491Y-8349143D02*
X618491Y-8482476D01*
X570872Y-8272952D02*
X523253Y-8415810D01*
X647062Y-8415810D01*
X761348Y-8282476D02*
X780395Y-8282476D01*
X799443Y-8292000D01*
X808967Y-8301524D01*
X818491Y-8320571D01*
X828014Y-8358667D01*
X828014Y-8406286D01*
X818491Y-8444381D01*
X808967Y-8463429D01*
X799443Y-8472952D01*
X780395Y-8482476D01*
X761348Y-8482476D01*
X742300Y-8472952D01*
X732776Y-8463429D01*
X723253Y-8444381D01*
X713729Y-8406286D01*
X713729Y-8358667D01*
X723253Y-8320571D01*
X732776Y-8301524D01*
X742300Y-8292000D01*
X761348Y-8282476D01*
X951824Y-8282476D02*
X970872Y-8282476D01*
X989919Y-8292000D01*
X999443Y-8301524D01*
X1008967Y-8320571D01*
X1018491Y-8358667D01*
X1018491Y-8406286D01*
X1008967Y-8444381D01*
X999443Y-8463429D01*
X989919Y-8472952D01*
X970872Y-8482476D01*
X951824Y-8482476D01*
X932776Y-8472952D01*
X923253Y-8463429D01*
X913729Y-8444381D01*
X904205Y-8406286D01*
X904205Y-8358667D01*
X913729Y-8320571D01*
X923253Y-8301524D01*
X932776Y-8292000D01*
X951824Y-8282476D01*
X1104205Y-8482476D02*
X1104205Y-8349143D01*
X1104205Y-8368190D02*
X1113729Y-8358667D01*
X1132776Y-8349143D01*
X1161348Y-8349143D01*
X1180395Y-8358667D01*
X1189919Y-8377714D01*
X1189919Y-8482476D01*
X1189919Y-8377714D02*
X1199443Y-8358667D01*
X1218491Y-8349143D01*
X1247062Y-8349143D01*
X1266110Y-8358667D01*
X1275634Y-8377714D01*
X1275634Y-8482476D01*
X1370872Y-8482476D02*
X1370872Y-8349143D01*
X1370872Y-8368190D02*
X1380395Y-8358667D01*
X1399443Y-8349143D01*
X1428014Y-8349143D01*
X1447062Y-8358667D01*
X1456586Y-8377714D01*
X1456586Y-8482476D01*
X1456586Y-8377714D02*
X1466110Y-8358667D01*
X1485157Y-8349143D01*
X1513729Y-8349143D01*
X1532776Y-8358667D01*
X1542300Y-8377714D01*
X1542300Y-8482476D01*
X1932776Y-8272952D02*
X1761348Y-8530095D01*
X2189919Y-8282476D02*
X2208967Y-8282476D01*
X2228015Y-8292000D01*
X2237538Y-8301524D01*
X2247062Y-8320571D01*
X2256586Y-8358667D01*
X2256586Y-8406286D01*
X2247062Y-8444381D01*
X2237538Y-8463429D01*
X2228015Y-8472952D01*
X2208967Y-8482476D01*
X2189919Y-8482476D01*
X2170872Y-8472952D01*
X2161348Y-8463429D01*
X2151824Y-8444381D01*
X2142300Y-8406286D01*
X2142300Y-8358667D01*
X2151824Y-8320571D01*
X2161348Y-8301524D01*
X2170872Y-8292000D01*
X2189919Y-8282476D01*
X2342300Y-8463429D02*
X2351824Y-8472952D01*
X2342300Y-8482476D01*
X2332776Y-8472952D01*
X2342300Y-8463429D01*
X2342300Y-8482476D01*
X2475634Y-8282476D02*
X2494681Y-8282476D01*
X2513729Y-8292000D01*
X2523253Y-8301524D01*
X2532776Y-8320571D01*
X2542300Y-8358667D01*
X2542300Y-8406286D01*
X2532776Y-8444381D01*
X2523253Y-8463429D01*
X2513729Y-8472952D01*
X2494681Y-8482476D01*
X2475634Y-8482476D01*
X2456586Y-8472952D01*
X2447062Y-8463429D01*
X2437538Y-8444381D01*
X2428015Y-8406286D01*
X2428015Y-8358667D01*
X2437538Y-8320571D01*
X2447062Y-8301524D01*
X2456586Y-8292000D01*
X2475634Y-8282476D01*
X2732776Y-8482476D02*
X2618491Y-8482476D01*
X2675634Y-8482476D02*
X2675634Y-8282476D01*
X2656586Y-8311048D01*
X2637538Y-8330095D01*
X2618491Y-8339619D01*
X2913729Y-8282476D02*
X2818491Y-8282476D01*
X2808967Y-8377714D01*
X2818491Y-8368190D01*
X2837538Y-8358667D01*
X2885157Y-8358667D01*
X2904205Y-8368190D01*
X2913729Y-8377714D01*
X2923253Y-8396762D01*
X2923253Y-8444381D01*
X2913729Y-8463429D01*
X2904205Y-8472952D01*
X2885157Y-8482476D01*
X2837538Y-8482476D01*
X2818491Y-8472952D01*
X2808967Y-8463429D01*
X2989919Y-8282476D02*
X3123253Y-8282476D01*
X3037538Y-8482476D01*
X3189919Y-8282476D02*
X3189919Y-8320571D01*
X3266110Y-8282476D02*
X3266110Y-8320571D01*
X3561348Y-8558667D02*
X3551824Y-8549143D01*
X3532776Y-8520571D01*
X3523253Y-8501524D01*
X3513729Y-8472952D01*
X3504205Y-8425333D01*
X3504205Y-8387238D01*
X3513729Y-8339619D01*
X3523253Y-8311048D01*
X3532776Y-8292000D01*
X3551824Y-8263428D01*
X3561348Y-8253905D01*
X3628014Y-8301524D02*
X3637538Y-8292000D01*
X3656586Y-8282476D01*
X3704205Y-8282476D01*
X3723253Y-8292000D01*
X3732776Y-8301524D01*
X3742300Y-8320571D01*
X3742300Y-8339619D01*
X3732776Y-8368190D01*
X3618491Y-8482476D01*
X3742300Y-8482476D01*
X3980395Y-8482476D02*
X3980395Y-8282476D01*
X4066110Y-8482476D02*
X4066110Y-8377714D01*
X4056586Y-8358667D01*
X4037538Y-8349143D01*
X4008967Y-8349143D01*
X3989919Y-8358667D01*
X3980395Y-8368190D01*
X4189919Y-8482476D02*
X4170872Y-8472952D01*
X4161348Y-8463429D01*
X4151824Y-8444381D01*
X4151824Y-8387238D01*
X4161348Y-8368190D01*
X4170872Y-8358667D01*
X4189919Y-8349143D01*
X4218491Y-8349143D01*
X4237538Y-8358667D01*
X4247062Y-8368190D01*
X4256586Y-8387238D01*
X4256586Y-8444381D01*
X4247062Y-8463429D01*
X4237538Y-8472952D01*
X4218491Y-8482476D01*
X4189919Y-8482476D01*
X4370872Y-8482476D02*
X4351824Y-8472952D01*
X4342300Y-8453905D01*
X4342300Y-8282476D01*
X4523253Y-8472952D02*
X4504205Y-8482476D01*
X4466110Y-8482476D01*
X4447062Y-8472952D01*
X4437538Y-8453905D01*
X4437538Y-8377714D01*
X4447062Y-8358667D01*
X4466110Y-8349143D01*
X4504205Y-8349143D01*
X4523253Y-8358667D01*
X4532776Y-8377714D01*
X4532776Y-8396762D01*
X4437538Y-8415810D01*
X4608967Y-8472952D02*
X4628015Y-8482476D01*
X4666110Y-8482476D01*
X4685157Y-8472952D01*
X4694681Y-8453905D01*
X4694681Y-8444381D01*
X4685157Y-8425333D01*
X4666110Y-8415810D01*
X4637538Y-8415810D01*
X4618491Y-8406286D01*
X4608967Y-8387238D01*
X4608967Y-8377714D01*
X4618491Y-8358667D01*
X4637538Y-8349143D01*
X4666110Y-8349143D01*
X4685157Y-8358667D01*
X4761348Y-8558667D02*
X4770872Y-8549143D01*
X4789919Y-8520571D01*
X4799443Y-8501524D01*
X4808967Y-8472952D01*
X4818491Y-8425333D01*
X4818491Y-8387238D01*
X4808967Y-8339619D01*
X4799443Y-8311048D01*
X4789919Y-8292000D01*
X4770872Y-8263428D01*
X4761348Y-8253905D01*
D13*
X-10557Y-8656000D02*
G75*
G03*
X-10557Y-8656000I-30000J0D01*
G01*
D11*
X285157Y-8546476D02*
X304205Y-8546476D01*
X323253Y-8556000D01*
X332776Y-8565524D01*
X342300Y-8584571D01*
X351824Y-8622667D01*
X351824Y-8670286D01*
X342300Y-8708381D01*
X332776Y-8727429D01*
X323253Y-8736952D01*
X304205Y-8746476D01*
X285157Y-8746476D01*
X266110Y-8736952D01*
X256586Y-8727429D01*
X247062Y-8708381D01*
X237538Y-8670286D01*
X237538Y-8622667D01*
X247062Y-8584571D01*
X256586Y-8565524D01*
X266110Y-8556000D01*
X285157Y-8546476D01*
X437538Y-8727429D02*
X447062Y-8736952D01*
X437538Y-8746476D01*
X428014Y-8736952D01*
X437538Y-8727429D01*
X437538Y-8746476D01*
X618491Y-8546476D02*
X580395Y-8546476D01*
X561348Y-8556000D01*
X551824Y-8565524D01*
X532776Y-8594095D01*
X523253Y-8632190D01*
X523253Y-8708381D01*
X532776Y-8727429D01*
X542300Y-8736952D01*
X561348Y-8746476D01*
X599443Y-8746476D01*
X618491Y-8736952D01*
X628015Y-8727429D01*
X637538Y-8708381D01*
X637538Y-8660762D01*
X628015Y-8641714D01*
X618491Y-8632190D01*
X599443Y-8622667D01*
X561348Y-8622667D01*
X542300Y-8632190D01*
X532776Y-8641714D01*
X523253Y-8660762D01*
X761348Y-8546476D02*
X780395Y-8546476D01*
X799443Y-8556000D01*
X808967Y-8565524D01*
X818491Y-8584571D01*
X828014Y-8622667D01*
X828014Y-8670286D01*
X818491Y-8708381D01*
X808967Y-8727429D01*
X799443Y-8736952D01*
X780395Y-8746476D01*
X761348Y-8746476D01*
X742300Y-8736952D01*
X732776Y-8727429D01*
X723253Y-8708381D01*
X713729Y-8670286D01*
X713729Y-8622667D01*
X723253Y-8584571D01*
X732776Y-8565524D01*
X742300Y-8556000D01*
X761348Y-8546476D01*
X951824Y-8546476D02*
X970872Y-8546476D01*
X989919Y-8556000D01*
X999443Y-8565524D01*
X1008967Y-8584571D01*
X1018491Y-8622667D01*
X1018491Y-8670286D01*
X1008967Y-8708381D01*
X999443Y-8727429D01*
X989919Y-8736952D01*
X970872Y-8746476D01*
X951824Y-8746476D01*
X932776Y-8736952D01*
X923253Y-8727429D01*
X913729Y-8708381D01*
X904205Y-8670286D01*
X904205Y-8622667D01*
X913729Y-8584571D01*
X923253Y-8565524D01*
X932776Y-8556000D01*
X951824Y-8546476D01*
X1104205Y-8746476D02*
X1104205Y-8613143D01*
X1104205Y-8632190D02*
X1113729Y-8622667D01*
X1132776Y-8613143D01*
X1161348Y-8613143D01*
X1180395Y-8622667D01*
X1189919Y-8641714D01*
X1189919Y-8746476D01*
X1189919Y-8641714D02*
X1199443Y-8622667D01*
X1218491Y-8613143D01*
X1247062Y-8613143D01*
X1266110Y-8622667D01*
X1275634Y-8641714D01*
X1275634Y-8746476D01*
X1370872Y-8746476D02*
X1370872Y-8613143D01*
X1370872Y-8632190D02*
X1380395Y-8622667D01*
X1399443Y-8613143D01*
X1428014Y-8613143D01*
X1447062Y-8622667D01*
X1456586Y-8641714D01*
X1456586Y-8746476D01*
X1456586Y-8641714D02*
X1466110Y-8622667D01*
X1485157Y-8613143D01*
X1513729Y-8613143D01*
X1532776Y-8622667D01*
X1542300Y-8641714D01*
X1542300Y-8746476D01*
X1932776Y-8536952D02*
X1761348Y-8794095D01*
X2189919Y-8546476D02*
X2208967Y-8546476D01*
X2228015Y-8556000D01*
X2237538Y-8565524D01*
X2247062Y-8584571D01*
X2256586Y-8622667D01*
X2256586Y-8670286D01*
X2247062Y-8708381D01*
X2237538Y-8727429D01*
X2228015Y-8736952D01*
X2208967Y-8746476D01*
X2189919Y-8746476D01*
X2170872Y-8736952D01*
X2161348Y-8727429D01*
X2151824Y-8708381D01*
X2142300Y-8670286D01*
X2142300Y-8622667D01*
X2151824Y-8584571D01*
X2161348Y-8565524D01*
X2170872Y-8556000D01*
X2189919Y-8546476D01*
X2342300Y-8727429D02*
X2351824Y-8736952D01*
X2342300Y-8746476D01*
X2332776Y-8736952D01*
X2342300Y-8727429D01*
X2342300Y-8746476D01*
X2475634Y-8546476D02*
X2494681Y-8546476D01*
X2513729Y-8556000D01*
X2523253Y-8565524D01*
X2532776Y-8584571D01*
X2542300Y-8622667D01*
X2542300Y-8670286D01*
X2532776Y-8708381D01*
X2523253Y-8727429D01*
X2513729Y-8736952D01*
X2494681Y-8746476D01*
X2475634Y-8746476D01*
X2456586Y-8736952D01*
X2447062Y-8727429D01*
X2437538Y-8708381D01*
X2428015Y-8670286D01*
X2428015Y-8622667D01*
X2437538Y-8584571D01*
X2447062Y-8565524D01*
X2456586Y-8556000D01*
X2475634Y-8546476D01*
X2618491Y-8565524D02*
X2628015Y-8556000D01*
X2647062Y-8546476D01*
X2694681Y-8546476D01*
X2713729Y-8556000D01*
X2723253Y-8565524D01*
X2732776Y-8584571D01*
X2732776Y-8603619D01*
X2723253Y-8632190D01*
X2608967Y-8746476D01*
X2732776Y-8746476D01*
X2799443Y-8546476D02*
X2923253Y-8546476D01*
X2856586Y-8622667D01*
X2885157Y-8622667D01*
X2904205Y-8632190D01*
X2913729Y-8641714D01*
X2923253Y-8660762D01*
X2923253Y-8708381D01*
X2913729Y-8727429D01*
X2904205Y-8736952D01*
X2885157Y-8746476D01*
X2828014Y-8746476D01*
X2808967Y-8736952D01*
X2799443Y-8727429D01*
X3094681Y-8546476D02*
X3056586Y-8546476D01*
X3037538Y-8556000D01*
X3028014Y-8565524D01*
X3008967Y-8594095D01*
X2999443Y-8632190D01*
X2999443Y-8708381D01*
X3008967Y-8727429D01*
X3018491Y-8736952D01*
X3037538Y-8746476D01*
X3075633Y-8746476D01*
X3094681Y-8736952D01*
X3104205Y-8727429D01*
X3113729Y-8708381D01*
X3113729Y-8660762D01*
X3104205Y-8641714D01*
X3094681Y-8632190D01*
X3075633Y-8622667D01*
X3037538Y-8622667D01*
X3018491Y-8632190D01*
X3008967Y-8641714D01*
X2999443Y-8660762D01*
X3189919Y-8546476D02*
X3189919Y-8584571D01*
X3266110Y-8546476D02*
X3266110Y-8584571D01*
X3561348Y-8822667D02*
X3551824Y-8813143D01*
X3532776Y-8784571D01*
X3523253Y-8765524D01*
X3513729Y-8736952D01*
X3504205Y-8689333D01*
X3504205Y-8651238D01*
X3513729Y-8603619D01*
X3523253Y-8575048D01*
X3532776Y-8556000D01*
X3551824Y-8527429D01*
X3561348Y-8517905D01*
X3628014Y-8565524D02*
X3637538Y-8556000D01*
X3656586Y-8546476D01*
X3704205Y-8546476D01*
X3723253Y-8556000D01*
X3732776Y-8565524D01*
X3742300Y-8584571D01*
X3742300Y-8603619D01*
X3732776Y-8632190D01*
X3618491Y-8746476D01*
X3742300Y-8746476D01*
X3866110Y-8546476D02*
X3885157Y-8546476D01*
X3904205Y-8556000D01*
X3913729Y-8565524D01*
X3923253Y-8584571D01*
X3932776Y-8622667D01*
X3932776Y-8670286D01*
X3923253Y-8708381D01*
X3913729Y-8727429D01*
X3904205Y-8736952D01*
X3885157Y-8746476D01*
X3866110Y-8746476D01*
X3847062Y-8736952D01*
X3837538Y-8727429D01*
X3828014Y-8708381D01*
X3818491Y-8670286D01*
X3818491Y-8622667D01*
X3828014Y-8584571D01*
X3837538Y-8565524D01*
X3847062Y-8556000D01*
X3866110Y-8546476D01*
X4113729Y-8546476D02*
X4018491Y-8546476D01*
X4008967Y-8641714D01*
X4018491Y-8632190D01*
X4037538Y-8622667D01*
X4085157Y-8622667D01*
X4104205Y-8632190D01*
X4113729Y-8641714D01*
X4123253Y-8660762D01*
X4123253Y-8708381D01*
X4113729Y-8727429D01*
X4104205Y-8736952D01*
X4085157Y-8746476D01*
X4037538Y-8746476D01*
X4018491Y-8736952D01*
X4008967Y-8727429D01*
X4361348Y-8746476D02*
X4361348Y-8546476D01*
X4447062Y-8746476D02*
X4447062Y-8641714D01*
X4437538Y-8622667D01*
X4418491Y-8613143D01*
X4389919Y-8613143D01*
X4370872Y-8622667D01*
X4361348Y-8632190D01*
X4570872Y-8746476D02*
X4551824Y-8736952D01*
X4542300Y-8727429D01*
X4532776Y-8708381D01*
X4532776Y-8651238D01*
X4542300Y-8632190D01*
X4551824Y-8622667D01*
X4570872Y-8613143D01*
X4599443Y-8613143D01*
X4618491Y-8622667D01*
X4628015Y-8632190D01*
X4637538Y-8651238D01*
X4637538Y-8708381D01*
X4628015Y-8727429D01*
X4618491Y-8736952D01*
X4599443Y-8746476D01*
X4570872Y-8746476D01*
X4751824Y-8746476D02*
X4732776Y-8736952D01*
X4723253Y-8717905D01*
X4723253Y-8546476D01*
X4904205Y-8736952D02*
X4885157Y-8746476D01*
X4847062Y-8746476D01*
X4828015Y-8736952D01*
X4818491Y-8717905D01*
X4818491Y-8641714D01*
X4828015Y-8622667D01*
X4847062Y-8613143D01*
X4885157Y-8613143D01*
X4904205Y-8622667D01*
X4913729Y-8641714D01*
X4913729Y-8660762D01*
X4818491Y-8679810D01*
X4989919Y-8736952D02*
X5008967Y-8746476D01*
X5047062Y-8746476D01*
X5066110Y-8736952D01*
X5075634Y-8717905D01*
X5075634Y-8708381D01*
X5066110Y-8689333D01*
X5047062Y-8679810D01*
X5018491Y-8679810D01*
X4999443Y-8670286D01*
X4989919Y-8651238D01*
X4989919Y-8641714D01*
X4999443Y-8622667D01*
X5018491Y-8613143D01*
X5047062Y-8613143D01*
X5066110Y-8622667D01*
X5142300Y-8822667D02*
X5151824Y-8813143D01*
X5170872Y-8784571D01*
X5180395Y-8765524D01*
X5189919Y-8736952D01*
X5199443Y-8689333D01*
X5199443Y-8651238D01*
X5189919Y-8603619D01*
X5180395Y-8575048D01*
X5170872Y-8556000D01*
X5151824Y-8527429D01*
X5142300Y-8517905D01*
D10*
X-60557Y-8870000D02*
X-60557Y-8970000D01*
X-110557Y-8920000D02*
X-10557Y-8920000D01*
D11*
X351824Y-9010476D02*
X237538Y-9010476D01*
X294681Y-9010476D02*
X294681Y-8810476D01*
X275634Y-8839048D01*
X256586Y-8858095D01*
X237538Y-8867619D01*
X437538Y-8991429D02*
X447062Y-9000952D01*
X437538Y-9010476D01*
X428014Y-9000952D01*
X437538Y-8991429D01*
X437538Y-9010476D01*
X570872Y-8810476D02*
X589919Y-8810476D01*
X608967Y-8820000D01*
X618491Y-8829524D01*
X628015Y-8848571D01*
X637538Y-8886667D01*
X637538Y-8934286D01*
X628015Y-8972381D01*
X618491Y-8991429D01*
X608967Y-9000952D01*
X589919Y-9010476D01*
X570872Y-9010476D01*
X551824Y-9000952D01*
X542300Y-8991429D01*
X532776Y-8972381D01*
X523253Y-8934286D01*
X523253Y-8886667D01*
X532776Y-8848571D01*
X542300Y-8829524D01*
X551824Y-8820000D01*
X570872Y-8810476D01*
X761348Y-8810476D02*
X780395Y-8810476D01*
X799443Y-8820000D01*
X808967Y-8829524D01*
X818491Y-8848571D01*
X828014Y-8886667D01*
X828014Y-8934286D01*
X818491Y-8972381D01*
X808967Y-8991429D01*
X799443Y-9000952D01*
X780395Y-9010476D01*
X761348Y-9010476D01*
X742300Y-9000952D01*
X732776Y-8991429D01*
X723253Y-8972381D01*
X713729Y-8934286D01*
X713729Y-8886667D01*
X723253Y-8848571D01*
X732776Y-8829524D01*
X742300Y-8820000D01*
X761348Y-8810476D01*
X951824Y-8810476D02*
X970872Y-8810476D01*
X989919Y-8820000D01*
X999443Y-8829524D01*
X1008967Y-8848571D01*
X1018491Y-8886667D01*
X1018491Y-8934286D01*
X1008967Y-8972381D01*
X999443Y-8991429D01*
X989919Y-9000952D01*
X970872Y-9010476D01*
X951824Y-9010476D01*
X932776Y-9000952D01*
X923253Y-8991429D01*
X913729Y-8972381D01*
X904205Y-8934286D01*
X904205Y-8886667D01*
X913729Y-8848571D01*
X923253Y-8829524D01*
X932776Y-8820000D01*
X951824Y-8810476D01*
X1104205Y-9010476D02*
X1104205Y-8877143D01*
X1104205Y-8896190D02*
X1113729Y-8886667D01*
X1132776Y-8877143D01*
X1161348Y-8877143D01*
X1180395Y-8886667D01*
X1189919Y-8905714D01*
X1189919Y-9010476D01*
X1189919Y-8905714D02*
X1199443Y-8886667D01*
X1218491Y-8877143D01*
X1247062Y-8877143D01*
X1266110Y-8886667D01*
X1275634Y-8905714D01*
X1275634Y-9010476D01*
X1370872Y-9010476D02*
X1370872Y-8877143D01*
X1370872Y-8896190D02*
X1380395Y-8886667D01*
X1399443Y-8877143D01*
X1428014Y-8877143D01*
X1447062Y-8886667D01*
X1456586Y-8905714D01*
X1456586Y-9010476D01*
X1456586Y-8905714D02*
X1466110Y-8886667D01*
X1485157Y-8877143D01*
X1513729Y-8877143D01*
X1532776Y-8886667D01*
X1542300Y-8905714D01*
X1542300Y-9010476D01*
X1932776Y-8800952D02*
X1761348Y-9058095D01*
X2189919Y-8810476D02*
X2208967Y-8810476D01*
X2228015Y-8820000D01*
X2237538Y-8829524D01*
X2247062Y-8848571D01*
X2256586Y-8886667D01*
X2256586Y-8934286D01*
X2247062Y-8972381D01*
X2237538Y-8991429D01*
X2228015Y-9000952D01*
X2208967Y-9010476D01*
X2189919Y-9010476D01*
X2170872Y-9000952D01*
X2161348Y-8991429D01*
X2151824Y-8972381D01*
X2142300Y-8934286D01*
X2142300Y-8886667D01*
X2151824Y-8848571D01*
X2161348Y-8829524D01*
X2170872Y-8820000D01*
X2189919Y-8810476D01*
X2342300Y-8991429D02*
X2351824Y-9000952D01*
X2342300Y-9010476D01*
X2332776Y-9000952D01*
X2342300Y-8991429D01*
X2342300Y-9010476D01*
X2475634Y-8810476D02*
X2494681Y-8810476D01*
X2513729Y-8820000D01*
X2523253Y-8829524D01*
X2532776Y-8848571D01*
X2542300Y-8886667D01*
X2542300Y-8934286D01*
X2532776Y-8972381D01*
X2523253Y-8991429D01*
X2513729Y-9000952D01*
X2494681Y-9010476D01*
X2475634Y-9010476D01*
X2456586Y-9000952D01*
X2447062Y-8991429D01*
X2437538Y-8972381D01*
X2428015Y-8934286D01*
X2428015Y-8886667D01*
X2437538Y-8848571D01*
X2447062Y-8829524D01*
X2456586Y-8820000D01*
X2475634Y-8810476D01*
X2608967Y-8810476D02*
X2732776Y-8810476D01*
X2666110Y-8886667D01*
X2694681Y-8886667D01*
X2713729Y-8896190D01*
X2723253Y-8905714D01*
X2732776Y-8924762D01*
X2732776Y-8972381D01*
X2723253Y-8991429D01*
X2713729Y-9000952D01*
X2694681Y-9010476D01*
X2637538Y-9010476D01*
X2618491Y-9000952D01*
X2608967Y-8991429D01*
X2828014Y-9010476D02*
X2866110Y-9010476D01*
X2885157Y-9000952D01*
X2894681Y-8991429D01*
X2913729Y-8962857D01*
X2923253Y-8924762D01*
X2923253Y-8848571D01*
X2913729Y-8829524D01*
X2904205Y-8820000D01*
X2885157Y-8810476D01*
X2847062Y-8810476D01*
X2828014Y-8820000D01*
X2818491Y-8829524D01*
X2808967Y-8848571D01*
X2808967Y-8896190D01*
X2818491Y-8915238D01*
X2828014Y-8924762D01*
X2847062Y-8934286D01*
X2885157Y-8934286D01*
X2904205Y-8924762D01*
X2913729Y-8915238D01*
X2923253Y-8896190D01*
X3094681Y-8877143D02*
X3094681Y-9010476D01*
X3047062Y-8800952D02*
X2999443Y-8943810D01*
X3123253Y-8943810D01*
X3189919Y-8810476D02*
X3189919Y-8848571D01*
X3266110Y-8810476D02*
X3266110Y-8848571D01*
X3561348Y-9086667D02*
X3551824Y-9077143D01*
X3532776Y-9048571D01*
X3523253Y-9029524D01*
X3513729Y-9000952D01*
X3504205Y-8953333D01*
X3504205Y-8915238D01*
X3513729Y-8867619D01*
X3523253Y-8839048D01*
X3532776Y-8820000D01*
X3551824Y-8791429D01*
X3561348Y-8781905D01*
X3723253Y-8877143D02*
X3723253Y-9010476D01*
X3675633Y-8800952D02*
X3628014Y-8943810D01*
X3751824Y-8943810D01*
X3818491Y-8829524D02*
X3828014Y-8820000D01*
X3847062Y-8810476D01*
X3894681Y-8810476D01*
X3913729Y-8820000D01*
X3923253Y-8829524D01*
X3932776Y-8848571D01*
X3932776Y-8867619D01*
X3923253Y-8896190D01*
X3808967Y-9010476D01*
X3932776Y-9010476D01*
X4170872Y-9010476D02*
X4170872Y-8810476D01*
X4256586Y-9010476D02*
X4256586Y-8905714D01*
X4247062Y-8886667D01*
X4228015Y-8877143D01*
X4199443Y-8877143D01*
X4180395Y-8886667D01*
X4170872Y-8896190D01*
X4380395Y-9010476D02*
X4361348Y-9000952D01*
X4351824Y-8991429D01*
X4342300Y-8972381D01*
X4342300Y-8915238D01*
X4351824Y-8896190D01*
X4361348Y-8886667D01*
X4380395Y-8877143D01*
X4408967Y-8877143D01*
X4428015Y-8886667D01*
X4437538Y-8896190D01*
X4447062Y-8915238D01*
X4447062Y-8972381D01*
X4437538Y-8991429D01*
X4428015Y-9000952D01*
X4408967Y-9010476D01*
X4380395Y-9010476D01*
X4561348Y-9010476D02*
X4542300Y-9000952D01*
X4532776Y-8981905D01*
X4532776Y-8810476D01*
X4713729Y-9000952D02*
X4694681Y-9010476D01*
X4656586Y-9010476D01*
X4637538Y-9000952D01*
X4628015Y-8981905D01*
X4628015Y-8905714D01*
X4637538Y-8886667D01*
X4656586Y-8877143D01*
X4694681Y-8877143D01*
X4713729Y-8886667D01*
X4723253Y-8905714D01*
X4723253Y-8924762D01*
X4628015Y-8943810D01*
X4799443Y-9000952D02*
X4818491Y-9010476D01*
X4856586Y-9010476D01*
X4875634Y-9000952D01*
X4885157Y-8981905D01*
X4885157Y-8972381D01*
X4875634Y-8953333D01*
X4856586Y-8943810D01*
X4828015Y-8943810D01*
X4808967Y-8934286D01*
X4799443Y-8915238D01*
X4799443Y-8905714D01*
X4808967Y-8886667D01*
X4828015Y-8877143D01*
X4856586Y-8877143D01*
X4875634Y-8886667D01*
X4951824Y-9086667D02*
X4961348Y-9077143D01*
X4980395Y-9048571D01*
X4989919Y-9029524D01*
X4999443Y-9000952D01*
X5008967Y-8953333D01*
X5008967Y-8915238D01*
X4999443Y-8867619D01*
X4989919Y-8839048D01*
X4980395Y-8820000D01*
X4961348Y-8791429D01*
X4951824Y-8781905D01*
D14*
X-25494Y-9220063D02*
X-25494Y-9147937D01*
X-97620Y-9147937D01*
X-97620Y-9220063D01*
X-25494Y-9220063D01*
D11*
X351824Y-9274476D02*
X237538Y-9274476D01*
X294681Y-9274476D02*
X294681Y-9074476D01*
X275634Y-9103048D01*
X256586Y-9122095D01*
X237538Y-9131619D01*
X437538Y-9255429D02*
X447062Y-9264952D01*
X437538Y-9274476D01*
X428014Y-9264952D01*
X437538Y-9255429D01*
X437538Y-9274476D01*
X570872Y-9074476D02*
X589919Y-9074476D01*
X608967Y-9084000D01*
X618491Y-9093524D01*
X628015Y-9112571D01*
X637538Y-9150667D01*
X637538Y-9198286D01*
X628015Y-9236381D01*
X618491Y-9255429D01*
X608967Y-9264952D01*
X589919Y-9274476D01*
X570872Y-9274476D01*
X551824Y-9264952D01*
X542300Y-9255429D01*
X532776Y-9236381D01*
X523253Y-9198286D01*
X523253Y-9150667D01*
X532776Y-9112571D01*
X542300Y-9093524D01*
X551824Y-9084000D01*
X570872Y-9074476D01*
X713729Y-9093524D02*
X723253Y-9084000D01*
X742300Y-9074476D01*
X789919Y-9074476D01*
X808967Y-9084000D01*
X818491Y-9093524D01*
X828014Y-9112571D01*
X828014Y-9131619D01*
X818491Y-9160190D01*
X704205Y-9274476D01*
X828014Y-9274476D01*
X951824Y-9074476D02*
X970872Y-9074476D01*
X989919Y-9084000D01*
X999443Y-9093524D01*
X1008967Y-9112571D01*
X1018491Y-9150667D01*
X1018491Y-9198286D01*
X1008967Y-9236381D01*
X999443Y-9255429D01*
X989919Y-9264952D01*
X970872Y-9274476D01*
X951824Y-9274476D01*
X932776Y-9264952D01*
X923253Y-9255429D01*
X913729Y-9236381D01*
X904205Y-9198286D01*
X904205Y-9150667D01*
X913729Y-9112571D01*
X923253Y-9093524D01*
X932776Y-9084000D01*
X951824Y-9074476D01*
X1104205Y-9274476D02*
X1104205Y-9141143D01*
X1104205Y-9160190D02*
X1113729Y-9150667D01*
X1132776Y-9141143D01*
X1161348Y-9141143D01*
X1180395Y-9150667D01*
X1189919Y-9169714D01*
X1189919Y-9274476D01*
X1189919Y-9169714D02*
X1199443Y-9150667D01*
X1218491Y-9141143D01*
X1247062Y-9141143D01*
X1266110Y-9150667D01*
X1275634Y-9169714D01*
X1275634Y-9274476D01*
X1370872Y-9274476D02*
X1370872Y-9141143D01*
X1370872Y-9160190D02*
X1380395Y-9150667D01*
X1399443Y-9141143D01*
X1428014Y-9141143D01*
X1447062Y-9150667D01*
X1456586Y-9169714D01*
X1456586Y-9274476D01*
X1456586Y-9169714D02*
X1466110Y-9150667D01*
X1485157Y-9141143D01*
X1513729Y-9141143D01*
X1532776Y-9150667D01*
X1542300Y-9169714D01*
X1542300Y-9274476D01*
X1932776Y-9064952D02*
X1761348Y-9322095D01*
X2189919Y-9074476D02*
X2208967Y-9074476D01*
X2228015Y-9084000D01*
X2237538Y-9093524D01*
X2247062Y-9112571D01*
X2256586Y-9150667D01*
X2256586Y-9198286D01*
X2247062Y-9236381D01*
X2237538Y-9255429D01*
X2228015Y-9264952D01*
X2208967Y-9274476D01*
X2189919Y-9274476D01*
X2170872Y-9264952D01*
X2161348Y-9255429D01*
X2151824Y-9236381D01*
X2142300Y-9198286D01*
X2142300Y-9150667D01*
X2151824Y-9112571D01*
X2161348Y-9093524D01*
X2170872Y-9084000D01*
X2189919Y-9074476D01*
X2342300Y-9255429D02*
X2351824Y-9264952D01*
X2342300Y-9274476D01*
X2332776Y-9264952D01*
X2342300Y-9255429D01*
X2342300Y-9274476D01*
X2475634Y-9074476D02*
X2494681Y-9074476D01*
X2513729Y-9084000D01*
X2523253Y-9093524D01*
X2532776Y-9112571D01*
X2542300Y-9150667D01*
X2542300Y-9198286D01*
X2532776Y-9236381D01*
X2523253Y-9255429D01*
X2513729Y-9264952D01*
X2494681Y-9274476D01*
X2475634Y-9274476D01*
X2456586Y-9264952D01*
X2447062Y-9255429D01*
X2437538Y-9236381D01*
X2428015Y-9198286D01*
X2428015Y-9150667D01*
X2437538Y-9112571D01*
X2447062Y-9093524D01*
X2456586Y-9084000D01*
X2475634Y-9074476D01*
X2713729Y-9141143D02*
X2713729Y-9274476D01*
X2666110Y-9064952D02*
X2618491Y-9207810D01*
X2742300Y-9207810D01*
X2856586Y-9074476D02*
X2875633Y-9074476D01*
X2894681Y-9084000D01*
X2904205Y-9093524D01*
X2913729Y-9112571D01*
X2923253Y-9150667D01*
X2923253Y-9198286D01*
X2913729Y-9236381D01*
X2904205Y-9255429D01*
X2894681Y-9264952D01*
X2875633Y-9274476D01*
X2856586Y-9274476D01*
X2837538Y-9264952D01*
X2828014Y-9255429D01*
X2818491Y-9236381D01*
X2808967Y-9198286D01*
X2808967Y-9150667D01*
X2818491Y-9112571D01*
X2828014Y-9093524D01*
X2837538Y-9084000D01*
X2856586Y-9074476D01*
X2999443Y-9093524D02*
X3008967Y-9084000D01*
X3028014Y-9074476D01*
X3075633Y-9074476D01*
X3094681Y-9084000D01*
X3104205Y-9093524D01*
X3113729Y-9112571D01*
X3113729Y-9131619D01*
X3104205Y-9160190D01*
X2989919Y-9274476D01*
X3113729Y-9274476D01*
X3189919Y-9074476D02*
X3189919Y-9112571D01*
X3266110Y-9074476D02*
X3266110Y-9112571D01*
X3561348Y-9350667D02*
X3551824Y-9341143D01*
X3532776Y-9312571D01*
X3523253Y-9293524D01*
X3513729Y-9264952D01*
X3504205Y-9217333D01*
X3504205Y-9179238D01*
X3513729Y-9131619D01*
X3523253Y-9103048D01*
X3532776Y-9084000D01*
X3551824Y-9055429D01*
X3561348Y-9045905D01*
X3723253Y-9141143D02*
X3723253Y-9274476D01*
X3675633Y-9064952D02*
X3628014Y-9207810D01*
X3751824Y-9207810D01*
X3808967Y-9074476D02*
X3932776Y-9074476D01*
X3866110Y-9150667D01*
X3894681Y-9150667D01*
X3913729Y-9160190D01*
X3923253Y-9169714D01*
X3932776Y-9188762D01*
X3932776Y-9236381D01*
X3923253Y-9255429D01*
X3913729Y-9264952D01*
X3894681Y-9274476D01*
X3837538Y-9274476D01*
X3818491Y-9264952D01*
X3808967Y-9255429D01*
X4170872Y-9274476D02*
X4170872Y-9074476D01*
X4256586Y-9274476D02*
X4256586Y-9169714D01*
X4247062Y-9150667D01*
X4228015Y-9141143D01*
X4199443Y-9141143D01*
X4180395Y-9150667D01*
X4170872Y-9160190D01*
X4380395Y-9274476D02*
X4361348Y-9264952D01*
X4351824Y-9255429D01*
X4342300Y-9236381D01*
X4342300Y-9179238D01*
X4351824Y-9160190D01*
X4361348Y-9150667D01*
X4380395Y-9141143D01*
X4408967Y-9141143D01*
X4428015Y-9150667D01*
X4437538Y-9160190D01*
X4447062Y-9179238D01*
X4447062Y-9236381D01*
X4437538Y-9255429D01*
X4428015Y-9264952D01*
X4408967Y-9274476D01*
X4380395Y-9274476D01*
X4561348Y-9274476D02*
X4542300Y-9264952D01*
X4532776Y-9245905D01*
X4532776Y-9074476D01*
X4713729Y-9264952D02*
X4694681Y-9274476D01*
X4656586Y-9274476D01*
X4637538Y-9264952D01*
X4628015Y-9245905D01*
X4628015Y-9169714D01*
X4637538Y-9150667D01*
X4656586Y-9141143D01*
X4694681Y-9141143D01*
X4713729Y-9150667D01*
X4723253Y-9169714D01*
X4723253Y-9188762D01*
X4628015Y-9207810D01*
X4799443Y-9264952D02*
X4818491Y-9274476D01*
X4856586Y-9274476D01*
X4875634Y-9264952D01*
X4885157Y-9245905D01*
X4885157Y-9236381D01*
X4875634Y-9217333D01*
X4856586Y-9207810D01*
X4828015Y-9207810D01*
X4808967Y-9198286D01*
X4799443Y-9179238D01*
X4799443Y-9169714D01*
X4808967Y-9150667D01*
X4828015Y-9141143D01*
X4856586Y-9141143D01*
X4875634Y-9150667D01*
X4951824Y-9350667D02*
X4961348Y-9341143D01*
X4980395Y-9312571D01*
X4989919Y-9293524D01*
X4999443Y-9264952D01*
X5008967Y-9217333D01*
X5008967Y-9179238D01*
X4999443Y-9131619D01*
X4989919Y-9103048D01*
X4980395Y-9084000D01*
X4961348Y-9055429D01*
X4951824Y-9045905D01*
M02*
