%TF.GenerationSoftware,KiCad,Pcbnew,(6.0.8)*%
%TF.CreationDate,2022-11-01T15:17:05-07:00*%
%TF.ProjectId,RioPicoBridge,52696f50-6963-46f4-9272-696467652e6b,rev?*%
%TF.SameCoordinates,Original*%
%TF.FileFunction,Soldermask,Bot*%
%TF.FilePolarity,Negative*%
%FSLAX46Y46*%
G04 Gerber Fmt 4.6, Leading zero omitted, Abs format (unit mm)*
G04 Created by KiCad (PCBNEW (6.0.8)) date 2022-11-01 15:17:05*
%MOMM*%
%LPD*%
G01*
G04 APERTURE LIST*
%ADD10O,1.700000X1.700000*%
%ADD11R,1.700000X1.700000*%
%ADD12C,3.200000*%
%ADD13O,1.500000X1.500000*%
%ADD14O,1.800000X1.800000*%
G04 APERTURE END LIST*
D10*
%TO.C,J5*%
X7985000Y-74050000D03*
X7985000Y-71510000D03*
X10525000Y-74050000D03*
X10525000Y-71510000D03*
X13065000Y-74050000D03*
X13065000Y-71510000D03*
X15605000Y-74050000D03*
X15605000Y-71510000D03*
X18145000Y-74050000D03*
X18145000Y-71510000D03*
X20685000Y-74050000D03*
X20685000Y-71510000D03*
X23225000Y-74050000D03*
X23225000Y-71510000D03*
X25765000Y-74050000D03*
X25765000Y-71510000D03*
X28305000Y-74050000D03*
X28305000Y-71510000D03*
X30845000Y-74050000D03*
X30845000Y-71510000D03*
X33385000Y-74050000D03*
X33385000Y-71510000D03*
X35925000Y-74050000D03*
X35925000Y-71510000D03*
X38465000Y-74050000D03*
X38465000Y-71510000D03*
X41005000Y-74050000D03*
X41005000Y-71510000D03*
X43545000Y-74050000D03*
X43545000Y-71510000D03*
X46085000Y-74050000D03*
X46085000Y-71510000D03*
X48625000Y-74050000D03*
D11*
X48625000Y-71510000D03*
%TD*%
D12*
%TO.C,H2*%
X3505200Y-3429000D03*
%TD*%
%TO.C,H1*%
X53136800Y-3429000D03*
%TD*%
D10*
%TO.C,U1*%
X6834000Y-56515000D03*
D11*
X6834000Y-53975000D03*
D10*
X6834000Y-51435000D03*
X54864000Y-62865000D03*
X52324000Y-62865000D03*
D11*
X49784000Y-62865000D03*
D10*
X47244000Y-62865000D03*
X44704000Y-62865000D03*
X42164000Y-62865000D03*
X39624000Y-62865000D03*
D11*
X37084000Y-62865000D03*
D10*
X34544000Y-62865000D03*
X32004000Y-62865000D03*
X29464000Y-62865000D03*
X26924000Y-62865000D03*
D11*
X24384000Y-62865000D03*
D10*
X21844000Y-62865000D03*
X19304000Y-62865000D03*
X16764000Y-62865000D03*
X14224000Y-62865000D03*
D11*
X11684000Y-62865000D03*
D10*
X9144000Y-62865000D03*
X6604000Y-62865000D03*
X6604000Y-45085000D03*
X9144000Y-45085000D03*
D11*
X11684000Y-45085000D03*
D10*
X14224000Y-45085000D03*
X16764000Y-45085000D03*
X19304000Y-45085000D03*
X21844000Y-45085000D03*
D11*
X24384000Y-45085000D03*
D10*
X26924000Y-45085000D03*
X29464000Y-45085000D03*
X32004000Y-45085000D03*
X34544000Y-45085000D03*
D11*
X37084000Y-45085000D03*
D10*
X39624000Y-45085000D03*
X42164000Y-45085000D03*
X44704000Y-45085000D03*
X47244000Y-45085000D03*
D11*
X49784000Y-45085000D03*
D10*
X52324000Y-45085000D03*
X54864000Y-45085000D03*
D13*
X51704000Y-56400000D03*
X51704000Y-51550000D03*
D14*
X54734000Y-51250000D03*
X54734000Y-56700000D03*
%TD*%
D10*
%TO.C,J2*%
X17460000Y-24000000D03*
X20000000Y-24000000D03*
X22540000Y-24000000D03*
D11*
X25080000Y-24000000D03*
%TD*%
D10*
%TO.C,J1*%
X32920000Y-24000000D03*
X35460000Y-24000000D03*
X38000000Y-24000000D03*
D11*
X40540000Y-24000000D03*
%TD*%
M02*
