M48
; DRILL file {KiCad (6.0.9-0)} date Tuesday, December 27, 2022 at 02:01:06 PM
; FORMAT={-:-/ absolute / inch / decimal}
; #@! TF.CreationDate,2022-12-27T14:01:06-06:00
; #@! TF.GenerationSoftware,Kicad,Pcbnew,(6.0.9-0)
; #@! TF.FileFunction,Plated,1,2,PTH
FMAT,2
INCH
; #@! TA.AperFunction,Plated,PTH,ViaDrill
T1C0.0157
; #@! TA.AperFunction,Plated,PTH,ComponentDrill
T2C0.0394
; #@! TA.AperFunction,Plated,PTH,ComponentDrill
T3C0.0402
%
G90
G05
T1
X4.8896Y-2.6218
X4.8896Y-2.7399
X4.8896Y-4.1572
X5.0077Y-2.3856
X5.0077Y-2.5037
X5.0077Y-2.6218
X5.0077Y-2.7399
X5.0077Y-3.8029
X5.0077Y-4.1572
X5.1258Y-2.3856
X5.1258Y-2.6218
X5.1258Y-2.7399
X5.1258Y-3.8029
X5.1258Y-4.1572
X5.1258Y-4.2753
X5.1258Y-4.6297
X5.1258Y-4.984
X5.179Y-3.6395
X5.244Y-2.3856
X5.244Y-2.5037
X5.244Y-2.6218
X5.244Y-2.9761
X5.244Y-3.0942
X5.244Y-3.2123
X5.244Y-3.3305
X5.244Y-3.4486
X5.244Y-3.5667
X5.244Y-3.8029
X5.244Y-4.1572
X5.244Y-4.5116
X5.244Y-4.6297
X5.244Y-4.984
X5.3621Y-2.3856
X5.3621Y-2.5037
X5.3621Y-2.6218
X5.3621Y-4.3934
X5.3621Y-4.5116
X5.3621Y-4.6297
X5.4802Y-2.3856
X5.4802Y-2.5037
X5.4802Y-2.6218
X5.4802Y-2.7399
X5.4802Y-2.858
X5.4802Y-4.1572
X5.4802Y-4.3934
X5.4802Y-4.5116
X5.4802Y-4.6297
X5.5983Y-2.3856
X5.5983Y-2.5037
X5.5983Y-2.6218
X5.5983Y-2.7399
X5.5983Y-3.6848
X5.5983Y-3.8029
X5.5983Y-4.1572
X5.5983Y-4.3934
X5.5983Y-4.5116
X5.5983Y-4.6297
X5.7164Y-2.3856
X5.7164Y-2.5037
X5.7164Y-2.6218
X5.7164Y-4.3934
X5.7164Y-4.5116
X5.7164Y-4.6297
X5.8345Y-2.3856
X5.8345Y-2.6218
X5.8345Y-2.9761
X5.8345Y-3.0942
X5.8345Y-3.2123
X5.8345Y-3.3305
X5.8345Y-3.4486
X5.8345Y-3.5667
X5.8345Y-4.3934
X5.8345Y-4.5116
X5.9526Y-2.3856
X5.9526Y-2.5037
X5.9526Y-2.6218
X5.9526Y-3.3305
X5.9526Y-3.4486
X5.9526Y-3.8029
X5.9526Y-4.2753
X5.9526Y-4.3934
X6.0707Y-2.3856
X6.0707Y-2.5037
X6.0707Y-2.6218
X6.0707Y-2.7399
X6.0707Y-2.858
X6.0707Y-3.6848
X6.0707Y-3.8029
X6.0707Y-4.2753
X6.1042Y-3.5982
X6.1888Y-2.3856
X6.1888Y-2.5037
X6.1888Y-2.6218
X6.1888Y-2.7399
X6.1888Y-2.858
X6.3069Y-2.3856
X6.3069Y-2.5037
X6.3069Y-2.6218
X6.3069Y-2.9761
X6.3069Y-3.0942
X6.3069Y-3.4486
X6.3069Y-3.5667
X6.3069Y-3.6848
X6.3069Y-4.984
X6.4251Y-2.3856
X6.4251Y-2.6218
X6.4251Y-2.7399
X6.4251Y-2.858
X6.4251Y-2.9761
X6.4251Y-3.0942
X6.4251Y-3.2123
X6.4251Y-3.3305
X6.4251Y-3.4486
X6.4251Y-3.5667
X6.4251Y-3.6848
X6.4251Y-4.6297
X6.4251Y-4.984
X6.5432Y-2.3856
X6.5432Y-2.5037
X6.5432Y-2.6218
X6.5432Y-2.7399
X6.5432Y-2.858
X6.5432Y-2.9761
X6.5432Y-3.0942
X6.5432Y-3.2123
X6.5432Y-3.3305
X6.5432Y-3.4486
X6.5432Y-3.5667
X6.5432Y-3.6848
X6.5432Y-4.5116
X6.5432Y-4.6297
X6.5432Y-4.984
X6.6613Y-2.3856
X6.6613Y-2.5037
X6.6613Y-2.6218
X6.6613Y-2.7399
X6.6613Y-2.858
X6.6613Y-2.9761
X6.6613Y-3.0942
X6.6613Y-3.2123
X6.6613Y-3.3305
X6.6613Y-3.4486
X6.6613Y-3.5667
X6.6613Y-3.6848
X6.7794Y-2.6218
X6.7794Y-2.7399
X6.7794Y-2.858
X6.7794Y-2.9761
X6.7794Y-3.0942
X6.7794Y-3.2123
X6.7794Y-3.3305
X6.7794Y-3.4486
X6.7794Y-3.5667
X6.7794Y-3.6848
X6.7794Y-3.8029
T2
X5.0032Y-5.1045
X5.0032Y-5.2045
X5.1032Y-5.1045
X5.1032Y-5.2045
X5.2032Y-5.1045
X5.2032Y-5.2045
X5.3032Y-5.1045
X5.3032Y-5.2045
X5.3762Y-3.234
X5.4032Y-5.1045
X5.4032Y-5.2045
X5.4762Y-3.234
X5.5032Y-5.1045
X5.5032Y-5.2045
X5.5762Y-3.234
X5.6032Y-5.1045
X5.6032Y-5.2045
X5.6762Y-3.234
X5.7032Y-5.1045
X5.7032Y-5.2045
X5.8032Y-5.1045
X5.8032Y-5.2045
X5.9032Y-5.1045
X5.9032Y-5.2045
X5.9849Y-3.234
X6.0032Y-5.1045
X6.0032Y-5.2045
X6.0849Y-3.234
X6.1032Y-5.1045
X6.1032Y-5.2045
X6.1849Y-3.234
X6.2032Y-5.1045
X6.2032Y-5.2045
X6.2849Y-3.234
X6.3032Y-5.1045
X6.3032Y-5.2045
X6.4032Y-5.1045
X6.4032Y-5.2045
X6.5032Y-5.1045
X6.5032Y-5.2045
X6.6032Y-5.1045
X6.6032Y-5.2045
T3
X4.9488Y-4.0641
X4.9488Y-4.7641
X4.9579Y-4.3141
X4.9579Y-4.4141
X4.9579Y-4.5141
X5.0488Y-4.0641
X5.0488Y-4.7641
X5.1488Y-4.0641
X5.1488Y-4.7641
X5.2488Y-4.0641
X5.2488Y-4.7641
X5.3488Y-4.0641
X5.3488Y-4.7641
X5.4488Y-4.0641
X5.4488Y-4.7641
X5.5488Y-4.0641
X5.5488Y-4.7641
X5.6488Y-4.0641
X5.6488Y-4.7641
X5.7488Y-4.0641
X5.7488Y-4.7641
X5.8488Y-4.0641
X5.8488Y-4.7641
X5.9488Y-4.0641
X5.9488Y-4.7641
X6.0488Y-4.0641
X6.0488Y-4.7641
X6.1488Y-4.0641
X6.1488Y-4.7641
X6.2488Y-4.0641
X6.2488Y-4.7641
X6.3488Y-4.0641
X6.3488Y-4.7641
X6.4488Y-4.0641
X6.4488Y-4.7641
X6.5488Y-4.0641
X6.5488Y-4.7641
X6.6488Y-4.0641
X6.6488Y-4.7641
X6.7488Y-4.0641
X6.7488Y-4.7641
X6.8488Y-4.0641
X6.8488Y-4.7641
T0
M30
