M48
; DRILL file {KiCad (6.0.8)} date Mon Oct 31 16:39:18 2022
; FORMAT={-:-/ absolute / inch / decimal}
; #@! TF.CreationDate,2022-10-31T16:39:18-07:00
; #@! TF.GenerationSoftware,Kicad,Pcbnew,(6.0.8)
; #@! TF.FileFunction,Plated,1,2,PTH
FMAT,2
INCH
; #@! TA.AperFunction,Plated,PTH,ViaDrill
T1C0.0236
; #@! TA.AperFunction,Plated,PTH,ComponentDrill
T2C0.0394
; #@! TA.AperFunction,Plated,PTH,ComponentDrill
T3C0.0402
%
G90
G05
T1
X0.0787Y-0.3543
X0.0787Y-0.4331
X0.0787Y-0.5118
X0.0787Y-0.5906
X0.0787Y-0.6693
X0.0787Y-0.748
X0.0787Y-0.8268
X0.0787Y-0.9055
X0.0787Y-0.9843
X0.0787Y-1.063
X0.0787Y-1.1417
X0.0787Y-1.2205
X0.0787Y-1.2992
X0.0787Y-1.378
X0.0787Y-1.4567
X0.0787Y-1.5354
X0.0787Y-1.6142
X0.0787Y-1.6929
X0.0787Y-1.7717
X0.0787Y-1.8504
X0.0787Y-2.874
X0.0787Y-2.9528
X0.1575Y-0.3543
X0.1575Y-0.4331
X0.1575Y-0.5118
X0.1575Y-0.5906
X0.1575Y-0.6693
X0.1575Y-0.748
X0.1575Y-0.8268
X0.1575Y-0.9055
X0.1575Y-0.9843
X0.1575Y-1.063
X0.1575Y-1.1417
X0.1575Y-1.2205
X0.1575Y-1.2992
X0.1575Y-1.378
X0.1575Y-1.4567
X0.1575Y-1.5354
X0.1575Y-2.9528
X0.2362Y-0.3543
X0.2362Y-0.4331
X0.2362Y-0.5118
X0.2362Y-0.5906
X0.2362Y-0.6693
X0.2362Y-0.748
X0.2362Y-0.8268
X0.2362Y-0.9055
X0.2362Y-0.9843
X0.2362Y-1.063
X0.2362Y-1.1417
X0.2362Y-1.2205
X0.2362Y-1.2992
X0.2362Y-1.378
X0.2362Y-1.4567
X0.2362Y-1.5354
X0.315Y-0.1181
X0.315Y-0.1969
X0.315Y-0.2756
X0.315Y-0.3543
X0.315Y-0.4331
X0.315Y-0.5118
X0.315Y-0.5906
X0.315Y-0.6693
X0.315Y-0.748
X0.315Y-0.8268
X0.315Y-0.9055
X0.315Y-0.9843
X0.315Y-1.063
X0.315Y-1.1417
X0.315Y-1.2205
X0.315Y-1.2992
X0.315Y-1.378
X0.315Y-1.4567
X0.315Y-1.5354
X0.3937Y-0.3543
X0.3937Y-0.4331
X0.3937Y-0.5118
X0.3937Y-0.5906
X0.3937Y-0.6693
X0.3937Y-0.748
X0.3937Y-0.8268
X0.3937Y-0.9055
X0.3937Y-0.9843
X0.3937Y-1.063
X0.3937Y-1.1417
X0.3937Y-1.2205
X0.3937Y-1.2992
X0.3937Y-1.378
X0.3937Y-1.4567
X0.3937Y-1.5354
X0.4724Y-0.3543
X0.4724Y-0.4331
X0.4724Y-0.5118
X0.4724Y-0.5906
X0.4724Y-0.6693
X0.4724Y-0.748
X0.4724Y-0.8268
X0.4724Y-0.9055
X0.4724Y-0.9843
X0.4724Y-1.063
X0.4724Y-1.1417
X0.4724Y-1.2205
X0.4724Y-1.2992
X0.4724Y-1.378
X0.4724Y-1.4567
X0.4724Y-1.5354
X0.4724Y-1.9291
X0.5512Y-0.6693
X0.5512Y-0.748
X0.5512Y-0.8268
X0.5512Y-0.9055
X0.5512Y-0.9843
X0.5512Y-1.063
X0.5512Y-1.1417
X0.5512Y-1.2205
X0.5512Y-1.2992
X0.5512Y-1.378
X0.5512Y-1.4567
X0.5512Y-1.5354
X0.5512Y-1.9291
X0.5512Y-2.3228
X0.6299Y-0.1181
X0.6299Y-0.1969
X0.6299Y-1.1417
X0.6299Y-1.2205
X0.6299Y-1.2992
X0.6299Y-1.378
X0.6299Y-1.4567
X0.6299Y-1.5354
X0.6299Y-2.2441
X0.6299Y-2.3228
X0.7087Y-0.1181
X0.7087Y-0.1969
X0.7087Y-1.1417
X0.7087Y-1.2205
X0.7087Y-1.2992
X0.7087Y-1.378
X0.7087Y-1.4567
X0.7087Y-1.5354
X0.7087Y-2.2441
X0.7087Y-2.3228
X0.7874Y-0.1181
X0.7874Y-0.1969
X0.7874Y-0.2756
X0.7874Y-0.3543
X0.7874Y-0.4331
X0.7874Y-2.2441
X0.7874Y-2.3228
X0.8661Y-0.1181
X0.8661Y-0.1969
X0.8661Y-0.2756
X0.8661Y-0.3543
X0.8661Y-0.4331
X0.8661Y-2.2441
X0.8661Y-2.3228
X0.9449Y-0.1181
X0.9449Y-0.1969
X0.9449Y-2.0866
X0.9449Y-2.1654
X0.9449Y-2.2441
X0.9449Y-2.3228
X1.0236Y-0.1181
X1.0236Y-0.1969
X1.0236Y-2.0866
X1.0236Y-2.1654
X1.1024Y-2.0866
X1.1811Y-0.6693
X1.1811Y-0.748
X1.2598Y-0.1181
X1.2598Y-0.1969
X1.3386Y-0.1181
X1.3386Y-0.1969
X1.3386Y-0.2756
X1.3386Y-0.3543
X1.3386Y-0.4331
X1.4173Y-0.1181
X1.4173Y-0.1969
X1.4173Y-0.2756
X1.4173Y-0.3543
X1.4173Y-0.4331
X1.4961Y-0.1181
X1.4961Y-0.1969
X1.4961Y-0.2756
X1.4961Y-0.3543
X1.4961Y-0.4331
X1.5748Y-0.1181
X1.5748Y-0.1969
X1.6535Y-0.1181
X1.6535Y-0.1969
X1.6535Y-0.6693
X1.6535Y-0.748
X1.6535Y-1.2205
X1.6535Y-1.2992
X1.6535Y-1.378
X1.7323Y-0.6693
X1.7323Y-0.748
X1.7323Y-0.8268
X1.7323Y-0.9055
X1.7323Y-0.9843
X1.7323Y-1.063
X1.7323Y-1.1417
X1.7323Y-1.2205
X1.7323Y-1.2992
X1.7323Y-1.378
X1.811Y-0.3543
X1.811Y-0.4331
X1.811Y-0.5118
X1.811Y-0.5906
X1.811Y-0.6693
X1.811Y-0.748
X1.811Y-0.8268
X1.811Y-0.9055
X1.811Y-0.9843
X1.811Y-1.063
X1.811Y-1.1417
X1.811Y-1.2205
X1.811Y-1.2992
X1.811Y-1.378
X1.8898Y-0.1181
X1.8898Y-0.1969
X1.8898Y-0.2756
X1.8898Y-0.3543
X1.8898Y-0.4331
X1.8898Y-0.5118
X1.8898Y-0.5906
X1.8898Y-0.6693
X1.8898Y-0.748
X1.8898Y-0.8268
X1.8898Y-0.9055
X1.8898Y-0.9843
X1.8898Y-1.063
X1.8898Y-1.1417
X1.8898Y-1.2205
X1.8898Y-1.2992
X1.8898Y-1.378
X1.9685Y-0.3543
X1.9685Y-0.4331
X1.9685Y-0.5118
X1.9685Y-0.5906
X1.9685Y-0.6693
X1.9685Y-0.748
X1.9685Y-0.8268
X1.9685Y-0.9055
X1.9685Y-0.9843
X1.9685Y-1.063
X1.9685Y-1.1417
X1.9685Y-1.2205
X1.9685Y-1.2992
X1.9685Y-1.378
X2.0472Y-0.3543
X2.0472Y-0.4331
X2.0472Y-0.5118
X2.0472Y-0.5906
X2.0472Y-0.6693
X2.0472Y-0.748
X2.0472Y-0.8268
X2.0472Y-0.9055
X2.0472Y-0.9843
X2.0472Y-1.063
X2.0472Y-1.1417
X2.0472Y-1.2205
X2.0472Y-1.2992
X2.0472Y-1.378
X2.126Y-0.3543
X2.126Y-0.4331
X2.126Y-0.5118
X2.126Y-0.5906
X2.126Y-0.6693
X2.126Y-0.748
X2.126Y-0.8268
X2.126Y-0.9055
X2.126Y-0.9843
X2.126Y-1.063
X2.126Y-1.1417
X2.126Y-1.2205
X2.126Y-1.2992
X2.126Y-1.378
X2.126Y-1.4567
X2.126Y-1.5354
X2.2047Y-0.3543
X2.2047Y-0.4331
X2.2047Y-0.5118
X2.2047Y-0.5906
X2.2047Y-0.6693
X2.2047Y-0.748
X2.2047Y-0.8268
X2.2047Y-0.9055
X2.2047Y-0.9843
X2.2047Y-1.063
X2.2047Y-1.1417
X2.2047Y-1.2205
X2.2047Y-1.2992
X2.2047Y-1.378
X2.2047Y-1.4567
X2.2047Y-1.5354
X2.2047Y-2.9528
T2
X0.3144Y-2.8154
X0.3144Y-2.9154
X0.4144Y-2.8154
X0.4144Y-2.9154
X0.5144Y-2.8154
X0.5144Y-2.9154
X0.6144Y-2.8154
X0.6144Y-2.9154
X0.6874Y-0.9449
X0.7144Y-2.8154
X0.7144Y-2.9154
X0.7874Y-0.9449
X0.8144Y-2.8154
X0.8144Y-2.9154
X0.8874Y-0.9449
X0.9144Y-2.8154
X0.9144Y-2.9154
X0.9874Y-0.9449
X1.0144Y-2.8154
X1.0144Y-2.9154
X1.1144Y-2.8154
X1.1144Y-2.9154
X1.2144Y-2.8154
X1.2144Y-2.9154
X1.2961Y-0.9449
X1.3144Y-2.8154
X1.3144Y-2.9154
X1.3961Y-0.9449
X1.4144Y-2.8154
X1.4144Y-2.9154
X1.4961Y-0.9449
X1.5144Y-2.8154
X1.5144Y-2.9154
X1.5961Y-0.9449
X1.6144Y-2.8154
X1.6144Y-2.9154
X1.7144Y-2.8154
X1.7144Y-2.9154
X1.8144Y-2.8154
X1.8144Y-2.9154
X1.9144Y-2.8154
X1.9144Y-2.9154
T3
X0.26Y-1.775
X0.26Y-2.475
X0.2691Y-2.025
X0.2691Y-2.125
X0.2691Y-2.225
X0.36Y-1.775
X0.36Y-2.475
X0.46Y-1.775
X0.46Y-2.475
X0.56Y-1.775
X0.56Y-2.475
X0.66Y-1.775
X0.66Y-2.475
X0.76Y-1.775
X0.76Y-2.475
X0.86Y-1.775
X0.86Y-2.475
X0.96Y-1.775
X0.96Y-2.475
X1.06Y-1.775
X1.06Y-2.475
X1.16Y-1.775
X1.16Y-2.475
X1.26Y-1.775
X1.26Y-2.475
X1.36Y-1.775
X1.36Y-2.475
X1.46Y-1.775
X1.46Y-2.475
X1.56Y-1.775
X1.56Y-2.475
X1.66Y-1.775
X1.66Y-2.475
X1.76Y-1.775
X1.76Y-2.475
X1.86Y-1.775
X1.86Y-2.475
X1.96Y-1.775
X1.96Y-2.475
X2.06Y-1.775
X2.06Y-2.475
X2.16Y-1.775
X2.16Y-2.475
T0
M30
