%TF.GenerationSoftware,KiCad,Pcbnew,(6.0.9-0)*%
%TF.CreationDate,2022-12-27T14:01:03-06:00*%
%TF.ProjectId,RioPicoBridge,52696f50-6963-46f4-9272-696467652e6b,rev?*%
%TF.SameCoordinates,Original*%
%TF.FileFunction,Soldermask,Bot*%
%TF.FilePolarity,Negative*%
%FSLAX46Y46*%
G04 Gerber Fmt 4.6, Leading zero omitted, Abs format (unit mm)*
G04 Created by KiCad (PCBNEW (6.0.9-0)) date 2022-12-27 14:01:03*
%MOMM*%
%LPD*%
G01*
G04 APERTURE LIST*
%ADD10C,3.200000*%
%ADD11O,1.700000X1.700000*%
%ADD12R,1.700000X1.700000*%
%ADD13O,1.800000X1.800000*%
%ADD14O,1.500000X1.500000*%
G04 APERTURE END LIST*
D10*
%TO.C,H1*%
X172233300Y-61572500D03*
%TD*%
D11*
%TO.C,J1*%
X152016500Y-82143500D03*
X154556500Y-82143500D03*
X157096500Y-82143500D03*
D12*
X159636500Y-82143500D03*
%TD*%
D11*
%TO.C,U1*%
X125930500Y-114658500D03*
D12*
X125930500Y-112118500D03*
D11*
X125930500Y-109578500D03*
X173960500Y-121008500D03*
X171420500Y-121008500D03*
D12*
X168880500Y-121008500D03*
D11*
X166340500Y-121008500D03*
X163800500Y-121008500D03*
X161260500Y-121008500D03*
X158720500Y-121008500D03*
D12*
X156180500Y-121008500D03*
D11*
X153640500Y-121008500D03*
X151100500Y-121008500D03*
X148560500Y-121008500D03*
X146020500Y-121008500D03*
D12*
X143480500Y-121008500D03*
D11*
X140940500Y-121008500D03*
X138400500Y-121008500D03*
X135860500Y-121008500D03*
X133320500Y-121008500D03*
D12*
X130780500Y-121008500D03*
D11*
X128240500Y-121008500D03*
X125700500Y-121008500D03*
X125700500Y-103228500D03*
X128240500Y-103228500D03*
D12*
X130780500Y-103228500D03*
D11*
X133320500Y-103228500D03*
X135860500Y-103228500D03*
X138400500Y-103228500D03*
X140940500Y-103228500D03*
D12*
X143480500Y-103228500D03*
D11*
X146020500Y-103228500D03*
X148560500Y-103228500D03*
X151100500Y-103228500D03*
X153640500Y-103228500D03*
D12*
X156180500Y-103228500D03*
D11*
X158720500Y-103228500D03*
X161260500Y-103228500D03*
X163800500Y-103228500D03*
X166340500Y-103228500D03*
D12*
X168880500Y-103228500D03*
D11*
X171420500Y-103228500D03*
X173960500Y-103228500D03*
D13*
X173830500Y-109393500D03*
X173830500Y-114843500D03*
D14*
X170800500Y-109693500D03*
X170800500Y-114543500D03*
%TD*%
D11*
%TO.C,J2*%
X136556500Y-82143500D03*
X139096500Y-82143500D03*
X141636500Y-82143500D03*
D12*
X144176500Y-82143500D03*
%TD*%
D10*
%TO.C,H2*%
X122601700Y-61572500D03*
%TD*%
D11*
%TO.C,J5*%
X127081500Y-132193500D03*
X127081500Y-129653500D03*
X129621500Y-132193500D03*
X129621500Y-129653500D03*
X132161500Y-132193500D03*
X132161500Y-129653500D03*
X134701500Y-132193500D03*
X134701500Y-129653500D03*
X137241500Y-132193500D03*
X137241500Y-129653500D03*
X139781500Y-132193500D03*
X139781500Y-129653500D03*
X142321500Y-132193500D03*
X142321500Y-129653500D03*
X144861500Y-132193500D03*
X144861500Y-129653500D03*
X147401500Y-132193500D03*
X147401500Y-129653500D03*
X149941500Y-132193500D03*
X149941500Y-129653500D03*
X152481500Y-132193500D03*
X152481500Y-129653500D03*
X155021500Y-132193500D03*
X155021500Y-129653500D03*
X157561500Y-132193500D03*
X157561500Y-129653500D03*
X160101500Y-132193500D03*
X160101500Y-129653500D03*
X162641500Y-132193500D03*
X162641500Y-129653500D03*
X165181500Y-132193500D03*
X165181500Y-129653500D03*
X167721500Y-132193500D03*
D12*
X167721500Y-129653500D03*
%TD*%
M02*
