%TF.GenerationSoftware,KiCad,Pcbnew,(6.0.8)*%
%TF.CreationDate,2022-11-01T15:17:05-07:00*%
%TF.ProjectId,RioPicoBridge,52696f50-6963-46f4-9272-696467652e6b,rev?*%
%TF.SameCoordinates,Original*%
%TF.FileFunction,Soldermask,Top*%
%TF.FilePolarity,Negative*%
%FSLAX46Y46*%
G04 Gerber Fmt 4.6, Leading zero omitted, Abs format (unit mm)*
G04 Created by KiCad (PCBNEW (6.0.8)) date 2022-11-01 15:17:05*
%MOMM*%
%LPD*%
G01*
G04 APERTURE LIST*
G04 Aperture macros list*
%AMRoundRect*
0 Rectangle with rounded corners*
0 $1 Rounding radius*
0 $2 $3 $4 $5 $6 $7 $8 $9 X,Y pos of 4 corners*
0 Add a 4 corners polygon primitive as box body*
4,1,4,$2,$3,$4,$5,$6,$7,$8,$9,$2,$3,0*
0 Add four circle primitives for the rounded corners*
1,1,$1+$1,$2,$3*
1,1,$1+$1,$4,$5*
1,1,$1+$1,$6,$7*
1,1,$1+$1,$8,$9*
0 Add four rect primitives between the rounded corners*
20,1,$1+$1,$2,$3,$4,$5,0*
20,1,$1+$1,$4,$5,$6,$7,0*
20,1,$1+$1,$6,$7,$8,$9,0*
20,1,$1+$1,$8,$9,$2,$3,0*%
G04 Aperture macros list end*
%ADD10RoundRect,0.237500X-0.237500X0.287500X-0.237500X-0.287500X0.237500X-0.287500X0.237500X0.287500X0*%
%ADD11RoundRect,0.250000X-0.262500X-0.450000X0.262500X-0.450000X0.262500X0.450000X-0.262500X0.450000X0*%
%ADD12O,1.700000X1.700000*%
%ADD13R,1.700000X1.700000*%
%ADD14C,3.200000*%
%ADD15R,3.500000X1.700000*%
%ADD16R,1.700000X3.500000*%
%ADD17O,1.500000X1.500000*%
%ADD18O,1.800000X1.800000*%
%ADD19RoundRect,0.250001X0.499999X1.449999X-0.499999X1.449999X-0.499999X-1.449999X0.499999X-1.449999X0*%
%ADD20RoundRect,0.250000X0.250000X1.500000X-0.250000X1.500000X-0.250000X-1.500000X0.250000X-1.500000X0*%
G04 APERTURE END LIST*
D10*
%TO.C,D1*%
X51850000Y-69625000D03*
X51850000Y-71375000D03*
%TD*%
D11*
%TO.C,R4*%
X34087500Y-31500000D03*
X35912500Y-31500000D03*
%TD*%
%TO.C,R3*%
X34087500Y-29000000D03*
X35912500Y-29000000D03*
%TD*%
%TO.C,R2*%
X18650000Y-29500000D03*
X20475000Y-29500000D03*
%TD*%
%TO.C,R1*%
X18637500Y-32000000D03*
X20462500Y-32000000D03*
%TD*%
D12*
%TO.C,J5*%
X7985000Y-74050000D03*
X7985000Y-71510000D03*
X10525000Y-74050000D03*
X10525000Y-71510000D03*
X13065000Y-74050000D03*
X13065000Y-71510000D03*
X15605000Y-74050000D03*
X15605000Y-71510000D03*
X18145000Y-74050000D03*
X18145000Y-71510000D03*
X20685000Y-74050000D03*
X20685000Y-71510000D03*
X23225000Y-74050000D03*
X23225000Y-71510000D03*
X25765000Y-74050000D03*
X25765000Y-71510000D03*
X28305000Y-74050000D03*
X28305000Y-71510000D03*
X30845000Y-74050000D03*
X30845000Y-71510000D03*
X33385000Y-74050000D03*
X33385000Y-71510000D03*
X35925000Y-74050000D03*
X35925000Y-71510000D03*
X38465000Y-74050000D03*
X38465000Y-71510000D03*
X41005000Y-74050000D03*
X41005000Y-71510000D03*
X43545000Y-74050000D03*
X43545000Y-71510000D03*
X46085000Y-74050000D03*
X46085000Y-71510000D03*
X48625000Y-74050000D03*
D13*
X48625000Y-71510000D03*
%TD*%
D14*
%TO.C,H2*%
X3505200Y-3429000D03*
%TD*%
%TO.C,H1*%
X53136800Y-3429000D03*
%TD*%
D15*
%TO.C,U1*%
X5934000Y-56515000D03*
D12*
X6834000Y-56515000D03*
D15*
X5934000Y-53975000D03*
D13*
X6834000Y-53975000D03*
D12*
X6834000Y-51435000D03*
D15*
X5934000Y-51435000D03*
D16*
X54864000Y-63765000D03*
D12*
X54864000Y-62865000D03*
X52324000Y-62865000D03*
D16*
X52324000Y-63765000D03*
D13*
X49784000Y-62865000D03*
D16*
X49784000Y-63765000D03*
D12*
X47244000Y-62865000D03*
D16*
X47244000Y-63765000D03*
X44704000Y-63765000D03*
D12*
X44704000Y-62865000D03*
X42164000Y-62865000D03*
D16*
X42164000Y-63765000D03*
D12*
X39624000Y-62865000D03*
D16*
X39624000Y-63765000D03*
D13*
X37084000Y-62865000D03*
D16*
X37084000Y-63765000D03*
X34544000Y-63765000D03*
D12*
X34544000Y-62865000D03*
D16*
X32004000Y-63765000D03*
D12*
X32004000Y-62865000D03*
X29464000Y-62865000D03*
D16*
X29464000Y-63765000D03*
X26924000Y-63765000D03*
D12*
X26924000Y-62865000D03*
D16*
X24384000Y-63765000D03*
D13*
X24384000Y-62865000D03*
D16*
X21844000Y-63765000D03*
D12*
X21844000Y-62865000D03*
X19304000Y-62865000D03*
D16*
X19304000Y-63765000D03*
D12*
X16764000Y-62865000D03*
D16*
X16764000Y-63765000D03*
X14224000Y-63765000D03*
D12*
X14224000Y-62865000D03*
D13*
X11684000Y-62865000D03*
D16*
X11684000Y-63765000D03*
D12*
X9144000Y-62865000D03*
D16*
X9144000Y-63765000D03*
D12*
X6604000Y-62865000D03*
D16*
X6604000Y-63765000D03*
D12*
X6604000Y-45085000D03*
D16*
X6604000Y-44185000D03*
X9144000Y-44185000D03*
D12*
X9144000Y-45085000D03*
D13*
X11684000Y-45085000D03*
D16*
X11684000Y-44185000D03*
D12*
X14224000Y-45085000D03*
D16*
X14224000Y-44185000D03*
D12*
X16764000Y-45085000D03*
D16*
X16764000Y-44185000D03*
X19304000Y-44185000D03*
D12*
X19304000Y-45085000D03*
X21844000Y-45085000D03*
D16*
X21844000Y-44185000D03*
X24384000Y-44185000D03*
D13*
X24384000Y-45085000D03*
D16*
X26924000Y-44185000D03*
D12*
X26924000Y-45085000D03*
X29464000Y-45085000D03*
D16*
X29464000Y-44185000D03*
X32004000Y-44185000D03*
D12*
X32004000Y-45085000D03*
X34544000Y-45085000D03*
D16*
X34544000Y-44185000D03*
X37084000Y-44185000D03*
D13*
X37084000Y-45085000D03*
D12*
X39624000Y-45085000D03*
D16*
X39624000Y-44185000D03*
X42164000Y-44185000D03*
D12*
X42164000Y-45085000D03*
D16*
X44704000Y-44185000D03*
D12*
X44704000Y-45085000D03*
D16*
X47244000Y-44185000D03*
D12*
X47244000Y-45085000D03*
D13*
X49784000Y-45085000D03*
D16*
X49784000Y-44185000D03*
X52324000Y-44185000D03*
D12*
X52324000Y-45085000D03*
D16*
X54864000Y-44185000D03*
D12*
X54864000Y-45085000D03*
D17*
X51704000Y-56400000D03*
X51704000Y-51550000D03*
D18*
X54734000Y-51250000D03*
X54734000Y-56700000D03*
%TD*%
D19*
%TO.C,J4*%
X26350000Y-11100000D03*
X15650000Y-11100000D03*
D20*
X18000000Y-16850000D03*
X20000000Y-16850000D03*
X22000000Y-16850000D03*
X24000000Y-16850000D03*
%TD*%
D19*
%TO.C,J3*%
X41350000Y-11100000D03*
X30650000Y-11100000D03*
D20*
X33000000Y-16850000D03*
X35000000Y-16850000D03*
X37000000Y-16850000D03*
X39000000Y-16850000D03*
%TD*%
D12*
%TO.C,J2*%
X17460000Y-24000000D03*
X20000000Y-24000000D03*
X22540000Y-24000000D03*
D13*
X25080000Y-24000000D03*
%TD*%
D12*
%TO.C,J1*%
X32920000Y-24000000D03*
X35460000Y-24000000D03*
X38000000Y-24000000D03*
D13*
X40540000Y-24000000D03*
%TD*%
M02*
