%TF.GenerationSoftware,KiCad,Pcbnew,(6.0.8)*%
%TF.CreationDate,2022-11-01T15:17:05-07:00*%
%TF.ProjectId,RioPicoBridge,52696f50-6963-46f4-9272-696467652e6b,rev?*%
%TF.SameCoordinates,Original*%
%TF.FileFunction,Legend,Top*%
%TF.FilePolarity,Positive*%
%FSLAX46Y46*%
G04 Gerber Fmt 4.6, Leading zero omitted, Abs format (unit mm)*
G04 Created by KiCad (PCBNEW (6.0.8)) date 2022-11-01 15:17:05*
%MOMM*%
%LPD*%
G01*
G04 APERTURE LIST*
%ADD10C,0.250000*%
%ADD11C,0.300000*%
%ADD12C,0.254000*%
%ADD13C,0.150000*%
%ADD14C,0.120000*%
G04 APERTURE END LIST*
D10*
X22928571Y-34537380D02*
X22595238Y-34061190D01*
X22357142Y-34537380D02*
X22357142Y-33537380D01*
X22738095Y-33537380D01*
X22833333Y-33585000D01*
X22880952Y-33632619D01*
X22928571Y-33727857D01*
X22928571Y-33870714D01*
X22880952Y-33965952D01*
X22833333Y-34013571D01*
X22738095Y-34061190D01*
X22357142Y-34061190D01*
X23309523Y-34251666D02*
X23785714Y-34251666D01*
X23214285Y-34537380D02*
X23547619Y-33537380D01*
X23880952Y-34537380D01*
X24214285Y-34537380D02*
X24214285Y-33537380D01*
X24214285Y-34013571D02*
X24785714Y-34013571D01*
X24785714Y-34537380D02*
X24785714Y-33537380D01*
X25261904Y-34013571D02*
X25595238Y-34013571D01*
X25738095Y-34537380D02*
X25261904Y-34537380D01*
X25261904Y-33537380D01*
X25738095Y-33537380D01*
X26166666Y-34013571D02*
X26500000Y-34013571D01*
X26642857Y-34537380D02*
X26166666Y-34537380D01*
X26166666Y-33537380D01*
X26642857Y-33537380D01*
X27547619Y-34537380D02*
X27071428Y-34537380D01*
X27071428Y-33537380D01*
X29214285Y-34537380D02*
X28880952Y-34061190D01*
X28642857Y-34537380D02*
X28642857Y-33537380D01*
X29023809Y-33537380D01*
X29119047Y-33585000D01*
X29166666Y-33632619D01*
X29214285Y-33727857D01*
X29214285Y-33870714D01*
X29166666Y-33965952D01*
X29119047Y-34013571D01*
X29023809Y-34061190D01*
X28642857Y-34061190D01*
X29642857Y-34442142D02*
X29690476Y-34489761D01*
X29642857Y-34537380D01*
X29595238Y-34489761D01*
X29642857Y-34442142D01*
X29642857Y-34537380D01*
X20761904Y-35147380D02*
X20952380Y-35147380D01*
X21047619Y-35195000D01*
X21142857Y-35290238D01*
X21190476Y-35480714D01*
X21190476Y-35814047D01*
X21142857Y-36004523D01*
X21047619Y-36099761D01*
X20952380Y-36147380D01*
X20761904Y-36147380D01*
X20666666Y-36099761D01*
X20571428Y-36004523D01*
X20523809Y-35814047D01*
X20523809Y-35480714D01*
X20571428Y-35290238D01*
X20666666Y-35195000D01*
X20761904Y-35147380D01*
X22190476Y-36052142D02*
X22142857Y-36099761D01*
X22000000Y-36147380D01*
X21904761Y-36147380D01*
X21761904Y-36099761D01*
X21666666Y-36004523D01*
X21619047Y-35909285D01*
X21571428Y-35718809D01*
X21571428Y-35575952D01*
X21619047Y-35385476D01*
X21666666Y-35290238D01*
X21761904Y-35195000D01*
X21904761Y-35147380D01*
X22000000Y-35147380D01*
X22142857Y-35195000D01*
X22190476Y-35242619D01*
X22476190Y-35147380D02*
X23047619Y-35147380D01*
X22761904Y-36147380D02*
X22761904Y-35147380D01*
X23571428Y-35147380D02*
X23761904Y-35147380D01*
X23857142Y-35195000D01*
X23952380Y-35290238D01*
X24000000Y-35480714D01*
X24000000Y-35814047D01*
X23952380Y-36004523D01*
X23857142Y-36099761D01*
X23761904Y-36147380D01*
X23571428Y-36147380D01*
X23476190Y-36099761D01*
X23380952Y-36004523D01*
X23333333Y-35814047D01*
X23333333Y-35480714D01*
X23380952Y-35290238D01*
X23476190Y-35195000D01*
X23571428Y-35147380D01*
X24761904Y-35623571D02*
X24904761Y-35671190D01*
X24952380Y-35718809D01*
X25000000Y-35814047D01*
X25000000Y-35956904D01*
X24952380Y-36052142D01*
X24904761Y-36099761D01*
X24809523Y-36147380D01*
X24428571Y-36147380D01*
X24428571Y-35147380D01*
X24761904Y-35147380D01*
X24857142Y-35195000D01*
X24904761Y-35242619D01*
X24952380Y-35337857D01*
X24952380Y-35433095D01*
X24904761Y-35528333D01*
X24857142Y-35575952D01*
X24761904Y-35623571D01*
X24428571Y-35623571D01*
X25428571Y-35623571D02*
X25761904Y-35623571D01*
X25904761Y-36147380D02*
X25428571Y-36147380D01*
X25428571Y-35147380D01*
X25904761Y-35147380D01*
X26904761Y-36147380D02*
X26571428Y-35671190D01*
X26333333Y-36147380D02*
X26333333Y-35147380D01*
X26714285Y-35147380D01*
X26809523Y-35195000D01*
X26857142Y-35242619D01*
X26904761Y-35337857D01*
X26904761Y-35480714D01*
X26857142Y-35575952D01*
X26809523Y-35623571D01*
X26714285Y-35671190D01*
X26333333Y-35671190D01*
X28047619Y-35242619D02*
X28095238Y-35195000D01*
X28190476Y-35147380D01*
X28428571Y-35147380D01*
X28523809Y-35195000D01*
X28571428Y-35242619D01*
X28619047Y-35337857D01*
X28619047Y-35433095D01*
X28571428Y-35575952D01*
X28000000Y-36147380D01*
X28619047Y-36147380D01*
X29238095Y-35147380D02*
X29333333Y-35147380D01*
X29428571Y-35195000D01*
X29476190Y-35242619D01*
X29523809Y-35337857D01*
X29571428Y-35528333D01*
X29571428Y-35766428D01*
X29523809Y-35956904D01*
X29476190Y-36052142D01*
X29428571Y-36099761D01*
X29333333Y-36147380D01*
X29238095Y-36147380D01*
X29142857Y-36099761D01*
X29095238Y-36052142D01*
X29047619Y-35956904D01*
X29000000Y-35766428D01*
X29000000Y-35528333D01*
X29047619Y-35337857D01*
X29095238Y-35242619D01*
X29142857Y-35195000D01*
X29238095Y-35147380D01*
X29952380Y-35242619D02*
X30000000Y-35195000D01*
X30095238Y-35147380D01*
X30333333Y-35147380D01*
X30428571Y-35195000D01*
X30476190Y-35242619D01*
X30523809Y-35337857D01*
X30523809Y-35433095D01*
X30476190Y-35575952D01*
X29904761Y-36147380D01*
X30523809Y-36147380D01*
X30904761Y-35242619D02*
X30952380Y-35195000D01*
X31047619Y-35147380D01*
X31285714Y-35147380D01*
X31380952Y-35195000D01*
X31428571Y-35242619D01*
X31476190Y-35337857D01*
X31476190Y-35433095D01*
X31428571Y-35575952D01*
X30857142Y-36147380D01*
X31476190Y-36147380D01*
X19500000Y-38843571D02*
X19166666Y-38843571D01*
X19166666Y-39367380D02*
X19166666Y-38367380D01*
X19642857Y-38367380D01*
X20214285Y-38367380D02*
X20404761Y-38367380D01*
X20500000Y-38415000D01*
X20595238Y-38510238D01*
X20642857Y-38700714D01*
X20642857Y-39034047D01*
X20595238Y-39224523D01*
X20500000Y-39319761D01*
X20404761Y-39367380D01*
X20214285Y-39367380D01*
X20119047Y-39319761D01*
X20023809Y-39224523D01*
X19976190Y-39034047D01*
X19976190Y-38700714D01*
X20023809Y-38510238D01*
X20119047Y-38415000D01*
X20214285Y-38367380D01*
X21642857Y-39367380D02*
X21309523Y-38891190D01*
X21071428Y-39367380D02*
X21071428Y-38367380D01*
X21452380Y-38367380D01*
X21547619Y-38415000D01*
X21595238Y-38462619D01*
X21642857Y-38557857D01*
X21642857Y-38700714D01*
X21595238Y-38795952D01*
X21547619Y-38843571D01*
X21452380Y-38891190D01*
X21071428Y-38891190D01*
X23404761Y-39367380D02*
X23071428Y-38891190D01*
X22833333Y-39367380D02*
X22833333Y-38367380D01*
X23214285Y-38367380D01*
X23309523Y-38415000D01*
X23357142Y-38462619D01*
X23404761Y-38557857D01*
X23404761Y-38700714D01*
X23357142Y-38795952D01*
X23309523Y-38843571D01*
X23214285Y-38891190D01*
X22833333Y-38891190D01*
X24023809Y-38367380D02*
X24214285Y-38367380D01*
X24309523Y-38415000D01*
X24404761Y-38510238D01*
X24452380Y-38700714D01*
X24452380Y-39034047D01*
X24404761Y-39224523D01*
X24309523Y-39319761D01*
X24214285Y-39367380D01*
X24023809Y-39367380D01*
X23928571Y-39319761D01*
X23833333Y-39224523D01*
X23785714Y-39034047D01*
X23785714Y-38700714D01*
X23833333Y-38510238D01*
X23928571Y-38415000D01*
X24023809Y-38367380D01*
X25214285Y-38843571D02*
X25357142Y-38891190D01*
X25404761Y-38938809D01*
X25452380Y-39034047D01*
X25452380Y-39176904D01*
X25404761Y-39272142D01*
X25357142Y-39319761D01*
X25261904Y-39367380D01*
X24880952Y-39367380D01*
X24880952Y-38367380D01*
X25214285Y-38367380D01*
X25309523Y-38415000D01*
X25357142Y-38462619D01*
X25404761Y-38557857D01*
X25404761Y-38653095D01*
X25357142Y-38748333D01*
X25309523Y-38795952D01*
X25214285Y-38843571D01*
X24880952Y-38843571D01*
X26071428Y-38367380D02*
X26261904Y-38367380D01*
X26357142Y-38415000D01*
X26452380Y-38510238D01*
X26500000Y-38700714D01*
X26500000Y-39034047D01*
X26452380Y-39224523D01*
X26357142Y-39319761D01*
X26261904Y-39367380D01*
X26071428Y-39367380D01*
X25976190Y-39319761D01*
X25880952Y-39224523D01*
X25833333Y-39034047D01*
X25833333Y-38700714D01*
X25880952Y-38510238D01*
X25976190Y-38415000D01*
X26071428Y-38367380D01*
X27500000Y-39367380D02*
X27166666Y-38891190D01*
X26928571Y-39367380D02*
X26928571Y-38367380D01*
X27309523Y-38367380D01*
X27404761Y-38415000D01*
X27452380Y-38462619D01*
X27500000Y-38557857D01*
X27500000Y-38700714D01*
X27452380Y-38795952D01*
X27404761Y-38843571D01*
X27309523Y-38891190D01*
X26928571Y-38891190D01*
X27928571Y-39367380D02*
X27928571Y-38367380D01*
X28595238Y-38367380D02*
X28785714Y-38367380D01*
X28880952Y-38415000D01*
X28976190Y-38510238D01*
X29023809Y-38700714D01*
X29023809Y-39034047D01*
X28976190Y-39224523D01*
X28880952Y-39319761D01*
X28785714Y-39367380D01*
X28595238Y-39367380D01*
X28500000Y-39319761D01*
X28404761Y-39224523D01*
X28357142Y-39034047D01*
X28357142Y-38700714D01*
X28404761Y-38510238D01*
X28500000Y-38415000D01*
X28595238Y-38367380D01*
X30214285Y-39367380D02*
X30214285Y-38367380D01*
X30547619Y-39081666D01*
X30880952Y-38367380D01*
X30880952Y-39367380D01*
X31261904Y-38367380D02*
X31928571Y-39367380D01*
X31928571Y-38367380D02*
X31261904Y-39367380D01*
X32309523Y-39367380D02*
X32309523Y-38367380D01*
X32690476Y-38367380D01*
X32785714Y-38415000D01*
X32833333Y-38462619D01*
X32880952Y-38557857D01*
X32880952Y-38700714D01*
X32833333Y-38795952D01*
X32785714Y-38843571D01*
X32690476Y-38891190D01*
X32309523Y-38891190D01*
D11*
X3571428Y-24607142D02*
X3785714Y-24678571D01*
X4142857Y-24678571D01*
X4285714Y-24607142D01*
X4357142Y-24535714D01*
X4428571Y-24392857D01*
X4428571Y-24250000D01*
X4357142Y-24107142D01*
X4285714Y-24035714D01*
X4142857Y-23964285D01*
X3857142Y-23892857D01*
X3714285Y-23821428D01*
X3642857Y-23750000D01*
X3571428Y-23607142D01*
X3571428Y-23464285D01*
X3642857Y-23321428D01*
X3714285Y-23250000D01*
X3857142Y-23178571D01*
X4214285Y-23178571D01*
X4428571Y-23250000D01*
X5071428Y-23892857D02*
X5571428Y-23892857D01*
X5785714Y-24678571D02*
X5071428Y-24678571D01*
X5071428Y-23178571D01*
X5785714Y-23178571D01*
X6428571Y-24678571D02*
X6428571Y-23178571D01*
X7285714Y-24678571D01*
X7285714Y-23178571D01*
X7928571Y-24607142D02*
X8142857Y-24678571D01*
X8500000Y-24678571D01*
X8642857Y-24607142D01*
X8714285Y-24535714D01*
X8785714Y-24392857D01*
X8785714Y-24250000D01*
X8714285Y-24107142D01*
X8642857Y-24035714D01*
X8500000Y-23964285D01*
X8214285Y-23892857D01*
X8071428Y-23821428D01*
X8000000Y-23750000D01*
X7928571Y-23607142D01*
X7928571Y-23464285D01*
X8000000Y-23321428D01*
X8071428Y-23250000D01*
X8214285Y-23178571D01*
X8571428Y-23178571D01*
X8785714Y-23250000D01*
X9714285Y-23178571D02*
X10000000Y-23178571D01*
X10142857Y-23250000D01*
X10285714Y-23392857D01*
X10357142Y-23678571D01*
X10357142Y-24178571D01*
X10285714Y-24464285D01*
X10142857Y-24607142D01*
X10000000Y-24678571D01*
X9714285Y-24678571D01*
X9571428Y-24607142D01*
X9428571Y-24464285D01*
X9357142Y-24178571D01*
X9357142Y-23678571D01*
X9428571Y-23392857D01*
X9571428Y-23250000D01*
X9714285Y-23178571D01*
X11857142Y-24678571D02*
X11357142Y-23964285D01*
X11000000Y-24678571D02*
X11000000Y-23178571D01*
X11571428Y-23178571D01*
X11714285Y-23250000D01*
X11785714Y-23321428D01*
X11857142Y-23464285D01*
X11857142Y-23678571D01*
X11785714Y-23821428D01*
X11714285Y-23892857D01*
X11571428Y-23964285D01*
X11000000Y-23964285D01*
X13571428Y-23321428D02*
X13642857Y-23250000D01*
X13785714Y-23178571D01*
X14142857Y-23178571D01*
X14285714Y-23250000D01*
X14357142Y-23321428D01*
X14428571Y-23464285D01*
X14428571Y-23607142D01*
X14357142Y-23821428D01*
X13499999Y-24678571D01*
X14428571Y-24678571D01*
X43571428Y-24607142D02*
X43785714Y-24678571D01*
X44142857Y-24678571D01*
X44285714Y-24607142D01*
X44357142Y-24535714D01*
X44428571Y-24392857D01*
X44428571Y-24250000D01*
X44357142Y-24107142D01*
X44285714Y-24035714D01*
X44142857Y-23964285D01*
X43857142Y-23892857D01*
X43714285Y-23821428D01*
X43642857Y-23750000D01*
X43571428Y-23607142D01*
X43571428Y-23464285D01*
X43642857Y-23321428D01*
X43714285Y-23250000D01*
X43857142Y-23178571D01*
X44214285Y-23178571D01*
X44428571Y-23250000D01*
X45071428Y-23892857D02*
X45571428Y-23892857D01*
X45785714Y-24678571D02*
X45071428Y-24678571D01*
X45071428Y-23178571D01*
X45785714Y-23178571D01*
X46428571Y-24678571D02*
X46428571Y-23178571D01*
X47285714Y-24678571D01*
X47285714Y-23178571D01*
X47928571Y-24607142D02*
X48142857Y-24678571D01*
X48500000Y-24678571D01*
X48642857Y-24607142D01*
X48714285Y-24535714D01*
X48785714Y-24392857D01*
X48785714Y-24250000D01*
X48714285Y-24107142D01*
X48642857Y-24035714D01*
X48500000Y-23964285D01*
X48214285Y-23892857D01*
X48071428Y-23821428D01*
X48000000Y-23750000D01*
X47928571Y-23607142D01*
X47928571Y-23464285D01*
X48000000Y-23321428D01*
X48071428Y-23250000D01*
X48214285Y-23178571D01*
X48571428Y-23178571D01*
X48785714Y-23250000D01*
X49714285Y-23178571D02*
X50000000Y-23178571D01*
X50142857Y-23250000D01*
X50285714Y-23392857D01*
X50357142Y-23678571D01*
X50357142Y-24178571D01*
X50285714Y-24464285D01*
X50142857Y-24607142D01*
X50000000Y-24678571D01*
X49714285Y-24678571D01*
X49571428Y-24607142D01*
X49428571Y-24464285D01*
X49357142Y-24178571D01*
X49357142Y-23678571D01*
X49428571Y-23392857D01*
X49571428Y-23250000D01*
X49714285Y-23178571D01*
X51857142Y-24678571D02*
X51357142Y-23964285D01*
X51000000Y-24678571D02*
X51000000Y-23178571D01*
X51571428Y-23178571D01*
X51714285Y-23250000D01*
X51785714Y-23321428D01*
X51857142Y-23464285D01*
X51857142Y-23678571D01*
X51785714Y-23821428D01*
X51714285Y-23892857D01*
X51571428Y-23964285D01*
X51000000Y-23964285D01*
X54428571Y-24678571D02*
X53571428Y-24678571D01*
X53999999Y-24678571D02*
X53999999Y-23178571D01*
X53857142Y-23392857D01*
X53714285Y-23535714D01*
X53571428Y-23607142D01*
D12*
X31315238Y-26492000D02*
X31218476Y-26443619D01*
X31073333Y-26443619D01*
X30928190Y-26492000D01*
X30831428Y-26588761D01*
X30783047Y-26685523D01*
X30734666Y-26879047D01*
X30734666Y-27024190D01*
X30783047Y-27217714D01*
X30831428Y-27314476D01*
X30928190Y-27411238D01*
X31073333Y-27459619D01*
X31170095Y-27459619D01*
X31315238Y-27411238D01*
X31363619Y-27362857D01*
X31363619Y-27024190D01*
X31170095Y-27024190D01*
X31799047Y-27459619D02*
X31799047Y-26443619D01*
X32379619Y-27459619D01*
X32379619Y-26443619D01*
X32863428Y-27459619D02*
X32863428Y-26443619D01*
X33105333Y-26443619D01*
X33250476Y-26492000D01*
X33347238Y-26588761D01*
X33395619Y-26685523D01*
X33444000Y-26879047D01*
X33444000Y-27024190D01*
X33395619Y-27217714D01*
X33347238Y-27314476D01*
X33250476Y-27411238D01*
X33105333Y-27459619D01*
X32863428Y-27459619D01*
X34556761Y-26443619D02*
X35185714Y-26443619D01*
X34847047Y-26830666D01*
X34992190Y-26830666D01*
X35088952Y-26879047D01*
X35137333Y-26927428D01*
X35185714Y-27024190D01*
X35185714Y-27266095D01*
X35137333Y-27362857D01*
X35088952Y-27411238D01*
X34992190Y-27459619D01*
X34701904Y-27459619D01*
X34605142Y-27411238D01*
X34556761Y-27362857D01*
X35476000Y-26443619D02*
X35814666Y-27459619D01*
X36153333Y-26443619D01*
X37217714Y-27411238D02*
X37362857Y-27459619D01*
X37604761Y-27459619D01*
X37701523Y-27411238D01*
X37749904Y-27362857D01*
X37798285Y-27266095D01*
X37798285Y-27169333D01*
X37749904Y-27072571D01*
X37701523Y-27024190D01*
X37604761Y-26975809D01*
X37411238Y-26927428D01*
X37314476Y-26879047D01*
X37266095Y-26830666D01*
X37217714Y-26733904D01*
X37217714Y-26637142D01*
X37266095Y-26540380D01*
X37314476Y-26492000D01*
X37411238Y-26443619D01*
X37653142Y-26443619D01*
X37798285Y-26492000D01*
X38233714Y-27459619D02*
X38233714Y-26443619D01*
X38475619Y-26443619D01*
X38620761Y-26492000D01*
X38717523Y-26588761D01*
X38765904Y-26685523D01*
X38814285Y-26879047D01*
X38814285Y-27024190D01*
X38765904Y-27217714D01*
X38717523Y-27314476D01*
X38620761Y-27411238D01*
X38475619Y-27459619D01*
X38233714Y-27459619D01*
X39201333Y-27169333D02*
X39685142Y-27169333D01*
X39104571Y-27459619D02*
X39443238Y-26443619D01*
X39781904Y-27459619D01*
X40846285Y-27411238D02*
X40991428Y-27459619D01*
X41233333Y-27459619D01*
X41330095Y-27411238D01*
X41378476Y-27362857D01*
X41426857Y-27266095D01*
X41426857Y-27169333D01*
X41378476Y-27072571D01*
X41330095Y-27024190D01*
X41233333Y-26975809D01*
X41039809Y-26927428D01*
X40943047Y-26879047D01*
X40894666Y-26830666D01*
X40846285Y-26733904D01*
X40846285Y-26637142D01*
X40894666Y-26540380D01*
X40943047Y-26492000D01*
X41039809Y-26443619D01*
X41281714Y-26443619D01*
X41426857Y-26492000D01*
X42442857Y-27362857D02*
X42394476Y-27411238D01*
X42249333Y-27459619D01*
X42152571Y-27459619D01*
X42007428Y-27411238D01*
X41910666Y-27314476D01*
X41862285Y-27217714D01*
X41813904Y-27024190D01*
X41813904Y-26879047D01*
X41862285Y-26685523D01*
X41910666Y-26588761D01*
X42007428Y-26492000D01*
X42152571Y-26443619D01*
X42249333Y-26443619D01*
X42394476Y-26492000D01*
X42442857Y-26540380D01*
X43362095Y-27459619D02*
X42878285Y-27459619D01*
X42878285Y-26443619D01*
X15315238Y-26492000D02*
X15218476Y-26443619D01*
X15073333Y-26443619D01*
X14928190Y-26492000D01*
X14831428Y-26588761D01*
X14783047Y-26685523D01*
X14734666Y-26879047D01*
X14734666Y-27024190D01*
X14783047Y-27217714D01*
X14831428Y-27314476D01*
X14928190Y-27411238D01*
X15073333Y-27459619D01*
X15170095Y-27459619D01*
X15315238Y-27411238D01*
X15363619Y-27362857D01*
X15363619Y-27024190D01*
X15170095Y-27024190D01*
X15799047Y-27459619D02*
X15799047Y-26443619D01*
X16379619Y-27459619D01*
X16379619Y-26443619D01*
X16863428Y-27459619D02*
X16863428Y-26443619D01*
X17105333Y-26443619D01*
X17250476Y-26492000D01*
X17347238Y-26588761D01*
X17395619Y-26685523D01*
X17444000Y-26879047D01*
X17444000Y-27024190D01*
X17395619Y-27217714D01*
X17347238Y-27314476D01*
X17250476Y-27411238D01*
X17105333Y-27459619D01*
X16863428Y-27459619D01*
X18556761Y-26443619D02*
X19185714Y-26443619D01*
X18847047Y-26830666D01*
X18992190Y-26830666D01*
X19088952Y-26879047D01*
X19137333Y-26927428D01*
X19185714Y-27024190D01*
X19185714Y-27266095D01*
X19137333Y-27362857D01*
X19088952Y-27411238D01*
X18992190Y-27459619D01*
X18701904Y-27459619D01*
X18605142Y-27411238D01*
X18556761Y-27362857D01*
X19476000Y-26443619D02*
X19814666Y-27459619D01*
X20153333Y-26443619D01*
X21217714Y-27411238D02*
X21362857Y-27459619D01*
X21604761Y-27459619D01*
X21701523Y-27411238D01*
X21749904Y-27362857D01*
X21798285Y-27266095D01*
X21798285Y-27169333D01*
X21749904Y-27072571D01*
X21701523Y-27024190D01*
X21604761Y-26975809D01*
X21411238Y-26927428D01*
X21314476Y-26879047D01*
X21266095Y-26830666D01*
X21217714Y-26733904D01*
X21217714Y-26637142D01*
X21266095Y-26540380D01*
X21314476Y-26492000D01*
X21411238Y-26443619D01*
X21653142Y-26443619D01*
X21798285Y-26492000D01*
X22233714Y-27459619D02*
X22233714Y-26443619D01*
X22475619Y-26443619D01*
X22620761Y-26492000D01*
X22717523Y-26588761D01*
X22765904Y-26685523D01*
X22814285Y-26879047D01*
X22814285Y-27024190D01*
X22765904Y-27217714D01*
X22717523Y-27314476D01*
X22620761Y-27411238D01*
X22475619Y-27459619D01*
X22233714Y-27459619D01*
X23201333Y-27169333D02*
X23685142Y-27169333D01*
X23104571Y-27459619D02*
X23443238Y-26443619D01*
X23781904Y-27459619D01*
X24846285Y-27411238D02*
X24991428Y-27459619D01*
X25233333Y-27459619D01*
X25330095Y-27411238D01*
X25378476Y-27362857D01*
X25426857Y-27266095D01*
X25426857Y-27169333D01*
X25378476Y-27072571D01*
X25330095Y-27024190D01*
X25233333Y-26975809D01*
X25039809Y-26927428D01*
X24943047Y-26879047D01*
X24894666Y-26830666D01*
X24846285Y-26733904D01*
X24846285Y-26637142D01*
X24894666Y-26540380D01*
X24943047Y-26492000D01*
X25039809Y-26443619D01*
X25281714Y-26443619D01*
X25426857Y-26492000D01*
X26442857Y-27362857D02*
X26394476Y-27411238D01*
X26249333Y-27459619D01*
X26152571Y-27459619D01*
X26007428Y-27411238D01*
X25910666Y-27314476D01*
X25862285Y-27217714D01*
X25813904Y-27024190D01*
X25813904Y-26879047D01*
X25862285Y-26685523D01*
X25910666Y-26588761D01*
X26007428Y-26492000D01*
X26152571Y-26443619D01*
X26249333Y-26443619D01*
X26394476Y-26492000D01*
X26442857Y-26540380D01*
X27362095Y-27459619D02*
X26878285Y-27459619D01*
X26878285Y-26443619D01*
D13*
%TO.C,D1*%
X53732380Y-71238095D02*
X52732380Y-71238095D01*
X52732380Y-71000000D01*
X52780000Y-70857142D01*
X52875238Y-70761904D01*
X52970476Y-70714285D01*
X53160952Y-70666666D01*
X53303809Y-70666666D01*
X53494285Y-70714285D01*
X53589523Y-70761904D01*
X53684761Y-70857142D01*
X53732380Y-71000000D01*
X53732380Y-71238095D01*
X53732380Y-69714285D02*
X53732380Y-70285714D01*
X53732380Y-70000000D02*
X52732380Y-70000000D01*
X52875238Y-70095238D01*
X52970476Y-70190476D01*
X53018095Y-70285714D01*
%TO.C,R4*%
X32333333Y-31952380D02*
X32000000Y-31476190D01*
X31761904Y-31952380D02*
X31761904Y-30952380D01*
X32142857Y-30952380D01*
X32238095Y-31000000D01*
X32285714Y-31047619D01*
X32333333Y-31142857D01*
X32333333Y-31285714D01*
X32285714Y-31380952D01*
X32238095Y-31428571D01*
X32142857Y-31476190D01*
X31761904Y-31476190D01*
X33190476Y-31285714D02*
X33190476Y-31952380D01*
X32952380Y-30904761D02*
X32714285Y-31619047D01*
X33333333Y-31619047D01*
%TO.C,R3*%
X31833333Y-29452380D02*
X31500000Y-28976190D01*
X31261904Y-29452380D02*
X31261904Y-28452380D01*
X31642857Y-28452380D01*
X31738095Y-28500000D01*
X31785714Y-28547619D01*
X31833333Y-28642857D01*
X31833333Y-28785714D01*
X31785714Y-28880952D01*
X31738095Y-28928571D01*
X31642857Y-28976190D01*
X31261904Y-28976190D01*
X32166666Y-28452380D02*
X32785714Y-28452380D01*
X32452380Y-28833333D01*
X32595238Y-28833333D01*
X32690476Y-28880952D01*
X32738095Y-28928571D01*
X32785714Y-29023809D01*
X32785714Y-29261904D01*
X32738095Y-29357142D01*
X32690476Y-29404761D01*
X32595238Y-29452380D01*
X32309523Y-29452380D01*
X32214285Y-29404761D01*
X32166666Y-29357142D01*
%TO.C,R2*%
X16333333Y-29902380D02*
X16000000Y-29426190D01*
X15761904Y-29902380D02*
X15761904Y-28902380D01*
X16142857Y-28902380D01*
X16238095Y-28950000D01*
X16285714Y-28997619D01*
X16333333Y-29092857D01*
X16333333Y-29235714D01*
X16285714Y-29330952D01*
X16238095Y-29378571D01*
X16142857Y-29426190D01*
X15761904Y-29426190D01*
X16714285Y-28997619D02*
X16761904Y-28950000D01*
X16857142Y-28902380D01*
X17095238Y-28902380D01*
X17190476Y-28950000D01*
X17238095Y-28997619D01*
X17285714Y-29092857D01*
X17285714Y-29188095D01*
X17238095Y-29330952D01*
X16666666Y-29902380D01*
X17285714Y-29902380D01*
%TO.C,R1*%
X16333333Y-32452380D02*
X16000000Y-31976190D01*
X15761904Y-32452380D02*
X15761904Y-31452380D01*
X16142857Y-31452380D01*
X16238095Y-31500000D01*
X16285714Y-31547619D01*
X16333333Y-31642857D01*
X16333333Y-31785714D01*
X16285714Y-31880952D01*
X16238095Y-31928571D01*
X16142857Y-31976190D01*
X15761904Y-31976190D01*
X17285714Y-32452380D02*
X16714285Y-32452380D01*
X17000000Y-32452380D02*
X17000000Y-31452380D01*
X16904761Y-31595238D01*
X16809523Y-31690476D01*
X16714285Y-31738095D01*
%TO.C,H2*%
X2743295Y318619D02*
X2743295Y1318619D01*
X2743295Y842428D02*
X3314723Y842428D01*
X3314723Y318619D02*
X3314723Y1318619D01*
X3743295Y1223380D02*
X3790914Y1271000D01*
X3886152Y1318619D01*
X4124247Y1318619D01*
X4219485Y1271000D01*
X4267104Y1223380D01*
X4314723Y1128142D01*
X4314723Y1032904D01*
X4267104Y890047D01*
X3695676Y318619D01*
X4314723Y318619D01*
%TO.C,H1*%
X52374895Y318619D02*
X52374895Y1318619D01*
X52374895Y842428D02*
X52946323Y842428D01*
X52946323Y318619D02*
X52946323Y1318619D01*
X53946323Y318619D02*
X53374895Y318619D01*
X53660609Y318619D02*
X53660609Y1318619D01*
X53565371Y1175761D01*
X53470133Y1080523D01*
X53374895Y1032904D01*
%TO.C,U1*%
X30186380Y-54736904D02*
X30995904Y-54736904D01*
X31091142Y-54689285D01*
X31138761Y-54641666D01*
X31186380Y-54546428D01*
X31186380Y-54355952D01*
X31138761Y-54260714D01*
X31091142Y-54213095D01*
X30995904Y-54165476D01*
X30186380Y-54165476D01*
X31186380Y-53165476D02*
X31186380Y-53736904D01*
X31186380Y-53451190D02*
X30186380Y-53451190D01*
X30329238Y-53546428D01*
X30424476Y-53641666D01*
X30472095Y-53736904D01*
X34924592Y-67985277D02*
X34951529Y-68066089D01*
X35032341Y-68146902D01*
X35140091Y-68200776D01*
X35247841Y-68200776D01*
X35328653Y-68173839D01*
X35463340Y-68093027D01*
X35544152Y-68012215D01*
X35624964Y-67877528D01*
X35651902Y-67796715D01*
X35651902Y-67688966D01*
X35598027Y-67581216D01*
X35544152Y-67527341D01*
X35436402Y-67473467D01*
X35382528Y-67473467D01*
X35193966Y-67662028D01*
X35301715Y-67769778D01*
X35193966Y-67177155D02*
X34628280Y-67742841D01*
X34412781Y-67527341D01*
X34385844Y-67446529D01*
X34385844Y-67392654D01*
X34412781Y-67311842D01*
X34493593Y-67231030D01*
X34574406Y-67204093D01*
X34628280Y-67204093D01*
X34709093Y-67231030D01*
X34924592Y-67446529D01*
X34143407Y-67150218D02*
X34089532Y-67150218D01*
X34008720Y-67123280D01*
X33874033Y-66988593D01*
X33847096Y-66907781D01*
X33847096Y-66853906D01*
X33874033Y-66773094D01*
X33927908Y-66719219D01*
X34035658Y-66665345D01*
X34682155Y-66665345D01*
X34331969Y-66315158D01*
X33577722Y-66692282D02*
X33200598Y-66315158D01*
X34008720Y-65991910D01*
X30137435Y-67136624D02*
X30056622Y-67594560D01*
X30460683Y-67459873D02*
X29894998Y-68025558D01*
X29679499Y-67810059D01*
X29652561Y-67729247D01*
X29652561Y-67675372D01*
X29679499Y-67594560D01*
X29760311Y-67513748D01*
X29841123Y-67486810D01*
X29894998Y-67486810D01*
X29975810Y-67513748D01*
X30191309Y-67729247D01*
X29329312Y-67459873D02*
X29787248Y-67001937D01*
X29814186Y-66921125D01*
X29814186Y-66867250D01*
X29787248Y-66786438D01*
X29679499Y-66678688D01*
X29598687Y-66651751D01*
X29544812Y-66651751D01*
X29463999Y-66678688D01*
X29006064Y-67136624D01*
X29302375Y-66301564D02*
X28736690Y-66867250D01*
X28979126Y-65978316D01*
X28413441Y-66544001D01*
X22234592Y-41877277D02*
X22261529Y-41958089D01*
X22342341Y-42038902D01*
X22450091Y-42092776D01*
X22557841Y-42092776D01*
X22638653Y-42065839D01*
X22773340Y-41985027D01*
X22854152Y-41904215D01*
X22934964Y-41769528D01*
X22961902Y-41688715D01*
X22961902Y-41580966D01*
X22908027Y-41473216D01*
X22854152Y-41419341D01*
X22746402Y-41365467D01*
X22692528Y-41365467D01*
X22503966Y-41554028D01*
X22611715Y-41661778D01*
X22503966Y-41069155D02*
X21938280Y-41634841D01*
X21722781Y-41419341D01*
X21695844Y-41338529D01*
X21695844Y-41284654D01*
X21722781Y-41203842D01*
X21803593Y-41123030D01*
X21884406Y-41096093D01*
X21938280Y-41096093D01*
X22019093Y-41123030D01*
X22234592Y-41338529D01*
X21641969Y-40207158D02*
X21965218Y-40530407D01*
X21803593Y-40368783D02*
X21237908Y-40934468D01*
X21372595Y-40907531D01*
X21480345Y-40907531D01*
X21561157Y-40934468D01*
X20726097Y-40422658D02*
X20672223Y-40368783D01*
X20645285Y-40287971D01*
X20645285Y-40234096D01*
X20672223Y-40153284D01*
X20753035Y-40018597D01*
X20887722Y-39883910D01*
X21022409Y-39803097D01*
X21103221Y-39776160D01*
X21157096Y-39776160D01*
X21237908Y-39803097D01*
X21291783Y-39856972D01*
X21318720Y-39937784D01*
X21318720Y-39991659D01*
X21291783Y-40072471D01*
X21210971Y-40207158D01*
X21076284Y-40341845D01*
X20941597Y-40422658D01*
X20860784Y-40449595D01*
X20806910Y-40449595D01*
X20726097Y-40422658D01*
X52455218Y-41761903D02*
X52482155Y-41842715D01*
X52562967Y-41923528D01*
X52670717Y-41977402D01*
X52778467Y-41977402D01*
X52859279Y-41950465D01*
X52993966Y-41869653D01*
X53074778Y-41788841D01*
X53155590Y-41654154D01*
X53182528Y-41573341D01*
X53182528Y-41465592D01*
X53128653Y-41357842D01*
X53074778Y-41303967D01*
X52967028Y-41250093D01*
X52913154Y-41250093D01*
X52724592Y-41438654D01*
X52832341Y-41546404D01*
X52724592Y-40953781D02*
X52158906Y-41519467D01*
X51943407Y-41303967D01*
X51916470Y-41223155D01*
X51916470Y-41169280D01*
X51943407Y-41088468D01*
X52024219Y-41007656D01*
X52105032Y-40980719D01*
X52158906Y-40980719D01*
X52239719Y-41007656D01*
X52455218Y-41223155D01*
X51862595Y-40091784D02*
X52185844Y-40415033D01*
X52024219Y-40253409D02*
X51458534Y-40819094D01*
X51593221Y-40792157D01*
X51700971Y-40792157D01*
X51781783Y-40819094D01*
X17154592Y-41731277D02*
X17181529Y-41812089D01*
X17262341Y-41892902D01*
X17370091Y-41946776D01*
X17477841Y-41946776D01*
X17558653Y-41919839D01*
X17693340Y-41839027D01*
X17774152Y-41758215D01*
X17854964Y-41623528D01*
X17881902Y-41542715D01*
X17881902Y-41434966D01*
X17828027Y-41327216D01*
X17774152Y-41273341D01*
X17666402Y-41219467D01*
X17612528Y-41219467D01*
X17423966Y-41408028D01*
X17531715Y-41515778D01*
X17423966Y-40923155D02*
X16858280Y-41488841D01*
X16642781Y-41273341D01*
X16615844Y-41192529D01*
X16615844Y-41138654D01*
X16642781Y-41057842D01*
X16723593Y-40977030D01*
X16804406Y-40950093D01*
X16858280Y-40950093D01*
X16939093Y-40977030D01*
X17154592Y-41192529D01*
X16561969Y-40061158D02*
X16885218Y-40384407D01*
X16723593Y-40222783D02*
X16157908Y-40788468D01*
X16292595Y-40761531D01*
X16400345Y-40761531D01*
X16481157Y-40788468D01*
X15834659Y-40357470D02*
X15780784Y-40357470D01*
X15699972Y-40330532D01*
X15565285Y-40195845D01*
X15538348Y-40115033D01*
X15538348Y-40061158D01*
X15565285Y-39980346D01*
X15619160Y-39926471D01*
X15726910Y-39872597D01*
X16373407Y-39872597D01*
X16023221Y-39522410D01*
X52983966Y-68454526D02*
X53361089Y-67700279D01*
X52606842Y-68077402D01*
X52983966Y-67377030D02*
X52930091Y-67269280D01*
X52795404Y-67134593D01*
X52714592Y-67107656D01*
X52660717Y-67107656D01*
X52579905Y-67134593D01*
X52526030Y-67188468D01*
X52499093Y-67269280D01*
X52499093Y-67323155D01*
X52526030Y-67403967D01*
X52606842Y-67538654D01*
X52633780Y-67619467D01*
X52633780Y-67673341D01*
X52606842Y-67754154D01*
X52552967Y-67808028D01*
X52472155Y-67834966D01*
X52418280Y-67834966D01*
X52337468Y-67808028D01*
X52202781Y-67673341D01*
X52148906Y-67565592D01*
X52068094Y-66946032D02*
X52337468Y-66676658D01*
X51960345Y-67430905D02*
X52068094Y-66946032D01*
X51583221Y-67053781D01*
X51960345Y-66353409D02*
X51906470Y-66245659D01*
X51771783Y-66110972D01*
X51690971Y-66084035D01*
X51637096Y-66084035D01*
X51556284Y-66110972D01*
X51502409Y-66164847D01*
X51475471Y-66245659D01*
X51475471Y-66299534D01*
X51502409Y-66380346D01*
X51583221Y-66515033D01*
X51610158Y-66595845D01*
X51610158Y-66649720D01*
X51583221Y-66730532D01*
X51529346Y-66784407D01*
X51448534Y-66811345D01*
X51394659Y-66811345D01*
X51313847Y-66784407D01*
X51179160Y-66649720D01*
X51125285Y-66541971D01*
X9534592Y-41831277D02*
X9561529Y-41912089D01*
X9642341Y-41992902D01*
X9750091Y-42046776D01*
X9857841Y-42046776D01*
X9938653Y-42019839D01*
X10073340Y-41939027D01*
X10154152Y-41858215D01*
X10234964Y-41723528D01*
X10261902Y-41642715D01*
X10261902Y-41534966D01*
X10208027Y-41427216D01*
X10154152Y-41373341D01*
X10046402Y-41319467D01*
X9992528Y-41319467D01*
X9803966Y-41508028D01*
X9911715Y-41615778D01*
X9803966Y-41023155D02*
X9238280Y-41588841D01*
X9022781Y-41373341D01*
X8995844Y-41292529D01*
X8995844Y-41238654D01*
X9022781Y-41157842D01*
X9103593Y-41077030D01*
X9184406Y-41050093D01*
X9238280Y-41050093D01*
X9319093Y-41077030D01*
X9534592Y-41292529D01*
X8941969Y-40161158D02*
X9265218Y-40484407D01*
X9103593Y-40322783D02*
X8537908Y-40888468D01*
X8672595Y-40861531D01*
X8780345Y-40861531D01*
X8861157Y-40888468D01*
X8079972Y-40053409D02*
X8457096Y-39676285D01*
X7999160Y-40403595D02*
X8537908Y-40134221D01*
X8187722Y-39784035D01*
X24532155Y-41888841D02*
X24559093Y-41969653D01*
X24639905Y-42050465D01*
X24747654Y-42104340D01*
X24855404Y-42104340D01*
X24936216Y-42077402D01*
X25070903Y-41996590D01*
X25151715Y-41915778D01*
X25232528Y-41781091D01*
X25259465Y-41700279D01*
X25259465Y-41592529D01*
X25205590Y-41484780D01*
X25151715Y-41430905D01*
X25043966Y-41377030D01*
X24990091Y-41377030D01*
X24801529Y-41565592D01*
X24909279Y-41673341D01*
X24801529Y-41080719D02*
X24235844Y-41646404D01*
X24478280Y-40757470D01*
X23912595Y-41323155D01*
X24208906Y-40488096D02*
X23643221Y-41053781D01*
X23508534Y-40919094D01*
X23454659Y-40811345D01*
X23454659Y-40703595D01*
X23481597Y-40622783D01*
X23562409Y-40488096D01*
X23643221Y-40407284D01*
X23777908Y-40326471D01*
X23858720Y-40299534D01*
X23966470Y-40299534D01*
X24074219Y-40353409D01*
X24208906Y-40488096D01*
X27314592Y-67985277D02*
X27341529Y-68066089D01*
X27422341Y-68146902D01*
X27530091Y-68200776D01*
X27637841Y-68200776D01*
X27718653Y-68173839D01*
X27853340Y-68093027D01*
X27934152Y-68012215D01*
X28014964Y-67877528D01*
X28041902Y-67796715D01*
X28041902Y-67688966D01*
X27988027Y-67581216D01*
X27934152Y-67527341D01*
X27826402Y-67473467D01*
X27772528Y-67473467D01*
X27583966Y-67662028D01*
X27691715Y-67769778D01*
X27583966Y-67177155D02*
X27018280Y-67742841D01*
X26802781Y-67527341D01*
X26775844Y-67446529D01*
X26775844Y-67392654D01*
X26802781Y-67311842D01*
X26883593Y-67231030D01*
X26964406Y-67204093D01*
X27018280Y-67204093D01*
X27099093Y-67231030D01*
X27314592Y-67446529D01*
X26533407Y-67150218D02*
X26479532Y-67150218D01*
X26398720Y-67123280D01*
X26264033Y-66988593D01*
X26237096Y-66907781D01*
X26237096Y-66853906D01*
X26264033Y-66773094D01*
X26317908Y-66719219D01*
X26425658Y-66665345D01*
X27072155Y-66665345D01*
X26721969Y-66315158D01*
X25994659Y-66611470D02*
X25940784Y-66611470D01*
X25859972Y-66584532D01*
X25725285Y-66449845D01*
X25698348Y-66369033D01*
X25698348Y-66315158D01*
X25725285Y-66234346D01*
X25779160Y-66180471D01*
X25886910Y-66126597D01*
X26533407Y-66126597D01*
X26183221Y-65776410D01*
X22224592Y-67985277D02*
X22251529Y-68066089D01*
X22332341Y-68146902D01*
X22440091Y-68200776D01*
X22547841Y-68200776D01*
X22628653Y-68173839D01*
X22763340Y-68093027D01*
X22844152Y-68012215D01*
X22924964Y-67877528D01*
X22951902Y-67796715D01*
X22951902Y-67688966D01*
X22898027Y-67581216D01*
X22844152Y-67527341D01*
X22736402Y-67473467D01*
X22682528Y-67473467D01*
X22493966Y-67662028D01*
X22601715Y-67769778D01*
X22493966Y-67177155D02*
X21928280Y-67742841D01*
X21712781Y-67527341D01*
X21685844Y-67446529D01*
X21685844Y-67392654D01*
X21712781Y-67311842D01*
X21793593Y-67231030D01*
X21874406Y-67204093D01*
X21928280Y-67204093D01*
X22009093Y-67231030D01*
X22224592Y-67446529D01*
X21443407Y-67150218D02*
X21389532Y-67150218D01*
X21308720Y-67123280D01*
X21174033Y-66988593D01*
X21147096Y-66907781D01*
X21147096Y-66853906D01*
X21174033Y-66773094D01*
X21227908Y-66719219D01*
X21335658Y-66665345D01*
X21982155Y-66665345D01*
X21631969Y-66315158D01*
X21093221Y-65776410D02*
X21416470Y-66099659D01*
X21254845Y-65938035D02*
X20689160Y-66503720D01*
X20823847Y-66476783D01*
X20931597Y-66476783D01*
X21012409Y-66503720D01*
X34665218Y-41861903D02*
X34692155Y-41942715D01*
X34772967Y-42023528D01*
X34880717Y-42077402D01*
X34988467Y-42077402D01*
X35069279Y-42050465D01*
X35203966Y-41969653D01*
X35284778Y-41888841D01*
X35365590Y-41754154D01*
X35392528Y-41673341D01*
X35392528Y-41565592D01*
X35338653Y-41457842D01*
X35284778Y-41403967D01*
X35177028Y-41350093D01*
X35123154Y-41350093D01*
X34934592Y-41538654D01*
X35042341Y-41646404D01*
X34934592Y-41053781D02*
X34368906Y-41619467D01*
X34153407Y-41403967D01*
X34126470Y-41323155D01*
X34126470Y-41269280D01*
X34153407Y-41188468D01*
X34234219Y-41107656D01*
X34315032Y-41080719D01*
X34368906Y-41080719D01*
X34449719Y-41107656D01*
X34665218Y-41323155D01*
X33560784Y-40811345D02*
X33668534Y-40919094D01*
X33749346Y-40946032D01*
X33803221Y-40946032D01*
X33937908Y-40919094D01*
X34072595Y-40838282D01*
X34288094Y-40622783D01*
X34315032Y-40541971D01*
X34315032Y-40488096D01*
X34288094Y-40407284D01*
X34180345Y-40299534D01*
X34099532Y-40272597D01*
X34045658Y-40272597D01*
X33964845Y-40299534D01*
X33830158Y-40434221D01*
X33803221Y-40515033D01*
X33803221Y-40568908D01*
X33830158Y-40649720D01*
X33937908Y-40757470D01*
X34018720Y-40784407D01*
X34072595Y-40784407D01*
X34153407Y-40757470D01*
X14614592Y-67985277D02*
X14641529Y-68066089D01*
X14722341Y-68146902D01*
X14830091Y-68200776D01*
X14937841Y-68200776D01*
X15018653Y-68173839D01*
X15153340Y-68093027D01*
X15234152Y-68012215D01*
X15314964Y-67877528D01*
X15341902Y-67796715D01*
X15341902Y-67688966D01*
X15288027Y-67581216D01*
X15234152Y-67527341D01*
X15126402Y-67473467D01*
X15072528Y-67473467D01*
X14883966Y-67662028D01*
X14991715Y-67769778D01*
X14883966Y-67177155D02*
X14318280Y-67742841D01*
X14102781Y-67527341D01*
X14075844Y-67446529D01*
X14075844Y-67392654D01*
X14102781Y-67311842D01*
X14183593Y-67231030D01*
X14264406Y-67204093D01*
X14318280Y-67204093D01*
X14399093Y-67231030D01*
X14614592Y-67446529D01*
X14021969Y-66315158D02*
X14345218Y-66638407D01*
X14183593Y-66476783D02*
X13617908Y-67042468D01*
X13752595Y-67015531D01*
X13860345Y-67015531D01*
X13941157Y-67042468D01*
X13375471Y-66315158D02*
X13402409Y-66395971D01*
X13402409Y-66449845D01*
X13375471Y-66530658D01*
X13348534Y-66557595D01*
X13267722Y-66584532D01*
X13213847Y-66584532D01*
X13133035Y-66557595D01*
X13025285Y-66449845D01*
X12998348Y-66369033D01*
X12998348Y-66315158D01*
X13025285Y-66234346D01*
X13052223Y-66207409D01*
X13133035Y-66180471D01*
X13186910Y-66180471D01*
X13267722Y-66207409D01*
X13375471Y-66315158D01*
X13456284Y-66342096D01*
X13510158Y-66342096D01*
X13590971Y-66315158D01*
X13698720Y-66207409D01*
X13725658Y-66126597D01*
X13725658Y-66072722D01*
X13698720Y-65991910D01*
X13590971Y-65884160D01*
X13510158Y-65857223D01*
X13456284Y-65857223D01*
X13375471Y-65884160D01*
X13267722Y-65991910D01*
X13240784Y-66072722D01*
X13240784Y-66126597D01*
X13267722Y-66207409D01*
X47365218Y-41761903D02*
X47392155Y-41842715D01*
X47472967Y-41923528D01*
X47580717Y-41977402D01*
X47688467Y-41977402D01*
X47769279Y-41950465D01*
X47903966Y-41869653D01*
X47984778Y-41788841D01*
X48065590Y-41654154D01*
X48092528Y-41573341D01*
X48092528Y-41465592D01*
X48038653Y-41357842D01*
X47984778Y-41303967D01*
X47877028Y-41250093D01*
X47823154Y-41250093D01*
X47634592Y-41438654D01*
X47742341Y-41546404D01*
X47634592Y-40953781D02*
X47068906Y-41519467D01*
X46853407Y-41303967D01*
X46826470Y-41223155D01*
X46826470Y-41169280D01*
X46853407Y-41088468D01*
X46934219Y-41007656D01*
X47015032Y-40980719D01*
X47068906Y-40980719D01*
X47149719Y-41007656D01*
X47365218Y-41223155D01*
X46584033Y-40926844D02*
X46530158Y-40926844D01*
X46449346Y-40899906D01*
X46314659Y-40765219D01*
X46287722Y-40684407D01*
X46287722Y-40630532D01*
X46314659Y-40549720D01*
X46368534Y-40495845D01*
X46476284Y-40441971D01*
X47122781Y-40441971D01*
X46772595Y-40091784D01*
X17154592Y-67985277D02*
X17181529Y-68066089D01*
X17262341Y-68146902D01*
X17370091Y-68200776D01*
X17477841Y-68200776D01*
X17558653Y-68173839D01*
X17693340Y-68093027D01*
X17774152Y-68012215D01*
X17854964Y-67877528D01*
X17881902Y-67796715D01*
X17881902Y-67688966D01*
X17828027Y-67581216D01*
X17774152Y-67527341D01*
X17666402Y-67473467D01*
X17612528Y-67473467D01*
X17423966Y-67662028D01*
X17531715Y-67769778D01*
X17423966Y-67177155D02*
X16858280Y-67742841D01*
X16642781Y-67527341D01*
X16615844Y-67446529D01*
X16615844Y-67392654D01*
X16642781Y-67311842D01*
X16723593Y-67231030D01*
X16804406Y-67204093D01*
X16858280Y-67204093D01*
X16939093Y-67231030D01*
X17154592Y-67446529D01*
X16561969Y-66315158D02*
X16885218Y-66638407D01*
X16723593Y-66476783D02*
X16157908Y-67042468D01*
X16292595Y-67015531D01*
X16400345Y-67015531D01*
X16481157Y-67042468D01*
X16292595Y-66045784D02*
X16184845Y-65938035D01*
X16104033Y-65911097D01*
X16050158Y-65911097D01*
X15915471Y-65938035D01*
X15780784Y-66018847D01*
X15565285Y-66234346D01*
X15538348Y-66315158D01*
X15538348Y-66369033D01*
X15565285Y-66449845D01*
X15673035Y-66557595D01*
X15753847Y-66584532D01*
X15807722Y-66584532D01*
X15888534Y-66557595D01*
X16023221Y-66422908D01*
X16050158Y-66342096D01*
X16050158Y-66288221D01*
X16023221Y-66207409D01*
X15915471Y-66099659D01*
X15834659Y-66072722D01*
X15780784Y-66072722D01*
X15699972Y-66099659D01*
X19694592Y-67985277D02*
X19721529Y-68066089D01*
X19802341Y-68146902D01*
X19910091Y-68200776D01*
X20017841Y-68200776D01*
X20098653Y-68173839D01*
X20233340Y-68093027D01*
X20314152Y-68012215D01*
X20394964Y-67877528D01*
X20421902Y-67796715D01*
X20421902Y-67688966D01*
X20368027Y-67581216D01*
X20314152Y-67527341D01*
X20206402Y-67473467D01*
X20152528Y-67473467D01*
X19963966Y-67662028D01*
X20071715Y-67769778D01*
X19963966Y-67177155D02*
X19398280Y-67742841D01*
X19182781Y-67527341D01*
X19155844Y-67446529D01*
X19155844Y-67392654D01*
X19182781Y-67311842D01*
X19263593Y-67231030D01*
X19344406Y-67204093D01*
X19398280Y-67204093D01*
X19479093Y-67231030D01*
X19694592Y-67446529D01*
X18913407Y-67150218D02*
X18859532Y-67150218D01*
X18778720Y-67123280D01*
X18644033Y-66988593D01*
X18617096Y-66907781D01*
X18617096Y-66853906D01*
X18644033Y-66773094D01*
X18697908Y-66719219D01*
X18805658Y-66665345D01*
X19452155Y-66665345D01*
X19101969Y-66315158D01*
X18186097Y-66530658D02*
X18132223Y-66476783D01*
X18105285Y-66395971D01*
X18105285Y-66342096D01*
X18132223Y-66261284D01*
X18213035Y-66126597D01*
X18347722Y-65991910D01*
X18482409Y-65911097D01*
X18563221Y-65884160D01*
X18617096Y-65884160D01*
X18697908Y-65911097D01*
X18751783Y-65964972D01*
X18778720Y-66045784D01*
X18778720Y-66099659D01*
X18751783Y-66180471D01*
X18670971Y-66315158D01*
X18536284Y-66449845D01*
X18401597Y-66530658D01*
X18320784Y-66557595D01*
X18266910Y-66557595D01*
X18186097Y-66530658D01*
X49932155Y-41888841D02*
X49959093Y-41969653D01*
X50039905Y-42050465D01*
X50147654Y-42104340D01*
X50255404Y-42104340D01*
X50336216Y-42077402D01*
X50470903Y-41996590D01*
X50551715Y-41915778D01*
X50632528Y-41781091D01*
X50659465Y-41700279D01*
X50659465Y-41592529D01*
X50605590Y-41484780D01*
X50551715Y-41430905D01*
X50443966Y-41377030D01*
X50390091Y-41377030D01*
X50201529Y-41565592D01*
X50309279Y-41673341D01*
X50201529Y-41080719D02*
X49635844Y-41646404D01*
X49878280Y-40757470D01*
X49312595Y-41323155D01*
X49608906Y-40488096D02*
X49043221Y-41053781D01*
X48908534Y-40919094D01*
X48854659Y-40811345D01*
X48854659Y-40703595D01*
X48881597Y-40622783D01*
X48962409Y-40488096D01*
X49043221Y-40407284D01*
X49177908Y-40326471D01*
X49258720Y-40299534D01*
X49366470Y-40299534D01*
X49474219Y-40353409D01*
X49608906Y-40488096D01*
X11832155Y-41888841D02*
X11859093Y-41969653D01*
X11939905Y-42050465D01*
X12047654Y-42104340D01*
X12155404Y-42104340D01*
X12236216Y-42077402D01*
X12370903Y-41996590D01*
X12451715Y-41915778D01*
X12532528Y-41781091D01*
X12559465Y-41700279D01*
X12559465Y-41592529D01*
X12505590Y-41484780D01*
X12451715Y-41430905D01*
X12343966Y-41377030D01*
X12290091Y-41377030D01*
X12101529Y-41565592D01*
X12209279Y-41673341D01*
X12101529Y-41080719D02*
X11535844Y-41646404D01*
X11778280Y-40757470D01*
X11212595Y-41323155D01*
X11508906Y-40488096D02*
X10943221Y-41053781D01*
X10808534Y-40919094D01*
X10754659Y-40811345D01*
X10754659Y-40703595D01*
X10781597Y-40622783D01*
X10862409Y-40488096D01*
X10943221Y-40407284D01*
X11077908Y-40326471D01*
X11158720Y-40299534D01*
X11266470Y-40299534D01*
X11374219Y-40353409D01*
X11508906Y-40488096D01*
X44825218Y-41861903D02*
X44852155Y-41942715D01*
X44932967Y-42023528D01*
X45040717Y-42077402D01*
X45148467Y-42077402D01*
X45229279Y-42050465D01*
X45363966Y-41969653D01*
X45444778Y-41888841D01*
X45525590Y-41754154D01*
X45552528Y-41673341D01*
X45552528Y-41565592D01*
X45498653Y-41457842D01*
X45444778Y-41403967D01*
X45337028Y-41350093D01*
X45283154Y-41350093D01*
X45094592Y-41538654D01*
X45202341Y-41646404D01*
X45094592Y-41053781D02*
X44528906Y-41619467D01*
X44313407Y-41403967D01*
X44286470Y-41323155D01*
X44286470Y-41269280D01*
X44313407Y-41188468D01*
X44394219Y-41107656D01*
X44475032Y-41080719D01*
X44528906Y-41080719D01*
X44609719Y-41107656D01*
X44825218Y-41323155D01*
X44017096Y-41107656D02*
X43666910Y-40757470D01*
X44070971Y-40730532D01*
X43990158Y-40649720D01*
X43963221Y-40568908D01*
X43963221Y-40515033D01*
X43990158Y-40434221D01*
X44124845Y-40299534D01*
X44205658Y-40272597D01*
X44259532Y-40272597D01*
X44340345Y-40299534D01*
X44501969Y-40461158D01*
X44528906Y-40541971D01*
X44528906Y-40595845D01*
X54985218Y-41861903D02*
X55012155Y-41942715D01*
X55092967Y-42023528D01*
X55200717Y-42077402D01*
X55308467Y-42077402D01*
X55389279Y-42050465D01*
X55523966Y-41969653D01*
X55604778Y-41888841D01*
X55685590Y-41754154D01*
X55712528Y-41673341D01*
X55712528Y-41565592D01*
X55658653Y-41457842D01*
X55604778Y-41403967D01*
X55497028Y-41350093D01*
X55443154Y-41350093D01*
X55254592Y-41538654D01*
X55362341Y-41646404D01*
X55254592Y-41053781D02*
X54688906Y-41619467D01*
X54473407Y-41403967D01*
X54446470Y-41323155D01*
X54446470Y-41269280D01*
X54473407Y-41188468D01*
X54554219Y-41107656D01*
X54635032Y-41080719D01*
X54688906Y-41080719D01*
X54769719Y-41107656D01*
X54985218Y-41323155D01*
X54015471Y-40946032D02*
X53961597Y-40892157D01*
X53934659Y-40811345D01*
X53934659Y-40757470D01*
X53961597Y-40676658D01*
X54042409Y-40541971D01*
X54177096Y-40407284D01*
X54311783Y-40326471D01*
X54392595Y-40299534D01*
X54446470Y-40299534D01*
X54527282Y-40326471D01*
X54581157Y-40380346D01*
X54608094Y-40461158D01*
X54608094Y-40515033D01*
X54581157Y-40595845D01*
X54500345Y-40730532D01*
X54365658Y-40865219D01*
X54230971Y-40946032D01*
X54150158Y-40972969D01*
X54096284Y-40972969D01*
X54015471Y-40946032D01*
X39745218Y-41861903D02*
X39772155Y-41942715D01*
X39852967Y-42023528D01*
X39960717Y-42077402D01*
X40068467Y-42077402D01*
X40149279Y-42050465D01*
X40283966Y-41969653D01*
X40364778Y-41888841D01*
X40445590Y-41754154D01*
X40472528Y-41673341D01*
X40472528Y-41565592D01*
X40418653Y-41457842D01*
X40364778Y-41403967D01*
X40257028Y-41350093D01*
X40203154Y-41350093D01*
X40014592Y-41538654D01*
X40122341Y-41646404D01*
X40014592Y-41053781D02*
X39448906Y-41619467D01*
X39233407Y-41403967D01*
X39206470Y-41323155D01*
X39206470Y-41269280D01*
X39233407Y-41188468D01*
X39314219Y-41107656D01*
X39395032Y-41080719D01*
X39448906Y-41080719D01*
X39529719Y-41107656D01*
X39745218Y-41323155D01*
X38613847Y-40784407D02*
X38883221Y-41053781D01*
X39179532Y-40811345D01*
X39125658Y-40811345D01*
X39044845Y-40784407D01*
X38910158Y-40649720D01*
X38883221Y-40568908D01*
X38883221Y-40515033D01*
X38910158Y-40434221D01*
X39044845Y-40299534D01*
X39125658Y-40272597D01*
X39179532Y-40272597D01*
X39260345Y-40299534D01*
X39395032Y-40434221D01*
X39421969Y-40515033D01*
X39421969Y-40568908D01*
X4857809Y-61270238D02*
X4895904Y-61155952D01*
X4895904Y-60965476D01*
X4857809Y-60889285D01*
X4819714Y-60851190D01*
X4743523Y-60813095D01*
X4667333Y-60813095D01*
X4591142Y-60851190D01*
X4553047Y-60889285D01*
X4514952Y-60965476D01*
X4476857Y-61117857D01*
X4438761Y-61194047D01*
X4400666Y-61232142D01*
X4324476Y-61270238D01*
X4248285Y-61270238D01*
X4172095Y-61232142D01*
X4134000Y-61194047D01*
X4095904Y-61117857D01*
X4095904Y-60927380D01*
X4134000Y-60813095D01*
X4095904Y-60546428D02*
X4895904Y-60355952D01*
X4324476Y-60203571D01*
X4895904Y-60051190D01*
X4095904Y-59860714D01*
X4895904Y-59555952D02*
X4095904Y-59555952D01*
X4095904Y-59365476D01*
X4134000Y-59251190D01*
X4210190Y-59175000D01*
X4286380Y-59136904D01*
X4438761Y-59098809D01*
X4553047Y-59098809D01*
X4705428Y-59136904D01*
X4781619Y-59175000D01*
X4857809Y-59251190D01*
X4895904Y-59365476D01*
X4895904Y-59555952D01*
X4895904Y-58755952D02*
X4095904Y-58755952D01*
X4095904Y-58222619D02*
X4095904Y-58070238D01*
X4134000Y-57994047D01*
X4210190Y-57917857D01*
X4362571Y-57879761D01*
X4629238Y-57879761D01*
X4781619Y-57917857D01*
X4857809Y-57994047D01*
X4895904Y-58070238D01*
X4895904Y-58222619D01*
X4857809Y-58298809D01*
X4781619Y-58375000D01*
X4629238Y-58413095D01*
X4362571Y-58413095D01*
X4210190Y-58375000D01*
X4134000Y-58298809D01*
X4095904Y-58222619D01*
X27045218Y-41861903D02*
X27072155Y-41942715D01*
X27152967Y-42023528D01*
X27260717Y-42077402D01*
X27368467Y-42077402D01*
X27449279Y-42050465D01*
X27583966Y-41969653D01*
X27664778Y-41888841D01*
X27745590Y-41754154D01*
X27772528Y-41673341D01*
X27772528Y-41565592D01*
X27718653Y-41457842D01*
X27664778Y-41403967D01*
X27557028Y-41350093D01*
X27503154Y-41350093D01*
X27314592Y-41538654D01*
X27422341Y-41646404D01*
X27314592Y-41053781D02*
X26748906Y-41619467D01*
X26533407Y-41403967D01*
X26506470Y-41323155D01*
X26506470Y-41269280D01*
X26533407Y-41188468D01*
X26614219Y-41107656D01*
X26695032Y-41080719D01*
X26748906Y-41080719D01*
X26829719Y-41107656D01*
X27045218Y-41323155D01*
X26721969Y-40461158D02*
X26614219Y-40353409D01*
X26533407Y-40326471D01*
X26479532Y-40326471D01*
X26344845Y-40353409D01*
X26210158Y-40434221D01*
X25994659Y-40649720D01*
X25967722Y-40730532D01*
X25967722Y-40784407D01*
X25994659Y-40865219D01*
X26102409Y-40972969D01*
X26183221Y-40999906D01*
X26237096Y-40999906D01*
X26317908Y-40972969D01*
X26452595Y-40838282D01*
X26479532Y-40757470D01*
X26479532Y-40703595D01*
X26452595Y-40622783D01*
X26344845Y-40515033D01*
X26264033Y-40488096D01*
X26210158Y-40488096D01*
X26129346Y-40515033D01*
X40268592Y-67985277D02*
X40295529Y-68066089D01*
X40376341Y-68146902D01*
X40484091Y-68200776D01*
X40591841Y-68200776D01*
X40672653Y-68173839D01*
X40807340Y-68093027D01*
X40888152Y-68012215D01*
X40968964Y-67877528D01*
X40995902Y-67796715D01*
X40995902Y-67688966D01*
X40942027Y-67581216D01*
X40888152Y-67527341D01*
X40780402Y-67473467D01*
X40726528Y-67473467D01*
X40537966Y-67662028D01*
X40645715Y-67769778D01*
X40537966Y-67177155D02*
X39972280Y-67742841D01*
X39756781Y-67527341D01*
X39729844Y-67446529D01*
X39729844Y-67392654D01*
X39756781Y-67311842D01*
X39837593Y-67231030D01*
X39918406Y-67204093D01*
X39972280Y-67204093D01*
X40053093Y-67231030D01*
X40268592Y-67446529D01*
X39487407Y-67150218D02*
X39433532Y-67150218D01*
X39352720Y-67123280D01*
X39218033Y-66988593D01*
X39191096Y-66907781D01*
X39191096Y-66853906D01*
X39218033Y-66773094D01*
X39271908Y-66719219D01*
X39379658Y-66665345D01*
X40026155Y-66665345D01*
X39675969Y-66315158D01*
X39029471Y-66315158D02*
X39056409Y-66395971D01*
X39056409Y-66449845D01*
X39029471Y-66530658D01*
X39002534Y-66557595D01*
X38921722Y-66584532D01*
X38867847Y-66584532D01*
X38787035Y-66557595D01*
X38679285Y-66449845D01*
X38652348Y-66369033D01*
X38652348Y-66315158D01*
X38679285Y-66234346D01*
X38706223Y-66207409D01*
X38787035Y-66180471D01*
X38840910Y-66180471D01*
X38921722Y-66207409D01*
X39029471Y-66315158D01*
X39110284Y-66342096D01*
X39164158Y-66342096D01*
X39244971Y-66315158D01*
X39352720Y-66207409D01*
X39379658Y-66126597D01*
X39379658Y-66072722D01*
X39352720Y-65991910D01*
X39244971Y-65884160D01*
X39164158Y-65857223D01*
X39110284Y-65857223D01*
X39029471Y-65884160D01*
X38921722Y-65991910D01*
X38894784Y-66072722D01*
X38894784Y-66126597D01*
X38921722Y-66207409D01*
X37232155Y-41888841D02*
X37259093Y-41969653D01*
X37339905Y-42050465D01*
X37447654Y-42104340D01*
X37555404Y-42104340D01*
X37636216Y-42077402D01*
X37770903Y-41996590D01*
X37851715Y-41915778D01*
X37932528Y-41781091D01*
X37959465Y-41700279D01*
X37959465Y-41592529D01*
X37905590Y-41484780D01*
X37851715Y-41430905D01*
X37743966Y-41377030D01*
X37690091Y-41377030D01*
X37501529Y-41565592D01*
X37609279Y-41673341D01*
X37501529Y-41080719D02*
X36935844Y-41646404D01*
X37178280Y-40757470D01*
X36612595Y-41323155D01*
X36908906Y-40488096D02*
X36343221Y-41053781D01*
X36208534Y-40919094D01*
X36154659Y-40811345D01*
X36154659Y-40703595D01*
X36181597Y-40622783D01*
X36262409Y-40488096D01*
X36343221Y-40407284D01*
X36477908Y-40326471D01*
X36558720Y-40299534D01*
X36666470Y-40299534D01*
X36774219Y-40353409D01*
X36908906Y-40488096D01*
X24532155Y-67488841D02*
X24559093Y-67569653D01*
X24639905Y-67650465D01*
X24747654Y-67704340D01*
X24855404Y-67704340D01*
X24936216Y-67677402D01*
X25070903Y-67596590D01*
X25151715Y-67515778D01*
X25232528Y-67381091D01*
X25259465Y-67300279D01*
X25259465Y-67192529D01*
X25205590Y-67084780D01*
X25151715Y-67030905D01*
X25043966Y-66977030D01*
X24990091Y-66977030D01*
X24801529Y-67165592D01*
X24909279Y-67273341D01*
X24801529Y-66680719D02*
X24235844Y-67246404D01*
X24478280Y-66357470D01*
X23912595Y-66923155D01*
X24208906Y-66088096D02*
X23643221Y-66653781D01*
X23508534Y-66519094D01*
X23454659Y-66411345D01*
X23454659Y-66303595D01*
X23481597Y-66222783D01*
X23562409Y-66088096D01*
X23643221Y-66007284D01*
X23777908Y-65926471D01*
X23858720Y-65899534D01*
X23966470Y-65899534D01*
X24074219Y-65953409D01*
X24208906Y-66088096D01*
X6994592Y-67985277D02*
X7021529Y-68066089D01*
X7102341Y-68146902D01*
X7210091Y-68200776D01*
X7317841Y-68200776D01*
X7398653Y-68173839D01*
X7533340Y-68093027D01*
X7614152Y-68012215D01*
X7694964Y-67877528D01*
X7721902Y-67796715D01*
X7721902Y-67688966D01*
X7668027Y-67581216D01*
X7614152Y-67527341D01*
X7506402Y-67473467D01*
X7452528Y-67473467D01*
X7263966Y-67662028D01*
X7371715Y-67769778D01*
X7263966Y-67177155D02*
X6698280Y-67742841D01*
X6482781Y-67527341D01*
X6455844Y-67446529D01*
X6455844Y-67392654D01*
X6482781Y-67311842D01*
X6563593Y-67231030D01*
X6644406Y-67204093D01*
X6698280Y-67204093D01*
X6779093Y-67231030D01*
X6994592Y-67446529D01*
X6401969Y-66315158D02*
X6725218Y-66638407D01*
X6563593Y-66476783D02*
X5997908Y-67042468D01*
X6132595Y-67015531D01*
X6240345Y-67015531D01*
X6321157Y-67042468D01*
X5351410Y-66395971D02*
X5459160Y-66503720D01*
X5539972Y-66530658D01*
X5593847Y-66530658D01*
X5728534Y-66503720D01*
X5863221Y-66422908D01*
X6078720Y-66207409D01*
X6105658Y-66126597D01*
X6105658Y-66072722D01*
X6078720Y-65991910D01*
X5970971Y-65884160D01*
X5890158Y-65857223D01*
X5836284Y-65857223D01*
X5755471Y-65884160D01*
X5620784Y-66018847D01*
X5593847Y-66099659D01*
X5593847Y-66153534D01*
X5620784Y-66234346D01*
X5728534Y-66342096D01*
X5809346Y-66369033D01*
X5863221Y-66369033D01*
X5944033Y-66342096D01*
X29585218Y-41861903D02*
X29612155Y-41942715D01*
X29692967Y-42023528D01*
X29800717Y-42077402D01*
X29908467Y-42077402D01*
X29989279Y-42050465D01*
X30123966Y-41969653D01*
X30204778Y-41888841D01*
X30285590Y-41754154D01*
X30312528Y-41673341D01*
X30312528Y-41565592D01*
X30258653Y-41457842D01*
X30204778Y-41403967D01*
X30097028Y-41350093D01*
X30043154Y-41350093D01*
X29854592Y-41538654D01*
X29962341Y-41646404D01*
X29854592Y-41053781D02*
X29288906Y-41619467D01*
X29073407Y-41403967D01*
X29046470Y-41323155D01*
X29046470Y-41269280D01*
X29073407Y-41188468D01*
X29154219Y-41107656D01*
X29235032Y-41080719D01*
X29288906Y-41080719D01*
X29369719Y-41107656D01*
X29585218Y-41323155D01*
X28884845Y-40730532D02*
X28911783Y-40811345D01*
X28911783Y-40865219D01*
X28884845Y-40946032D01*
X28857908Y-40972969D01*
X28777096Y-40999906D01*
X28723221Y-40999906D01*
X28642409Y-40972969D01*
X28534659Y-40865219D01*
X28507722Y-40784407D01*
X28507722Y-40730532D01*
X28534659Y-40649720D01*
X28561597Y-40622783D01*
X28642409Y-40595845D01*
X28696284Y-40595845D01*
X28777096Y-40622783D01*
X28884845Y-40730532D01*
X28965658Y-40757470D01*
X29019532Y-40757470D01*
X29100345Y-40730532D01*
X29208094Y-40622783D01*
X29235032Y-40541971D01*
X29235032Y-40488096D01*
X29208094Y-40407284D01*
X29100345Y-40299534D01*
X29019532Y-40272597D01*
X28965658Y-40272597D01*
X28884845Y-40299534D01*
X28777096Y-40407284D01*
X28750158Y-40488096D01*
X28750158Y-40541971D01*
X28777096Y-40622783D01*
X45024592Y-67885152D02*
X44674406Y-67534966D01*
X45078467Y-67508028D01*
X44997654Y-67427216D01*
X44970717Y-67346404D01*
X44970717Y-67292529D01*
X44997654Y-67211717D01*
X45132341Y-67077030D01*
X45213154Y-67050093D01*
X45267028Y-67050093D01*
X45347841Y-67077030D01*
X45509465Y-67238654D01*
X45536402Y-67319467D01*
X45536402Y-67373341D01*
X44512781Y-67373341D02*
X44889905Y-66619094D01*
X44135658Y-66996218D01*
X44000971Y-66861531D02*
X43650784Y-66511345D01*
X44054845Y-66484407D01*
X43974033Y-66403595D01*
X43947096Y-66322783D01*
X43947096Y-66268908D01*
X43974033Y-66188096D01*
X44108720Y-66053409D01*
X44189532Y-66026471D01*
X44243407Y-66026471D01*
X44324219Y-66053409D01*
X44485844Y-66215033D01*
X44512781Y-66295845D01*
X44512781Y-66349720D01*
X49092308Y-69452868D02*
X48742122Y-69102682D01*
X49146183Y-69075744D01*
X49065370Y-68994932D01*
X49038433Y-68914120D01*
X49038433Y-68860245D01*
X49065370Y-68779433D01*
X49200057Y-68644746D01*
X49280870Y-68617809D01*
X49334744Y-68617809D01*
X49415557Y-68644746D01*
X49577181Y-68806370D01*
X49604118Y-68887183D01*
X49604118Y-68941057D01*
X48580497Y-68941057D02*
X48957621Y-68186810D01*
X48203374Y-68563934D01*
X48068687Y-68429247D02*
X47718500Y-68079061D01*
X48122561Y-68052123D01*
X48041749Y-67971311D01*
X48014812Y-67890499D01*
X48014812Y-67836624D01*
X48041749Y-67755812D01*
X48176436Y-67621125D01*
X48257248Y-67594187D01*
X48311123Y-67594187D01*
X48391935Y-67621125D01*
X48553560Y-67782749D01*
X48580497Y-67863561D01*
X48580497Y-67917436D01*
X48230311Y-67351751D02*
X47799312Y-66920752D01*
X47314439Y-67136251D02*
X47125877Y-66947690D01*
X47341377Y-66570566D02*
X47610751Y-66839940D01*
X47045065Y-67405625D01*
X46775691Y-67136251D01*
X47098940Y-66328129D02*
X46533255Y-66893815D01*
X46775691Y-66004881D01*
X46210006Y-66570566D01*
X4857809Y-50084523D02*
X4895904Y-49970238D01*
X4895904Y-49779761D01*
X4857809Y-49703571D01*
X4819714Y-49665476D01*
X4743523Y-49627380D01*
X4667333Y-49627380D01*
X4591142Y-49665476D01*
X4553047Y-49703571D01*
X4514952Y-49779761D01*
X4476857Y-49932142D01*
X4438761Y-50008333D01*
X4400666Y-50046428D01*
X4324476Y-50084523D01*
X4248285Y-50084523D01*
X4172095Y-50046428D01*
X4134000Y-50008333D01*
X4095904Y-49932142D01*
X4095904Y-49741666D01*
X4134000Y-49627380D01*
X4095904Y-49360714D02*
X4895904Y-49170238D01*
X4324476Y-49017857D01*
X4895904Y-48865476D01*
X4095904Y-48675000D01*
X4819714Y-47913095D02*
X4857809Y-47951190D01*
X4895904Y-48065476D01*
X4895904Y-48141666D01*
X4857809Y-48255952D01*
X4781619Y-48332142D01*
X4705428Y-48370238D01*
X4553047Y-48408333D01*
X4438761Y-48408333D01*
X4286380Y-48370238D01*
X4210190Y-48332142D01*
X4134000Y-48255952D01*
X4095904Y-48141666D01*
X4095904Y-48065476D01*
X4134000Y-47951190D01*
X4172095Y-47913095D01*
X4895904Y-47189285D02*
X4895904Y-47570238D01*
X4095904Y-47570238D01*
X4895904Y-46922619D02*
X4095904Y-46922619D01*
X4895904Y-46465476D02*
X4438761Y-46808333D01*
X4095904Y-46465476D02*
X4553047Y-46922619D01*
X32394592Y-67985277D02*
X32421529Y-68066089D01*
X32502341Y-68146902D01*
X32610091Y-68200776D01*
X32717841Y-68200776D01*
X32798653Y-68173839D01*
X32933340Y-68093027D01*
X33014152Y-68012215D01*
X33094964Y-67877528D01*
X33121902Y-67796715D01*
X33121902Y-67688966D01*
X33068027Y-67581216D01*
X33014152Y-67527341D01*
X32906402Y-67473467D01*
X32852528Y-67473467D01*
X32663966Y-67662028D01*
X32771715Y-67769778D01*
X32663966Y-67177155D02*
X32098280Y-67742841D01*
X31882781Y-67527341D01*
X31855844Y-67446529D01*
X31855844Y-67392654D01*
X31882781Y-67311842D01*
X31963593Y-67231030D01*
X32044406Y-67204093D01*
X32098280Y-67204093D01*
X32179093Y-67231030D01*
X32394592Y-67446529D01*
X31613407Y-67150218D02*
X31559532Y-67150218D01*
X31478720Y-67123280D01*
X31344033Y-66988593D01*
X31317096Y-66907781D01*
X31317096Y-66853906D01*
X31344033Y-66773094D01*
X31397908Y-66719219D01*
X31505658Y-66665345D01*
X32152155Y-66665345D01*
X31801969Y-66315158D01*
X30751410Y-66395971D02*
X30859160Y-66503720D01*
X30939972Y-66530658D01*
X30993847Y-66530658D01*
X31128534Y-66503720D01*
X31263221Y-66422908D01*
X31478720Y-66207409D01*
X31505658Y-66126597D01*
X31505658Y-66072722D01*
X31478720Y-65991910D01*
X31370971Y-65884160D01*
X31290158Y-65857223D01*
X31236284Y-65857223D01*
X31155471Y-65884160D01*
X31020784Y-66018847D01*
X30993847Y-66099659D01*
X30993847Y-66153534D01*
X31020784Y-66234346D01*
X31128534Y-66342096D01*
X31209346Y-66369033D01*
X31263221Y-66369033D01*
X31344033Y-66342096D01*
X9534592Y-67985277D02*
X9561529Y-68066089D01*
X9642341Y-68146902D01*
X9750091Y-68200776D01*
X9857841Y-68200776D01*
X9938653Y-68173839D01*
X10073340Y-68093027D01*
X10154152Y-68012215D01*
X10234964Y-67877528D01*
X10261902Y-67796715D01*
X10261902Y-67688966D01*
X10208027Y-67581216D01*
X10154152Y-67527341D01*
X10046402Y-67473467D01*
X9992528Y-67473467D01*
X9803966Y-67662028D01*
X9911715Y-67769778D01*
X9803966Y-67177155D02*
X9238280Y-67742841D01*
X9022781Y-67527341D01*
X8995844Y-67446529D01*
X8995844Y-67392654D01*
X9022781Y-67311842D01*
X9103593Y-67231030D01*
X9184406Y-67204093D01*
X9238280Y-67204093D01*
X9319093Y-67231030D01*
X9534592Y-67446529D01*
X8941969Y-66315158D02*
X9265218Y-66638407D01*
X9103593Y-66476783D02*
X8537908Y-67042468D01*
X8672595Y-67015531D01*
X8780345Y-67015531D01*
X8861157Y-67042468D01*
X8187722Y-66692282D02*
X7810598Y-66315158D01*
X8618720Y-65991910D01*
X6994592Y-41877277D02*
X7021529Y-41958089D01*
X7102341Y-42038902D01*
X7210091Y-42092776D01*
X7317841Y-42092776D01*
X7398653Y-42065839D01*
X7533340Y-41985027D01*
X7614152Y-41904215D01*
X7694964Y-41769528D01*
X7721902Y-41688715D01*
X7721902Y-41580966D01*
X7668027Y-41473216D01*
X7614152Y-41419341D01*
X7506402Y-41365467D01*
X7452528Y-41365467D01*
X7263966Y-41554028D01*
X7371715Y-41661778D01*
X7263966Y-41069155D02*
X6698280Y-41634841D01*
X6482781Y-41419341D01*
X6455844Y-41338529D01*
X6455844Y-41284654D01*
X6482781Y-41203842D01*
X6563593Y-41123030D01*
X6644406Y-41096093D01*
X6698280Y-41096093D01*
X6779093Y-41123030D01*
X6994592Y-41338529D01*
X6401969Y-40207158D02*
X6725218Y-40530407D01*
X6563593Y-40368783D02*
X5997908Y-40934468D01*
X6132595Y-40907531D01*
X6240345Y-40907531D01*
X6321157Y-40934468D01*
X5324473Y-40261033D02*
X5593847Y-40530407D01*
X5890158Y-40287971D01*
X5836284Y-40287971D01*
X5755471Y-40261033D01*
X5620784Y-40126346D01*
X5593847Y-40045534D01*
X5593847Y-39991659D01*
X5620784Y-39910847D01*
X5755471Y-39776160D01*
X5836284Y-39749223D01*
X5890158Y-39749223D01*
X5970971Y-39776160D01*
X6105658Y-39910847D01*
X6132595Y-39991659D01*
X6132595Y-40045534D01*
X32155218Y-41961903D02*
X32182155Y-42042715D01*
X32262967Y-42123528D01*
X32370717Y-42177402D01*
X32478467Y-42177402D01*
X32559279Y-42150465D01*
X32693966Y-42069653D01*
X32774778Y-41988841D01*
X32855590Y-41854154D01*
X32882528Y-41773341D01*
X32882528Y-41665592D01*
X32828653Y-41557842D01*
X32774778Y-41503967D01*
X32667028Y-41450093D01*
X32613154Y-41450093D01*
X32424592Y-41638654D01*
X32532341Y-41746404D01*
X32424592Y-41153781D02*
X31858906Y-41719467D01*
X31643407Y-41503967D01*
X31616470Y-41423155D01*
X31616470Y-41369280D01*
X31643407Y-41288468D01*
X31724219Y-41207656D01*
X31805032Y-41180719D01*
X31858906Y-41180719D01*
X31939719Y-41207656D01*
X32155218Y-41423155D01*
X31347096Y-41207656D02*
X30969972Y-40830532D01*
X31778094Y-40507284D01*
X42285218Y-41861903D02*
X42312155Y-41942715D01*
X42392967Y-42023528D01*
X42500717Y-42077402D01*
X42608467Y-42077402D01*
X42689279Y-42050465D01*
X42823966Y-41969653D01*
X42904778Y-41888841D01*
X42985590Y-41754154D01*
X43012528Y-41673341D01*
X43012528Y-41565592D01*
X42958653Y-41457842D01*
X42904778Y-41403967D01*
X42797028Y-41350093D01*
X42743154Y-41350093D01*
X42554592Y-41538654D01*
X42662341Y-41646404D01*
X42554592Y-41053781D02*
X41988906Y-41619467D01*
X41773407Y-41403967D01*
X41746470Y-41323155D01*
X41746470Y-41269280D01*
X41773407Y-41188468D01*
X41854219Y-41107656D01*
X41935032Y-41080719D01*
X41988906Y-41080719D01*
X42069719Y-41107656D01*
X42285218Y-41323155D01*
X41369346Y-40622783D02*
X41746470Y-40245659D01*
X41288534Y-40972969D02*
X41827282Y-40703595D01*
X41477096Y-40353409D01*
X45267773Y-69820211D02*
X44998399Y-69550837D01*
X45483272Y-69712462D02*
X44729025Y-70089585D01*
X45106149Y-69335338D01*
X44917587Y-69146776D02*
X44351902Y-69712462D01*
X44217215Y-69577775D01*
X44163340Y-69470025D01*
X44163340Y-69362276D01*
X44190277Y-69281463D01*
X44271089Y-69146776D01*
X44351902Y-69065964D01*
X44486589Y-68985152D01*
X44567401Y-68958215D01*
X44675150Y-68958215D01*
X44782900Y-69012089D01*
X44917587Y-69146776D01*
X43974778Y-68311717D02*
X44028653Y-68311717D01*
X44136402Y-68365592D01*
X44190277Y-68419467D01*
X44244152Y-68527216D01*
X44244152Y-68634966D01*
X44217215Y-68715778D01*
X44136402Y-68850465D01*
X44055590Y-68931277D01*
X43920903Y-69012089D01*
X43840091Y-69039027D01*
X43732341Y-69039027D01*
X43624592Y-68985152D01*
X43570717Y-68931277D01*
X43516842Y-68823528D01*
X43516842Y-68769653D01*
X43974778Y-68096218D02*
X43543780Y-67665219D01*
X42870345Y-68230905D02*
X43247468Y-67476658D01*
X42493221Y-67853781D01*
X42547096Y-66776285D02*
X42466284Y-67234221D01*
X42870345Y-67099534D02*
X42304659Y-67665219D01*
X42089160Y-67449720D01*
X42062223Y-67368908D01*
X42062223Y-67315033D01*
X42089160Y-67234221D01*
X42169972Y-67153409D01*
X42250784Y-67126471D01*
X42304659Y-67126471D01*
X42385471Y-67153409D01*
X42600971Y-67368908D01*
X42008348Y-66830160D02*
X41819786Y-66641598D01*
X42035285Y-66264475D02*
X42304659Y-66533849D01*
X41738974Y-67099534D01*
X41469600Y-66830160D01*
X41307975Y-66129788D02*
X41496537Y-66318349D01*
X41792849Y-66022038D02*
X41227163Y-66587723D01*
X40957789Y-66318349D01*
X14614592Y-41877277D02*
X14641529Y-41958089D01*
X14722341Y-42038902D01*
X14830091Y-42092776D01*
X14937841Y-42092776D01*
X15018653Y-42065839D01*
X15153340Y-41985027D01*
X15234152Y-41904215D01*
X15314964Y-41769528D01*
X15341902Y-41688715D01*
X15341902Y-41580966D01*
X15288027Y-41473216D01*
X15234152Y-41419341D01*
X15126402Y-41365467D01*
X15072528Y-41365467D01*
X14883966Y-41554028D01*
X14991715Y-41661778D01*
X14883966Y-41069155D02*
X14318280Y-41634841D01*
X14102781Y-41419341D01*
X14075844Y-41338529D01*
X14075844Y-41284654D01*
X14102781Y-41203842D01*
X14183593Y-41123030D01*
X14264406Y-41096093D01*
X14318280Y-41096093D01*
X14399093Y-41123030D01*
X14614592Y-41338529D01*
X14021969Y-40207158D02*
X14345218Y-40530407D01*
X14183593Y-40368783D02*
X13617908Y-40934468D01*
X13752595Y-40907531D01*
X13860345Y-40907531D01*
X13941157Y-40934468D01*
X13267722Y-40584282D02*
X12917536Y-40234096D01*
X13321597Y-40207158D01*
X13240784Y-40126346D01*
X13213847Y-40045534D01*
X13213847Y-39991659D01*
X13240784Y-39910847D01*
X13375471Y-39776160D01*
X13456284Y-39749223D01*
X13510158Y-39749223D01*
X13590971Y-39776160D01*
X13752595Y-39937784D01*
X13779532Y-40018597D01*
X13779532Y-40072471D01*
X49932155Y-67488841D02*
X49959093Y-67569653D01*
X50039905Y-67650465D01*
X50147654Y-67704340D01*
X50255404Y-67704340D01*
X50336216Y-67677402D01*
X50470903Y-67596590D01*
X50551715Y-67515778D01*
X50632528Y-67381091D01*
X50659465Y-67300279D01*
X50659465Y-67192529D01*
X50605590Y-67084780D01*
X50551715Y-67030905D01*
X50443966Y-66977030D01*
X50390091Y-66977030D01*
X50201529Y-67165592D01*
X50309279Y-67273341D01*
X50201529Y-66680719D02*
X49635844Y-67246404D01*
X49878280Y-66357470D01*
X49312595Y-66923155D01*
X49608906Y-66088096D02*
X49043221Y-66653781D01*
X48908534Y-66519094D01*
X48854659Y-66411345D01*
X48854659Y-66303595D01*
X48881597Y-66222783D01*
X48962409Y-66088096D01*
X49043221Y-66007284D01*
X49177908Y-65926471D01*
X49258720Y-65899534D01*
X49366470Y-65899534D01*
X49474219Y-65953409D01*
X49608906Y-66088096D01*
X55661309Y-68621870D02*
X56038433Y-67867622D01*
X55284186Y-68244746D01*
X55176436Y-67598248D02*
X55122561Y-67490499D01*
X55122561Y-67436624D01*
X55149499Y-67355812D01*
X55230311Y-67275000D01*
X55311123Y-67248062D01*
X55364998Y-67248062D01*
X55445810Y-67275000D01*
X55661309Y-67490499D01*
X55095624Y-68056184D01*
X54907062Y-67867622D01*
X54880125Y-67786810D01*
X54880125Y-67732935D01*
X54907062Y-67652123D01*
X54960937Y-67598248D01*
X55041749Y-67571311D01*
X55095624Y-67571311D01*
X55176436Y-67598248D01*
X55364998Y-67786810D01*
X54529938Y-67490499D02*
X54987874Y-67032563D01*
X55014812Y-66951751D01*
X55014812Y-66897876D01*
X54987874Y-66817064D01*
X54880125Y-66709314D01*
X54799312Y-66682377D01*
X54745438Y-66682377D01*
X54664625Y-66709314D01*
X54206690Y-67167250D01*
X54503001Y-66386065D02*
X54449126Y-66278316D01*
X54314439Y-66143629D01*
X54233627Y-66116691D01*
X54179752Y-66116691D01*
X54098940Y-66143629D01*
X54045065Y-66197503D01*
X54018128Y-66278316D01*
X54018128Y-66332190D01*
X54045065Y-66413003D01*
X54125877Y-66547690D01*
X54152815Y-66628502D01*
X54152815Y-66682377D01*
X54125877Y-66763189D01*
X54072003Y-66817064D01*
X53991190Y-66844001D01*
X53937316Y-66844001D01*
X53856503Y-66817064D01*
X53721816Y-66682377D01*
X53667942Y-66574627D01*
X11832155Y-67488841D02*
X11859093Y-67569653D01*
X11939905Y-67650465D01*
X12047654Y-67704340D01*
X12155404Y-67704340D01*
X12236216Y-67677402D01*
X12370903Y-67596590D01*
X12451715Y-67515778D01*
X12532528Y-67381091D01*
X12559465Y-67300279D01*
X12559465Y-67192529D01*
X12505590Y-67084780D01*
X12451715Y-67030905D01*
X12343966Y-66977030D01*
X12290091Y-66977030D01*
X12101529Y-67165592D01*
X12209279Y-67273341D01*
X12101529Y-66680719D02*
X11535844Y-67246404D01*
X11778280Y-66357470D01*
X11212595Y-66923155D01*
X11508906Y-66088096D02*
X10943221Y-66653781D01*
X10808534Y-66519094D01*
X10754659Y-66411345D01*
X10754659Y-66303595D01*
X10781597Y-66222783D01*
X10862409Y-66088096D01*
X10943221Y-66007284D01*
X11077908Y-65926471D01*
X11158720Y-65899534D01*
X11266470Y-65899534D01*
X11374219Y-65953409D01*
X11508906Y-66088096D01*
X38174964Y-67931402D02*
X37905590Y-67662028D01*
X38390463Y-67823653D02*
X37636216Y-68200776D01*
X38013340Y-67446529D01*
X36989719Y-67500404D02*
X37016656Y-67581216D01*
X37097468Y-67662028D01*
X37205218Y-67715903D01*
X37312967Y-67715903D01*
X37393780Y-67688966D01*
X37528467Y-67608154D01*
X37609279Y-67527341D01*
X37690091Y-67392654D01*
X37717028Y-67311842D01*
X37717028Y-67204093D01*
X37663154Y-67096343D01*
X37609279Y-67042468D01*
X37501529Y-66988593D01*
X37447654Y-66988593D01*
X37259093Y-67177155D01*
X37366842Y-67284905D01*
X37259093Y-66692282D02*
X36693407Y-67257967D01*
X36935844Y-66369033D01*
X36370158Y-66934719D01*
X36666470Y-66099659D02*
X36100784Y-66665345D01*
X35966097Y-66530658D01*
X35912223Y-66422908D01*
X35912223Y-66315158D01*
X35939160Y-66234346D01*
X36019972Y-66099659D01*
X36100784Y-66018847D01*
X36235471Y-65938035D01*
X36316284Y-65911097D01*
X36424033Y-65911097D01*
X36531783Y-65964972D01*
X36666470Y-66099659D01*
X19694592Y-41731277D02*
X19721529Y-41812089D01*
X19802341Y-41892902D01*
X19910091Y-41946776D01*
X20017841Y-41946776D01*
X20098653Y-41919839D01*
X20233340Y-41839027D01*
X20314152Y-41758215D01*
X20394964Y-41623528D01*
X20421902Y-41542715D01*
X20421902Y-41434966D01*
X20368027Y-41327216D01*
X20314152Y-41273341D01*
X20206402Y-41219467D01*
X20152528Y-41219467D01*
X19963966Y-41408028D01*
X20071715Y-41515778D01*
X19963966Y-40923155D02*
X19398280Y-41488841D01*
X19182781Y-41273341D01*
X19155844Y-41192529D01*
X19155844Y-41138654D01*
X19182781Y-41057842D01*
X19263593Y-40977030D01*
X19344406Y-40950093D01*
X19398280Y-40950093D01*
X19479093Y-40977030D01*
X19694592Y-41192529D01*
X19101969Y-40061158D02*
X19425218Y-40384407D01*
X19263593Y-40222783D02*
X18697908Y-40788468D01*
X18832595Y-40761531D01*
X18940345Y-40761531D01*
X19021157Y-40788468D01*
X18563221Y-39522410D02*
X18886470Y-39845659D01*
X18724845Y-39684035D02*
X18159160Y-40249720D01*
X18293847Y-40222783D01*
X18401597Y-40222783D01*
X18482409Y-40249720D01*
%TO.C,J4*%
X20666666Y-19252380D02*
X20666666Y-19966666D01*
X20619047Y-20109523D01*
X20523809Y-20204761D01*
X20380952Y-20252380D01*
X20285714Y-20252380D01*
X21571428Y-19585714D02*
X21571428Y-20252380D01*
X21333333Y-19204761D02*
X21095238Y-19919047D01*
X21714285Y-19919047D01*
%TO.C,J3*%
X35666666Y-19252380D02*
X35666666Y-19966666D01*
X35619047Y-20109523D01*
X35523809Y-20204761D01*
X35380952Y-20252380D01*
X35285714Y-20252380D01*
X36047619Y-19252380D02*
X36666666Y-19252380D01*
X36333333Y-19633333D01*
X36476190Y-19633333D01*
X36571428Y-19680952D01*
X36619047Y-19728571D01*
X36666666Y-19823809D01*
X36666666Y-20061904D01*
X36619047Y-20157142D01*
X36571428Y-20204761D01*
X36476190Y-20252380D01*
X36190476Y-20252380D01*
X36095238Y-20204761D01*
X36047619Y-20157142D01*
%TO.C,J2*%
X25666666Y-20952380D02*
X25666666Y-21666666D01*
X25619047Y-21809523D01*
X25523809Y-21904761D01*
X25380952Y-21952380D01*
X25285714Y-21952380D01*
X26095238Y-21047619D02*
X26142857Y-21000000D01*
X26238095Y-20952380D01*
X26476190Y-20952380D01*
X26571428Y-21000000D01*
X26619047Y-21047619D01*
X26666666Y-21142857D01*
X26666666Y-21238095D01*
X26619047Y-21380952D01*
X26047619Y-21952380D01*
X26666666Y-21952380D01*
%TO.C,J1*%
X40666666Y-20952380D02*
X40666666Y-21666666D01*
X40619047Y-21809523D01*
X40523809Y-21904761D01*
X40380952Y-21952380D01*
X40285714Y-21952380D01*
X41666666Y-21952380D02*
X41095238Y-21952380D01*
X41380952Y-21952380D02*
X41380952Y-20952380D01*
X41285714Y-21095238D01*
X41190476Y-21190476D01*
X41095238Y-21238095D01*
D14*
%TO.C,D1*%
X51115000Y-68840000D02*
X51115000Y-71300000D01*
X52585000Y-68840000D02*
X51115000Y-68840000D01*
X52585000Y-71300000D02*
X52585000Y-68840000D01*
%TO.C,R4*%
X34772936Y-30765000D02*
X35227064Y-30765000D01*
X34772936Y-32235000D02*
X35227064Y-32235000D01*
%TO.C,R3*%
X34772936Y-28265000D02*
X35227064Y-28265000D01*
X34772936Y-29735000D02*
X35227064Y-29735000D01*
%TO.C,R2*%
X19335436Y-28765000D02*
X19789564Y-28765000D01*
X19335436Y-30235000D02*
X19789564Y-30235000D01*
%TO.C,R1*%
X19322936Y-31265000D02*
X19777064Y-31265000D01*
X19322936Y-32735000D02*
X19777064Y-32735000D01*
%TO.C,U1*%
X15634000Y-64475000D02*
X15234000Y-64475000D01*
X48734000Y-43475000D02*
X48334000Y-43475000D01*
X56234000Y-64475000D02*
X55934000Y-64475000D01*
X28434000Y-43475000D02*
X28034000Y-43475000D01*
X48734000Y-64475000D02*
X48334000Y-64475000D01*
X18234000Y-64475000D02*
X17834000Y-64475000D01*
X10634000Y-64475000D02*
X10234000Y-64475000D01*
X56234000Y-43475000D02*
X55934000Y-43475000D01*
X38534000Y-64475000D02*
X38134000Y-64475000D01*
X13134000Y-64475000D02*
X12734000Y-64475000D01*
X41134000Y-64475000D02*
X40734000Y-64475000D01*
X23334000Y-64475000D02*
X22934000Y-64475000D01*
X18234000Y-43475000D02*
X17834000Y-43475000D01*
X13134000Y-43475000D02*
X12734000Y-43475000D01*
X30934000Y-43475000D02*
X30534000Y-43475000D01*
X41134000Y-43475000D02*
X40734000Y-43475000D01*
X28434000Y-64475000D02*
X28034000Y-64475000D01*
X20734000Y-43475000D02*
X20334000Y-43475000D01*
X43634000Y-64475000D02*
X43234000Y-64475000D01*
X5234000Y-55075000D02*
X5234000Y-55475000D01*
X15634000Y-43475000D02*
X15234000Y-43475000D01*
X51234000Y-64475000D02*
X50834000Y-64475000D01*
X43634000Y-43475000D02*
X43234000Y-43475000D01*
X5234000Y-52475000D02*
X5234000Y-52875000D01*
X25834000Y-43475000D02*
X25434000Y-43475000D01*
X38534000Y-43475000D02*
X38134000Y-43475000D01*
X53567000Y-43475000D02*
X53567000Y-46482000D01*
X23334000Y-43475000D02*
X22934000Y-43475000D01*
X46134000Y-64475000D02*
X45734000Y-64475000D01*
X5234000Y-64475000D02*
X5234000Y-57675000D01*
X33434000Y-64475000D02*
X33034000Y-64475000D01*
X36034000Y-43475000D02*
X35634000Y-43475000D01*
X46134000Y-43475000D02*
X45734000Y-43475000D01*
X8034000Y-43475000D02*
X7634000Y-43475000D01*
X33434000Y-43475000D02*
X33034000Y-43475000D01*
X10634000Y-43475000D02*
X10234000Y-43475000D01*
X56234000Y-43475000D02*
X56234000Y-64475000D01*
X36034000Y-64475000D02*
X35634000Y-64475000D01*
X53567000Y-46482000D02*
X56234000Y-46482000D01*
X53834000Y-64475000D02*
X53434000Y-64475000D01*
X8034000Y-64475000D02*
X7634000Y-64475000D01*
X30934000Y-64475000D02*
X30534000Y-64475000D01*
X5234000Y-50275000D02*
X5234000Y-43475000D01*
X20734000Y-64475000D02*
X20334000Y-64475000D01*
X51234000Y-43475000D02*
X50834000Y-43475000D01*
X53834000Y-43475000D02*
X53434000Y-43475000D01*
X25834000Y-64475000D02*
X25434000Y-64475000D01*
%TO.C,J4*%
X14940000Y-17310000D02*
X15960000Y-17310000D01*
X15960000Y-15710000D02*
X17240000Y-15710000D01*
X25340000Y-9490000D02*
X16660000Y-9490000D01*
X27060000Y-13060000D02*
X27060000Y-17310000D01*
X24760000Y-15710000D02*
X24760000Y-18600000D01*
X26040000Y-15710000D02*
X24760000Y-15710000D01*
X14940000Y-13060000D02*
X14940000Y-17310000D01*
X15960000Y-17310000D02*
X15960000Y-15710000D01*
X26040000Y-17310000D02*
X26040000Y-15710000D01*
X27060000Y-17310000D02*
X26040000Y-17310000D01*
%TO.C,J3*%
X29940000Y-17310000D02*
X30960000Y-17310000D01*
X30960000Y-15710000D02*
X32240000Y-15710000D01*
X40340000Y-9490000D02*
X31660000Y-9490000D01*
X42060000Y-13060000D02*
X42060000Y-17310000D01*
X39760000Y-15710000D02*
X39760000Y-18600000D01*
X41040000Y-15710000D02*
X39760000Y-15710000D01*
X29940000Y-13060000D02*
X29940000Y-17310000D01*
X30960000Y-17310000D02*
X30960000Y-15710000D01*
X41040000Y-17310000D02*
X41040000Y-15710000D01*
X42060000Y-17310000D02*
X41040000Y-17310000D01*
%TO.C,J2*%
X23810000Y-22670000D02*
X16130000Y-22670000D01*
X26410000Y-22670000D02*
X26410000Y-24000000D01*
X23810000Y-22670000D02*
X23810000Y-25330000D01*
X16130000Y-22670000D02*
X16130000Y-25330000D01*
X25080000Y-22670000D02*
X26410000Y-22670000D01*
X23810000Y-25330000D02*
X16130000Y-25330000D01*
%TO.C,J1*%
X39270000Y-22670000D02*
X31590000Y-22670000D01*
X41870000Y-22670000D02*
X41870000Y-24000000D01*
X39270000Y-22670000D02*
X39270000Y-25330000D01*
X31590000Y-22670000D02*
X31590000Y-25330000D01*
X40540000Y-22670000D02*
X41870000Y-22670000D01*
X39270000Y-25330000D02*
X31590000Y-25330000D01*
%TD*%
M02*
